<svg width="261" height="303" viewBox="0 0 261 303" fill="none" xmlns="http://www.w3.org/2000/svg">
<g clip-path="url(#clip0_226_242)">
<path d="M110.981 233.612C104.396 241.116 100.516 254.895 105.12 264.206C107.875 263.398 110.589 262.461 113.177 261.299C112.154 252.621 112.569 242.548 116.537 234.648C114.678 234.328 112.825 233.982 110.981 233.612ZM23.5742 231.771C23.8669 209.805 25.6623 185.889 34.2308 165.388C38.7797 154.501 45.407 147.631 56.7636 143.437C69.76 138.637 83.9436 137.961 96.3589 131.489C105.186 137.584 115.462 141.414 124.102 147.803C124.484 148.086 125.834 148.311 126.555 148.304C127.111 148.333 127.571 148.192 127.619 147.813C128.082 144.145 129.27 140.02 132.165 137.604C133.357 140.259 134.265 143.061 135.036 145.744C139.534 161.379 141.073 177.816 141.209 194.042C133.568 193.651 125.683 193.937 119.474 197.711C114.889 200.495 111.349 206.154 113.729 211.577C116.189 217.187 121.38 220.718 125.896 224.603C122.301 226.644 119.595 229.451 117.599 232.73C117.364 232.562 117.081 232.433 116.761 232.38C101.707 229.845 87.3842 225.27 72.2003 224.369C71.5997 212.59 71.5587 200.739 72.2608 188.968C72.3073 188.181 69.1594 187.669 69.1324 188.133C68.4162 200.138 68.4713 212.227 69.1076 224.238C68.1872 224.216 67.2679 224.201 66.341 224.209C64.2227 224.229 64.7877 226.576 66.6003 226.562C80.7213 226.44 94.0148 230.035 107.601 232.916C100.788 241.115 97.2296 255.369 102.493 264.938C100.482 265.478 98.4632 265.97 96.4734 266.452C88.9322 268.284 81.0292 270.074 73.031 271.364C67.5348 272.015 61.0803 272.71 54.83 273.209C50.1536 273.355 45.5107 273.202 40.9553 272.66C34.5278 271.896 26.9597 270.296 25.6785 262.935C23.8907 252.676 23.437 242.171 23.5742 231.771ZM214.015 191.081C213.799 191.721 214.481 192.61 215.602 192.607C220.078 192.595 226.542 192.789 230.27 189.669C231.546 192.102 231.844 196.228 232.207 199.25C232.066 199.281 231.927 199.319 231.805 199.394C230.557 200.173 229.109 200.503 227.68 200.84C222.808 196.734 216 195.588 209.067 195.495C209.375 193.341 210.097 191.281 210.834 189.224C211.802 189.971 212.876 190.597 214.015 191.081ZM142.607 136.203C142.509 136.199 142.423 136.203 142.337 136.208C142.776 132.888 143.186 129.564 143.589 126.241C148.676 128.539 149.454 134.912 149.456 140.724C148.037 138.233 145.945 136.346 142.607 136.203ZM142.114 137.865C142.364 137.999 142.66 138.089 142.99 138.103C146.935 138.27 148.028 144.202 148.79 147.225C148.923 147.757 149.668 148.139 150.401 148.274C151.313 148.576 152.471 148.451 152.475 147.558C152.489 144.719 152.63 141.44 152.404 138.231C161.234 139.732 170.127 145.286 177.563 149.845C187.461 155.91 192.195 164.16 196.305 174.743C196.353 174.867 196.441 174.981 196.556 175.084C196.703 175.684 196.909 176.261 197.171 176.787C198.559 179.569 201.452 182.682 204.821 182.777C205.385 182.794 205.883 182.731 206.332 182.615C206.709 184.102 207.389 185.47 208.3 186.684C207.303 189.59 206.103 192.448 205.836 195.522C201.695 195.634 197.611 196.014 193.974 196.256C193.974 196.134 193.958 196.003 193.902 195.851C189.746 184.936 184.868 165.133 170.492 164.024C157.689 163.038 153.881 186.05 151.105 194.72C148.943 194.583 146.681 194.396 144.368 194.234C144.262 180.344 143.389 165.636 139.935 151.894C140.779 147.24 141.48 142.557 142.114 137.865ZM229.814 202.973C229.651 202.777 229.479 202.596 229.31 202.412C230.401 202.127 231.495 201.887 232.551 201.532C234.058 209.741 235.407 218.003 236.216 226.311C236.87 233.027 237.836 240.523 235.373 247.001C232.307 255.067 223.16 263.563 214.699 256.303C214.698 255.816 214.689 255.338 214.667 254.887C214.325 247.731 212.466 240.928 210.683 234.037C217.826 227.909 238.742 213.7 229.814 202.973ZM124.571 146.421C117.621 141.739 109.884 138.281 102.718 133.958C102.246 133.675 99.0055 131.622 97.5299 130.627C97.5007 130.406 97.2361 130.176 96.8774 129.978C97.41 129.275 97.935 128.566 98.4481 127.849C100.745 124.635 102.92 121.344 105.046 118.019C105.232 117.931 105.385 117.804 105.474 117.621C105.536 117.495 105.592 117.368 105.653 117.242C107.026 117.727 108.36 118.292 109.669 118.915C111.247 119.767 113.064 120.752 114.956 121.796C116.214 122.559 117.455 123.351 118.678 124.161C121.556 126.065 125.305 127.853 127.643 130.427C128.94 131.856 130.023 133.482 130.963 135.205C126.955 137.393 125.209 142.052 124.571 146.421Z" fill="#86BBD8"/>
<path d="M155.829 100.576C157.017 101.328 157.86 102.258 159.284 102.536C159.862 102.649 160.887 102.735 161.109 101.988C162.51 97.2447 161.74 92.5466 161.662 87.6986C161.64 86.4284 158.48 85.8784 158.505 87.4064C158.573 91.5643 159.162 95.6165 158.333 99.6838C158.174 99.5544 158.016 99.4304 157.857 99.3301C156.674 98.5796 154.034 99.439 155.829 100.576ZM136.356 96.5848C135.925 95.1809 139.123 95.5561 139.519 96.85C140.394 99.6967 142.321 101.489 145.348 101.554C147.095 101.59 147.788 103.787 145.653 103.741C141.072 103.645 137.679 100.895 136.356 96.5848ZM143.825 78.0392C143.825 79.8368 143.825 81.6332 143.825 83.4307C143.825 84.7581 140.693 84.0906 140.693 83.0479C140.693 81.2504 140.693 79.454 140.693 77.6565C140.693 76.328 143.825 76.9965 143.825 78.0392ZM165.97 78.0392C165.97 79.8368 165.97 81.6332 165.97 83.4307C165.97 84.7581 162.838 84.0906 162.838 83.0479C162.838 81.2504 162.838 79.454 162.838 77.6565C162.838 76.328 165.97 76.9965 165.97 78.0392ZM146.158 67.7998C144.8 65.3413 141.972 64.9585 139.679 66.3657C138.468 67.1075 135.745 65.4664 137.275 64.5272C141.366 62.0158 146.79 63.1157 149.16 67.4062C150.028 68.9751 146.844 69.042 146.158 67.7998ZM163.255 68.8748C165.056 68.8748 166.856 68.8748 168.656 68.8748C169.364 68.8748 170.296 69.1077 170.723 69.7278C171.142 70.3359 170.37 70.6465 169.875 70.6465C168.074 70.6465 166.274 70.6465 164.474 70.6465C163.766 70.6465 162.835 70.4136 162.407 69.7935C161.987 69.1843 162.759 68.8748 163.255 68.8748ZM21.3899 254.053C22.0316 260.009 22.0446 266.588 27.6467 270.091C39.9702 277.795 58.8333 274.903 72.3439 273.016C86.5027 271.038 102.257 268.743 115.461 262.827C115.493 262.825 115.524 262.819 115.554 262.816C119.875 263.579 126.412 263.725 130.002 261.548C130.585 261.195 131.03 260.866 131.404 260.536C132.778 266.375 137.16 271.541 143.738 271.835C155.112 272.341 164.598 263.392 173.289 257.084C182.234 263.841 195.881 275.504 207.432 271.528C212.67 269.725 214.375 263.36 214.653 258.027C219.118 260.508 224.893 261.226 229.446 258.932C237.976 254.634 240.284 244.639 239.956 235.848C239.595 226.144 238.154 216.461 236.5 206.9C235.792 202.798 235.044 198.699 234.183 194.624C233.888 193.225 233.809 190.726 232.943 189.524C232.774 189.292 232.274 188.992 231.722 188.777C231.722 188.766 231.728 188.755 231.728 188.745C231.677 177.527 230.337 166.16 231.097 154.956C231.533 148.516 235.228 139.174 232.485 132.953C231.407 130.508 226.626 127.925 224.2 129.977C219.79 133.706 220.622 141.057 216.721 145.367C206.044 142.55 190.011 140.249 194.238 152.959C194.337 153.255 194.583 153.487 194.892 153.648C193.667 155.643 193.817 158.534 194.459 161.24C194.502 161.421 194.624 161.583 194.791 161.727C194.398 162.48 194.253 163.34 194.318 164.261C190.553 157.812 185.706 152.534 178.474 148.267C170.524 143.577 161.538 138.11 152.241 136.509C151.629 131.342 149.792 126.608 144.53 124.531C144.294 124.437 144.052 124.396 143.814 124.389C144.024 122.646 144.237 120.905 144.451 119.162C177.054 130.337 174.01 81.9286 173.924 61.4282C181.704 64.7105 189.777 64.9585 195.969 56.5457C206.185 42.6648 198.184 23.5585 182.518 18.4615C174.815 15.9544 166.92 18.1272 159.833 21.4117C155.517 23.4108 151.201 25.7496 146.577 26.9767C140.279 28.647 134.987 27.8997 128.973 25.741C123.153 23.6534 115.845 20.1803 109.486 21.7416C101.919 23.5995 98.1672 32.655 98.8996 39.9615C85.9226 34.018 83.4737 56.6103 83.5861 66.4789C83.693 75.7155 85.2496 86.134 90.06 94.1543C93.6669 100.169 98.999 103.559 105.255 105.865C105.806 106.207 106.299 106.509 106.707 106.757C105.487 109.81 104.218 112.842 102.805 115.814C99.8989 120.413 96.9282 125.006 93.6107 129.326C93.6064 129.447 93.6572 129.543 93.7631 129.613C93.8938 129.714 94.0299 129.809 94.1617 129.909C74.6049 140.243 45.3962 136.539 33.7814 158.799C23.8399 177.855 21.512 201.418 20.665 222.557C20.2491 233.033 20.2664 243.612 21.3899 254.053ZM97.3246 40.9827C96.8612 40.8792 96.3448 40.7756 95.7723 40.67C96.2627 40.6861 96.7824 40.7983 97.3246 40.9827ZM105.653 117.244C107.026 117.729 108.36 118.295 109.669 118.917C111.479 119.782 113.237 120.756 114.956 121.798C116.214 122.561 117.455 123.352 118.678 124.163C121.556 126.067 125.305 127.855 127.643 130.429C128.94 131.858 130.023 133.484 130.963 135.207C126.955 137.393 125.208 142.052 124.571 146.421C117.621 141.739 109.884 138.281 102.718 133.957C102.246 133.674 99.0055 131.621 97.5299 130.626C97.5007 130.405 97.2361 130.175 96.8774 129.978C97.41 129.275 97.9349 128.566 98.4481 127.849C100.745 124.635 102.92 121.345 105.046 118.019C105.232 117.931 105.384 117.804 105.474 117.621C105.538 117.498 105.594 117.371 105.653 117.244ZM143.63 117.094C143.233 116.934 141.547 116.508 141.446 117.326C140.31 126.466 139.288 135.642 137.863 144.748C137.371 143.266 136.857 141.794 136.293 140.347C135.761 138.985 135.179 137.567 134.522 136.17C134.82 135.927 134.57 135.594 134.115 135.307C132.663 132.403 130.81 129.678 128.153 127.896C121.232 123.256 114.41 118.275 106.515 115.427C109.045 109.926 111.113 104.24 113.406 98.6378C115.609 98.53 117.727 97.7914 119.406 96.2613C120.297 95.4494 117.352 94.2449 116.503 95.0169C111.484 99.5911 103.159 94.4454 103.857 87.9703C104.604 81.0089 112.031 81.8877 114.871 87.0656C115.027 87.346 115.417 87.5681 115.868 87.7083C116.026 88.0878 116.445 88.4006 116.934 88.5731L117.412 89.8164C117.412 89.8164 117.747 89.3732 118.277 88.6399C118.505 88.5655 118.705 88.4415 118.842 88.2474C125.407 79.0367 131.441 70.4869 126.904 59.2586C138.777 60.5504 148.806 56.4486 159.972 52.9032C163.335 55.4156 167.145 58.0693 171.101 60.0997C170.91 60.2161 170.789 60.3952 170.791 60.6539C170.833 77.7988 174.859 129.624 143.63 117.094ZM149.456 140.724C148.037 138.232 145.945 136.344 142.607 136.203C142.509 136.199 142.423 136.203 142.337 136.208C142.776 132.888 143.186 129.564 143.589 126.241C148.677 128.539 149.454 134.912 149.456 140.724ZM196.556 175.084C196.703 175.684 196.909 176.261 197.171 176.787C198.559 179.569 201.452 182.682 204.821 182.777C205.385 182.794 205.883 182.731 206.332 182.615C206.709 184.102 207.389 185.471 208.3 186.684C207.303 189.59 206.103 192.448 205.836 195.522C201.695 195.635 197.611 196.014 193.974 196.256C193.974 196.134 193.958 196.003 193.902 195.851C189.746 184.936 184.868 165.133 170.492 164.024C157.689 163.038 153.881 186.05 151.105 194.72C148.943 194.583 146.681 194.396 144.368 194.234C144.262 180.344 143.389 165.636 139.935 151.894C140.78 147.238 141.481 142.556 142.116 137.864C142.367 137.998 142.662 138.088 142.992 138.102C146.937 138.269 148.03 144.201 148.792 147.224C148.925 147.755 149.67 148.137 150.404 148.274C151.315 148.575 152.473 148.448 152.478 147.558C152.492 144.718 152.632 141.438 152.406 138.229C161.236 139.73 170.129 145.285 177.565 149.843C187.463 155.91 192.197 164.159 196.307 174.743C196.354 174.867 196.443 174.98 196.556 175.084ZM230.094 135.927C230.072 138.829 229.536 141.69 229.102 144.549C226.941 158.75 228.444 172.944 228.583 187.229C228.486 187.284 228.394 187.347 228.322 187.432C225.548 190.663 219.31 190.437 215.379 190.444C213.831 189.873 212.499 188.758 211.464 187.379C211.477 187.222 211.347 187.055 211.123 186.901C209.773 184.895 209.025 182.431 209.14 180.257C209.144 180.198 209.133 180.142 209.114 180.087C209.527 179.083 209.708 177.884 209.739 176.637C209.775 175.279 206.614 174.77 206.572 176.385C206.528 178.098 205.98 181.565 203.507 180.201C201.755 179.236 200.199 177.299 199.73 175.338C199.123 172.815 199.68 169.569 202.816 169.31C205.517 169.087 208.224 169.965 210.71 170.934C212.305 171.555 214.086 169.929 212.083 169.148C208.264 167.659 203.388 165.975 199.378 167.723C199.101 167.843 198.853 167.989 198.616 168.147C197.646 166.556 196.565 164.373 197.54 162.936C198.43 161.628 200.073 161.317 201.567 161.226C205.309 161.003 209.213 161.772 212.734 163.012C214.637 163.684 215.158 161.552 213.301 160.9C208.818 159.319 203.382 158.271 198.662 159.24C198.133 159.35 197.677 159.499 197.255 159.667C196.8 155.981 197.757 152.599 202.51 152.991C206.032 153.282 209.381 154.403 212.79 155.251C214.682 155.723 215.148 154.04 213.244 153.566C208.663 152.425 203.849 150.587 199.055 151.216C198.255 151.322 197.582 151.528 196.998 151.802C193.978 139.88 218.082 147.781 223.539 149.7C225.438 150.369 225.953 148.264 224.1 147.611C223.109 147.263 221.662 146.783 219.944 146.269C222.974 142.697 223.308 137.76 225.339 133.638C227.325 129.598 230.118 132.572 230.094 135.927ZM232.207 199.25C232.066 199.281 231.927 199.319 231.805 199.396C230.557 200.173 229.109 200.504 227.68 200.84C222.808 196.735 216 195.588 209.067 195.495C209.375 193.341 210.097 191.281 210.833 189.225C211.806 189.971 212.881 190.597 214.017 191.082C213.801 191.722 214.484 192.611 215.604 192.609C220.081 192.597 226.545 192.79 230.273 189.67C231.545 192.102 231.843 196.228 232.207 199.25ZM210.683 234.036C217.826 227.909 238.742 213.7 229.814 202.973C229.651 202.777 229.479 202.596 229.31 202.412C230.401 202.127 231.495 201.888 232.551 201.533C234.058 209.741 235.407 218.003 236.216 226.311C236.87 233.028 237.836 240.523 235.375 247.001C232.307 255.066 223.16 263.562 214.699 256.302C214.698 255.816 214.689 255.337 214.668 254.886C214.324 247.731 212.465 240.927 210.683 234.036ZM134.487 253.828C135.049 253.156 135.79 252.692 136.778 251.981C140.076 249.603 148.891 242.705 142.508 241.434C142.683 241.339 142.861 241.253 143.032 241.149C143.983 240.578 145.498 239.722 145.42 238.418C145.335 236.995 143.428 236.204 142.324 235.76C142.264 235.737 142.201 235.718 142.14 235.698C143.194 234.881 144.015 233.862 144.101 232.567C144.281 229.905 143.009 228.774 141.16 228.475C142.14 227.392 142.413 226.164 141.371 224.806C138.762 221.401 132.545 221.717 128.926 223.148C128.663 223.253 128.411 223.369 128.155 223.482C124.116 220.02 117.431 216.003 116.441 210.429C115.315 204.092 119.943 199.511 125.668 197.894C134.649 195.356 143.946 196.529 153.111 196.978C154.439 197.043 154.663 196.227 154.227 195.577C155.847 190.565 157.085 185.433 158.997 180.513C160.752 175.993 164.256 166.457 170.346 166.217C177.712 165.925 182.516 175.529 185.087 181.151C187.326 186.045 189.013 191.121 190.925 196.14C190.98 196.287 191.076 196.414 191.196 196.526C190.226 197.028 191.724 198.594 192.968 198.533C198.617 198.256 204.25 197.625 209.915 197.91C215.58 198.192 225.625 198.778 228.03 205.201C231.984 215.763 214.459 226.84 207.892 232.605C207.533 232.729 207.319 232.99 207.43 233.42C208.898 239.114 210.597 244.791 211.201 250.662C211.769 256.184 212.299 266.301 206.079 269.278C200.031 272.172 191.757 266.917 186.783 263.771C182.396 260.995 178.253 257.906 174.075 254.833C174.016 254.791 173.94 254.772 173.875 254.738C173.768 254.679 173.655 254.625 173.537 254.578C172.953 254.349 172.273 254.298 171.843 254.601C165.501 259.074 159.41 264.767 152.116 267.682C146.314 269.998 140.674 270.598 136.468 265.059C133.69 261.395 133.402 258.057 134.487 253.828ZM120.677 233.634C124.03 228.666 129.281 224.032 135.642 224.194C140.069 224.306 138.431 227.57 136.587 228.527C135.998 228.832 135.408 229.106 134.81 229.369C133.323 229.839 131.964 230.38 131.015 230.774C129.945 231.123 128.873 231.47 127.813 231.854C126.029 232.501 128.613 234.067 129.697 233.675C130.868 233.249 135.32 232.114 138.541 230.38C139.303 230.202 140.045 230.114 140.717 230.212C141.293 230.293 140.924 232.351 140.775 232.668C140.436 233.388 139.796 234 139.141 234.441C136.262 236.387 132.69 237.777 129.253 238.333C127.438 238.625 130.064 240.31 131.142 240.138C133.74 239.716 136.386 238.765 138.756 237.634C139.317 237.367 139.963 237.057 140.608 236.697C140.741 236.783 140.901 236.869 141.113 236.954C144.2 238.189 139.617 240.231 138.317 240.799C136.098 241.774 133.577 242.35 131.465 243.534C130.227 244.231 133.125 245.47 133.969 244.995C135.856 243.937 137.968 243.338 140.005 242.565C140.41 242.808 140.881 242.984 141.248 242.987C143.46 242.987 138.73 247.052 137.84 247.765C136.065 249.182 134.219 250.493 132.376 251.82C131.948 251.888 131.592 252.105 131.479 252.519C131.479 252.519 131.478 252.525 131.477 252.528C129.294 254.708 131.332 258.48 127.508 260.051C124.33 261.356 119.882 261.799 116.278 261.306C115.224 252.188 115.307 241.586 120.677 233.634ZM110.981 233.612C112.825 233.982 114.678 234.328 116.538 234.648C112.569 242.55 112.154 252.621 113.178 261.299C110.59 262.461 107.876 263.398 105.121 264.206C100.517 254.899 104.396 241.118 110.981 233.612ZM23.5742 231.771C23.8669 209.805 25.6623 185.889 34.2308 165.388C38.7797 154.501 45.407 147.631 56.7636 143.437C69.76 138.637 83.9436 137.961 96.3589 131.489C105.186 137.584 115.462 141.414 124.102 147.803C124.484 148.086 125.834 148.312 126.555 148.304C127.111 148.333 127.571 148.192 127.619 147.813C128.082 144.145 129.27 140.021 132.165 137.604C133.357 140.259 134.265 143.061 135.036 145.744C139.534 161.379 141.073 177.816 141.208 194.042C133.568 193.652 125.683 193.937 119.474 197.711C114.889 200.495 111.349 206.154 113.729 211.577C116.189 217.187 121.38 220.718 125.896 224.603C122.301 226.644 119.595 229.451 117.599 232.73C117.364 232.562 117.081 232.433 116.761 232.381C101.707 229.845 87.3842 225.27 72.2003 224.369C71.5996 212.59 71.5587 200.739 72.2608 188.969C72.3073 188.181 69.1594 187.669 69.1324 188.133C68.4163 200.139 68.4713 212.227 69.1075 224.238C68.1872 224.216 67.2679 224.201 66.341 224.209C64.2227 224.229 64.7877 226.576 66.6003 226.562C80.7213 226.44 94.0148 230.035 107.601 232.916C100.788 241.115 97.2296 255.369 102.493 264.939C100.482 265.478 98.4632 265.97 96.4734 266.452C88.9322 268.284 81.0292 270.074 73.0311 271.364C66.9817 272.336 60.8783 273.024 54.83 273.209C50.1536 273.355 45.5107 273.203 40.9553 272.66C34.5278 271.896 26.9597 270.297 25.6785 262.935C23.8907 252.676 23.437 242.171 23.5742 231.771ZM264.248 171.475C260.639 178.717 272.078 186.424 277.164 190.659C276.006 194.33 274.846 198.042 274.256 201.849C273.818 204.679 272.88 209.414 275.142 211.779C283.194 220.19 293.874 211.496 301.172 206.191C306.967 210.59 315.4 217.462 322.709 214.844C330.958 211.892 326.446 197.451 324.868 191.501C329.583 187.524 342.55 178.458 336.439 171.776C331.14 165.983 321.753 166.972 314.354 167.478C311.668 160.312 308.433 148.054 299.048 147.578C291.011 147.172 288.62 160.743 286.849 166.539C279.878 166.019 267.72 164.505 264.248 171.475ZM267.038 172.997C270.413 166.22 282.582 168.482 288.659 168.796C289.831 168.857 290.14 168.23 289.897 167.636C291.116 163.729 294.42 147.687 300.592 149.884C307.033 152.175 309.287 162.232 311.435 167.922C311.441 167.942 311.453 167.954 311.46 167.971C311.086 168.603 312.381 169.816 313.479 169.759C318.112 169.523 333.724 167.133 334.605 174.165C335.427 180.734 326.376 186.329 322.079 190.072C321.718 190.196 321.502 190.457 321.615 190.889C322.943 196.009 327.544 209.151 321.214 212.621C315.564 215.721 306.258 207.105 301.964 203.942C301.907 203.902 301.835 203.883 301.774 203.851C301.666 203.791 301.552 203.738 301.436 203.689C300.847 203.455 300.162 203.403 299.731 203.711C296.479 206.02 293.389 208.749 289.857 210.634C287.027 212.143 279.665 215.594 277.571 210.598C277.054 209.362 276.899 208.037 276.956 206.704C277.189 201.332 278.835 196.112 280.442 191.016C280.619 190.454 280.208 189.982 279.632 189.71C275.831 186.481 264.203 178.687 267.038 172.997ZM351.189 171.475C347.581 178.717 359.018 186.424 364.104 190.659C362.946 194.33 361.787 198.042 361.196 201.849C360.757 204.679 359.82 209.414 362.082 211.779C370.133 220.19 380.815 211.496 388.113 206.191C393.906 210.59 402.34 217.46 409.649 214.843C417.898 211.892 413.386 197.451 411.809 191.499C416.524 187.523 429.49 178.456 423.38 171.774C418.083 165.98 408.693 166.97 401.296 167.478C398.61 160.31 395.374 148.052 385.991 147.578C377.954 147.172 375.562 160.743 373.792 166.537C366.819 166.019 354.661 164.505 351.189 171.475ZM353.978 172.997C357.354 166.22 369.523 168.482 375.599 168.796C376.771 168.857 377.08 168.23 376.838 167.636C378.058 163.729 381.36 147.687 387.533 149.884C393.973 152.175 396.228 162.232 398.376 167.922C398.382 167.942 398.394 167.954 398.402 167.971C398.027 168.603 399.322 169.816 400.421 169.759C405.053 169.523 420.666 167.133 421.546 174.165C422.369 180.734 413.319 186.329 409.022 190.072C408.661 190.196 408.445 190.455 408.556 190.889C409.885 196.009 414.486 209.151 408.155 212.621C402.506 215.721 393.199 207.108 388.905 203.942C388.849 203.9 388.777 203.883 388.714 203.851C388.607 203.79 388.494 203.736 388.377 203.689C387.788 203.455 387.104 203.403 386.673 203.711C383.42 206.02 380.33 208.749 376.798 210.634C373.969 212.143 366.606 215.594 364.512 210.598C363.995 209.362 363.84 208.037 363.898 206.704C364.129 201.332 365.776 196.112 367.384 191.016C367.561 190.454 367.149 189.982 366.572 189.71C362.77 186.481 351.143 178.687 353.978 172.997ZM438.129 171.475C434.521 178.717 445.959 186.424 451.045 190.659C449.887 194.33 448.727 198.042 448.137 201.849C447.698 204.679 446.761 209.414 449.023 211.779C457.076 220.19 467.756 211.496 475.054 206.191C480.848 210.59 489.281 217.462 496.592 214.844C504.84 211.892 500.328 197.451 498.75 191.501C503.465 187.524 516.433 178.458 510.322 171.776C505.023 165.983 495.636 166.972 488.237 167.478C485.551 160.312 482.315 148.054 472.931 147.578C464.895 147.172 462.502 160.743 460.732 166.539C453.758 166.019 441.601 164.505 438.129 171.475ZM440.918 172.997C444.294 166.22 456.463 168.482 462.539 168.796C463.711 168.857 464.02 168.23 463.779 167.636C464.998 163.729 468.3 147.687 474.475 149.884C480.913 152.175 483.169 162.232 485.317 167.922C485.324 167.942 485.336 167.954 485.343 167.971C484.968 168.603 486.264 169.816 487.362 169.759C491.994 169.523 507.607 167.133 508.487 174.165C509.309 180.734 500.259 186.329 495.962 190.072C495.6 190.196 495.385 190.457 495.496 190.889C496.826 196.007 501.426 209.151 495.096 212.621C489.445 215.721 480.14 207.108 475.846 203.942C475.789 203.9 475.717 203.883 475.654 203.851C475.546 203.79 475.434 203.736 475.316 203.689C474.729 203.455 474.044 203.405 473.613 203.711C470.36 206.02 467.271 208.749 463.738 210.634C460.909 212.143 453.546 215.594 451.453 210.598C450.935 209.362 450.781 208.037 450.838 206.704C451.069 201.332 452.717 196.111 454.325 191.016C454.502 190.454 454.091 189.982 453.514 189.71C449.71 186.481 438.084 178.687 440.918 172.997ZM525.069 171.475C521.461 178.717 532.899 186.424 537.985 190.659C536.827 194.33 535.667 198.042 535.078 201.849C534.639 204.681 533.701 209.414 535.963 211.779C544.014 220.192 554.696 211.496 561.993 206.191C567.786 210.59 576.221 217.46 583.53 214.843C591.779 211.892 587.266 197.451 585.689 191.499C590.405 187.523 603.371 178.456 597.261 171.774C591.962 165.98 582.574 166.97 575.176 167.478C572.491 160.31 569.254 148.052 559.871 147.578C551.834 147.172 549.443 160.743 547.671 166.537C540.699 166.019 528.541 164.505 525.069 171.475ZM527.858 172.997C531.234 166.22 543.403 168.482 549.479 168.796C550.652 168.857 550.959 168.23 550.718 167.636C551.937 163.731 555.24 147.687 561.415 149.884C567.853 152.175 570.11 162.232 572.256 167.922C572.263 167.942 572.275 167.954 572.282 167.971C571.907 168.603 573.203 169.816 574.301 169.759C578.933 169.523 594.547 167.133 595.427 174.165C596.25 180.734 587.199 186.329 582.902 190.072C582.541 190.196 582.325 190.455 582.437 190.889C583.765 196.009 588.366 209.151 582.036 212.621C576.387 215.721 567.08 207.108 562.786 203.942C562.73 203.9 562.657 203.883 562.595 203.851C562.488 203.79 562.375 203.736 562.258 203.689C561.669 203.455 560.984 203.403 560.553 203.711C557.3 206.02 554.211 208.749 550.679 210.634C547.849 212.143 540.487 215.594 538.393 210.598C537.875 209.362 537.721 208.037 537.778 206.704C538.009 201.332 539.657 196.112 541.264 191.016C541.441 190.454 541.03 189.982 540.453 189.71C536.652 186.483 525.024 178.687 527.858 172.997Z" fill="black"/>
</g>
<defs>
<clipPath id="clip0_226_242">
<rect width="261" height="303" fill="white" transform="matrix(-1 0 0 1 261 0)"/>
</clipPath>
</defs>
</svg>
