<svg width="451" height="238" viewBox="0 0 451 238" fill="none" xmlns="http://www.w3.org/2000/svg">
<g filter="url(#filter0_d_450_1794)">
<path d="M319.849 32.1255C399.901 50.068 452.911 90.8169 445.875 135.807C438.664 181.915 375.832 221.091 288.68 231.42C201.572 241.744 112.998 220.325 66.8635 180.727C20.2912 140.753 22.7274 89.3534 82.3555 54.3285C141.142 19.7977 238.239 13.8336 319.849 32.1255Z" fill="#D9DBF1"/>
<path d="M319.63 33.1013C359.56 42.0511 392.669 56.6739 414.892 74.6017C437.119 92.5322 448.329 113.645 444.887 135.652C441.344 158.302 424.105 179.409 396.733 196.178C369.379 212.935 332.029 225.275 288.562 230.427C201.627 240.731 113.368 219.325 67.5148 179.968C44.3844 160.115 33.5816 137.567 35.7793 115.772C37.9773 93.9744 53.2116 72.6071 82.8619 55.1907C141.35 20.8355 238.159 14.8404 319.63 33.1013Z" stroke="black" stroke-width="2"/>
</g>
<g filter="url(#filter1_d_450_1794)">
<path d="M4.21923 88.2195C3.84801 87.5493 4.04459 86.7732 4.71239 86.2728L117.863 1.47325C118.878 0.713152 120.537 0.881824 121.292 1.82179L126.704 8.55846C126.869 8.76375 127.086 8.94042 127.342 9.07731L137.369 14.4462C137.586 14.5625 137.776 14.7077 137.929 14.8751L145.472 23.1003C145.584 23.2226 145.716 23.3332 145.863 23.4294L156.616 30.4265C157.645 31.0962 157.708 32.313 156.752 33.0301L43.5586 117.861C42.8299 118.407 41.7172 118.495 40.8517 118.074L28.214 111.934C27.872 111.768 27.5926 111.533 27.4052 111.254L20.7628 101.367C20.5492 101.049 20.2168 100.79 19.8106 100.623L9.23543 96.2888C8.77787 96.1012 8.41561 95.7961 8.21015 95.4251L4.21923 88.2195Z" fill="#E2E2E2" fill-opacity="0.6"/>
<path d="M109.722 109.814C108.889 110.221 107.835 110.167 107.115 109.679L8.47588 42.8844C7.44563 42.1868 7.49855 40.904 8.58648 40.2034L16.4585 35.1339C16.6665 35 16.8438 34.8386 16.9819 34.6576L23.2276 26.47C23.345 26.3162 23.4906 26.1765 23.6597 26.0556L33.2471 19.2016C33.3704 19.1135 33.4814 19.0152 33.5781 18.9085L41.6817 9.97155C42.4573 9.11614 43.9792 8.94935 44.9584 9.61244L143.626 76.4264C144.401 76.9517 144.591 77.8431 144.082 78.5712L137.021 88.6756C136.852 88.9165 136.617 89.1252 136.332 89.2852L124.744 95.7975C124.419 95.9801 124.158 96.2257 123.989 96.5092L118.929 104.969C118.738 105.289 118.431 105.56 118.049 105.747L109.722 109.814Z" fill="#E2E2E2" fill-opacity="0.6"/>
</g>
<defs>
<filter id="filter0_d_450_1794" x="34.5" y="22" width="416" height="216" filterUnits="userSpaceOnUse" color-interpolation-filters="sRGB">
<feFlood flood-opacity="0" result="BackgroundImageFix"/>
<feColorMatrix in="SourceAlpha" type="matrix" values="0 0 0 0 0 0 0 0 0 0 0 0 0 0 0 0 0 0 127 0" result="hardAlpha"/>
<feOffset dx="4" dy="4"/>
<feComposite in2="hardAlpha" operator="out"/>
<feColorMatrix type="matrix" values="0 0 0 0 0 0 0 0 0 0 0 0 0 0 0 0 0 0 1 0"/>
<feBlend mode="normal" in2="BackgroundImageFix" result="effect1_dropShadow_450_1794"/>
<feBlend mode="normal" in="SourceGraphic" in2="effect1_dropShadow_450_1794" result="shape"/>
</filter>
<filter id="filter1_d_450_1794" x="2.0332" y="0.996094" width="155.397" height="120.344" filterUnits="userSpaceOnUse" color-interpolation-filters="sRGB">
<feFlood flood-opacity="0" result="BackgroundImageFix"/>
<feColorMatrix in="SourceAlpha" type="matrix" values="0 0 0 0 0 0 0 0 0 0 0 0 0 0 0 0 0 0 127 0" result="hardAlpha"/>
<feOffset dx="-2" dy="3"/>
<feComposite in2="hardAlpha" operator="out"/>
<feColorMatrix type="matrix" values="0 0 0 0 0 0 0 0 0 0 0 0 0 0 0 0 0 0 1 0"/>
<feBlend mode="normal" in2="BackgroundImageFix" result="effect1_dropShadow_450_1794"/>
<feBlend mode="normal" in="SourceGraphic" in2="effect1_dropShadow_450_1794" result="shape"/>
</filter>
</defs>
</svg>
