<svg width="46" height="33" viewBox="0 0 46 33" fill="none" xmlns="http://www.w3.org/2000/svg">
<path d="M9.72 31.92C9.58 31.9667 9.34667 31.99 9.02 31.99H8.32C8.27333 31.99 8.20333 31.99 8.11 31.99C8.06333 31.9433 7.97 31.92 7.83 31.92L7.41 31.85L4.33 31.64L3.91 31.5H3.56C3.56 31.5467 3.49 31.57 3.35 31.57C3.21 31.5233 2.93 31.43 2.51 31.29C2.09 31.15 1.81 31.01 1.67 30.87C1.43667 30.5433 1.32 30.1 1.32 29.54L1.11 26.18L0.83 24.01L0.62 22.19C0.433333 20.9767 0.34 19.6 0.34 18.06C0.34 17.1267 0.363333 16.4033 0.41 15.89C0.55 12.9967 1.15667 10.29 2.23 7.77C3.77 4.78333 5.87 2.70666 8.53 1.54C10.8167 0.746663 13.01 0.349996 15.11 0.349996H15.81L16.51 0.42C16.51 0.839997 16.6267 1.4 16.86 2.1C17.0933 3.12667 17.21 3.71 17.21 3.85V3.92L18.05 7.07L18.12 7.98C18.12 8.12 18.1667 8.28333 18.26 8.47V8.75C16.7667 8.75 15.6 9.33333 14.76 10.5C14.06 11.2467 13.5233 12.3433 13.15 13.79C13.0567 14.4433 13.01 14.8633 13.01 15.05C13.01 15.3767 13.0333 15.54 13.08 15.54C13.4533 15.68 14.0133 15.75 14.76 15.75C16.6733 15.75 18.2133 15.9133 19.38 16.24C20.08 16.38 20.43 16.6133 20.43 16.94C20.57 17.5 20.6633 18.2933 20.71 19.32C20.8033 20.3 20.8733 20.9533 20.92 21.28C21.0133 22.68 21.06 23.87 21.06 24.85L21.13 26.67V29.05V30.94L20.71 31.43L17.07 31.92H14.41C13.7567 31.92 13.3133 31.9433 13.08 31.99C12.8467 31.99 12.6367 32.0133 12.45 32.06C12.31 32.1067 12.1467 32.13 11.96 32.13H10.21L9.72 31.92ZM33.87 31.92C33.7767 31.9667 33.5433 31.99 33.17 31.99H32.47L32.05 31.92L31.56 31.85L28.48 31.64L28.06 31.5H27.78C27.7333 31.5467 27.64 31.57 27.5 31.57C27.36 31.5233 27.08 31.43 26.66 31.29C26.24 31.15 25.96 31.01 25.82 30.87C25.5867 30.5433 25.47 30.1 25.47 29.54L25.26 26.18L24.98 24.01L24.77 22.19C24.5833 20.9767 24.49 19.6233 24.49 18.13C24.49 17.15 24.5133 16.4033 24.56 15.89C24.7467 12.9033 25.3767 10.1967 26.45 7.77C27.8967 4.78333 29.9733 2.70666 32.68 1.54C34.9667 0.746663 37.16 0.349996 39.26 0.349996H39.96L40.66 0.42C40.66 0.839997 40.7767 1.4 41.01 2.1C41.2433 2.8 41.36 3.38333 41.36 3.85V3.92L42.2 7.07V7.42C42.2467 7.46666 42.27 7.65333 42.27 7.98C42.27 8.12 42.3167 8.28333 42.41 8.47V8.75C40.9167 8.75 39.75 9.33333 38.91 10.5C38.1167 11.3867 37.58 12.4833 37.3 13.79C37.2067 14.1167 37.16 14.5367 37.16 15.05C37.16 15.3767 37.1833 15.54 37.23 15.54C37.6033 15.68 38.1633 15.75 38.91 15.75C40.8233 15.75 42.3633 15.9133 43.53 16.24C44.1833 16.38 44.5333 16.6133 44.58 16.94C44.72 17.5 44.8133 18.2933 44.86 19.32C44.9533 20.3 45.0233 20.9533 45.07 21.28C45.21 22.8667 45.28 24.6633 45.28 26.67V29.05V30.94L44.86 31.43L41.22 31.92H38.56C37.9067 31.92 37.4633 31.9433 37.23 31.99C36.9967 31.99 36.7867 32.0133 36.6 32.06C36.46 32.1067 36.2967 32.13 36.11 32.13H34.36L33.87 31.92Z" fill="#6041F8"/>
</svg>
