<svg width="49" height="33" viewBox="0 0 49 33" fill="none" xmlns="http://www.w3.org/2000/svg">
<path d="M5.96 32.53C5.82 32.53 5.68 32.5067 5.54 32.46C5.44667 32.4133 5.35333 32.39 5.26 32.39C5.26 32.2033 5.21333 31.9233 5.12 31.55C5.02667 31.1767 4.95667 30.8733 4.91 30.64L4.56 29.03V28.89L4.7 28.47L4.42 28.19L3.65 25.74C3.55667 25.74 3.41667 25.4833 3.23 24.97C3.18333 24.7833 3.11333 24.62 3.02 24.48C2.92667 24.2933 2.85667 24.1767 2.81 24.13C5.19 23.6633 7.17333 22.4033 8.76 20.35C9.46 19.4167 9.85667 18.7167 9.95 18.25C10.0433 17.8767 10.09 17.6433 10.09 17.55C10.09 17.3633 10.02 17.2467 9.88 17.2C9.74 17.1533 9.57667 17.13 9.39 17.13C9.20333 17.13 9.01667 17.13 8.83 17.13C8.08333 17.13 7.5 17.0833 7.08 16.99C5.26 16.99 3.97667 16.92 3.23 16.78C2.06333 16.64 1.41 16.3367 1.27 15.87C1.13 14.89 1.06 13.4667 1.06 11.6V8.94C1.01333 8.00667 0.92 6.30333 0.78 3.83C0.686667 2.75666 0.616667 2.12666 0.57 1.94L1.06 1.45L4.63 0.889997H8.76H10.16C10.6267 0.796665 10.9767 0.749999 11.21 0.749999H12.96L13.38 0.889997H14.08C14.4067 0.889997 14.64 0.866664 14.78 0.819998C14.8733 0.866664 15.0133 0.889997 15.2 0.889997C15.2933 0.889997 15.3867 0.91333 15.48 0.959996C15.5733 1.00667 15.6667 1.03 15.76 1.03L18.77 1.24L19.26 1.38C19.4 1.38 19.47 1.33333 19.47 1.24H19.75C20.7767 1.61333 21.3367 1.84666 21.43 1.94C21.6633 2.22 21.78 2.68667 21.78 3.34C21.78 4.50666 21.8033 5.62666 21.85 6.7C21.9433 8.75333 22.1533 10.06 22.48 10.62C22.34 11.88 22.27 12.72 22.27 13.14C22.1767 16.4067 21.99 18.9033 21.71 20.63C20.9633 23.71 19.7033 26.1833 17.93 28.05C16.9033 29.0767 15.55 29.94 13.87 30.64C11.1633 31.9 8.76 32.53 6.66 32.53H5.96ZM31.58 32.53C31.4867 32.53 31.37 32.5067 31.23 32.46C31.1367 32.4133 31.0433 32.39 30.95 32.39C30.81 31.5033 30.6933 30.92 30.6 30.64C30.5533 30.22 30.4133 29.6833 30.18 29.03V28.89L30.46 28.47L30.11 28.19L29.41 25.74C29.27 25.74 29.1067 25.4833 28.92 24.97L28.71 24.48C28.71 24.3867 28.64 24.27 28.5 24.13C29.76 23.85 30.9033 23.3833 31.93 22.73C32.9567 22.03 33.7967 21.2367 34.45 20.35C35.01 19.5567 35.43 18.8567 35.71 18.25L35.85 17.62C35.85 17.4333 35.7567 17.3167 35.57 17.27C35.43 17.1767 35.2667 17.13 35.08 17.13C34.8933 17.13 34.7067 17.13 34.52 17.13C33.7733 17.13 33.19 17.0833 32.77 16.99C30.9967 16.99 29.7133 16.92 28.92 16.78C28.36 16.6867 27.8933 16.57 27.52 16.43C27.1467 16.2433 26.96 16.0567 26.96 15.87C26.8667 14.9367 26.82 14.0033 26.82 13.07C26.7733 12.7433 26.75 12.2533 26.75 11.6C26.7033 10.9933 26.68 10.1067 26.68 8.94L26.61 7.19C26.61 6.25666 26.5633 5.13666 26.47 3.83L26.26 1.94L26.68 1.45L30.32 0.889997H34.45H35.71C36.27 0.796665 36.6667 0.749999 36.9 0.749999H38.58L39.07 0.889997H39.77C40.1433 0.889997 40.3767 0.866664 40.47 0.819998C40.5633 0.866664 40.7267 0.889997 40.96 0.889997C41.0533 0.889997 41.1233 0.91333 41.17 0.959996C41.2633 1.00667 41.3333 1.03 41.38 1.03L44.46 1.24L44.95 1.38C45.09 1.38 45.16 1.33333 45.16 1.24H45.51C45.8367 1.38 46.1167 1.49666 46.35 1.59C46.63 1.68333 46.8867 1.8 47.12 1.94C47.3533 2.22 47.47 2.68667 47.47 3.34C47.47 4.50666 47.5167 5.62666 47.61 6.7C47.7033 8.75333 47.89 10.06 48.17 10.62C48.03 11.2267 47.96 12.0667 47.96 13.14C47.96 15.8 47.75 18.2967 47.33 20.63C46.8633 23.4767 45.6267 25.95 43.62 28.05C42.5467 29.1233 41.1933 29.9867 39.56 30.64C37.04 31.9 34.6133 32.53 32.28 32.53H31.58Z" fill="#6041F8"/>
</svg>
