<svg width="60" height="40" viewBox="0 0 60 40" fill="none" xmlns="http://www.w3.org/2000/svg">
<g id="Group 65">
<path id="Vector 14" d="M2.59937 4.92445C4.53395 3.28749 6.08656 4.69829 7.99854 5.51464C9.18887 6.02287 10.2515 6.65754 11.5397 6.89176C13.8427 7.3105 15.7176 5.19966 17.3761 3.87522C19.8394 1.90796 21.6709 1.02176 24.4802 2.84784C26.8107 4.36264 29.0293 6.07509 31.5407 7.30708C32.7148 7.88304 33.6851 7.93676 34.754 7.19779C36.6315 5.89974 38.7236 5.11749 40.7652 4.13753C41.7746 3.65303 42.8099 3.22525 43.9566 3.43804C46.0673 3.8297 47.4219 5.76776 49.2902 6.67317C51.3962 7.69378 53.0643 6.90633 54.5364 5.40535C55.2255 4.70274 55.8328 3.58768 56.7004 3.15387" stroke="#E44002" stroke-width="3" stroke-linecap="round"/>
<path id="Vector 15" d="M2.20593 18.1055C2.83287 17.9801 3.25891 17.1655 3.81257 16.8595C4.89004 16.2641 6.34962 16.5282 7.43024 16.9688C10.0582 18.0404 12.3558 20.0355 14.8623 21.3625C16.5726 22.2679 18.3327 22.2752 20.1413 21.592C22.1857 20.8196 24.515 19.8766 26.2071 18.4552C27.4369 17.4222 28.9439 15.8478 30.7757 16.466C31.3459 16.6585 31.8329 17.0592 32.3277 17.3841C33.7781 18.3367 35.2839 19.1974 36.6995 20.2039C37.6729 20.8961 38.8085 22.1527 40.0657 22.3461C41.879 22.6251 44.0849 20.9987 45.5196 20.0946C46.5925 19.4186 47.5869 18.2497 48.8312 17.9087C50.7186 17.3916 52.9443 17.712 54.8862 17.712C55.6841 17.712 55.8843 18.2738 56.4381 18.794C56.9738 19.2972 57.6636 19.6486 58.0776 20.2695" stroke="#E44002" stroke-width="3" stroke-linecap="round"/>
<path id="Vector 16" d="M3.38635 38.369C6.07314 36.5489 8.39319 34.4914 11.8458 34.4343C14.8419 34.3848 17.3959 34.724 20.2178 35.7677C22.7111 36.6899 24.716 35.431 26.7974 33.9972C27.9675 33.191 28.9455 32.3574 30.3822 32.0736C31.9613 31.7616 33.7617 32.9815 34.9289 33.9316C36.5958 35.2883 38.5343 36.6798 40.7871 35.7787C43.3184 34.7661 45.095 32.6214 47.5743 31.5817C50.338 30.4228 51.1983 32.9843 53.3342 34.2048C55.6184 35.5101 57.0003 31.5 58.0776 30.303" stroke="#E44002" stroke-width="3" stroke-linecap="round"/>
</g>
</svg>
