<svg width="60" height="41" viewBox="0 0 60 41" fill="none" xmlns="http://www.w3.org/2000/svg">
<g id="Group 66">
<path id="Vector 17" d="M57.4782 5.07289C55.5436 3.43593 53.991 4.84673 52.079 5.66308C50.8887 6.17131 49.8261 6.80598 48.5379 7.0402C46.2348 7.45894 44.36 5.3481 42.7015 4.02366C40.2382 2.0564 38.4067 1.1702 35.5973 2.99628C33.2669 4.51108 31.0482 6.22353 28.5369 7.45552C27.3628 8.03148 26.3925 8.0852 25.3236 7.34623C23.4461 6.04817 21.354 5.26593 19.3124 4.28596C18.303 3.80147 17.2676 3.37369 16.121 3.58648C14.0103 3.97814 12.6557 5.9162 10.7874 6.82161C8.68134 7.84222 7.01332 7.05477 5.5412 5.55379C4.8521 4.85118 4.24477 3.73611 3.37716 3.30231" stroke="#E44002" stroke-width="3" stroke-linecap="round"/>
<path id="Vector 18" d="M57.8716 18.2539C57.2447 18.1285 56.8187 17.3139 56.265 17.0079C55.1875 16.4125 53.728 16.6766 52.6473 17.1172C50.0194 18.1888 47.7218 20.1839 45.2153 21.5109C43.505 22.4164 41.7449 22.4237 39.9363 21.7404C37.8919 20.9681 35.5626 20.025 33.8704 18.6037C32.6407 17.5706 31.1337 15.9963 29.3019 16.6145C28.7317 16.8069 28.2447 17.2076 27.7499 17.5326C26.2994 18.4851 24.7936 19.3458 23.3781 20.3524C22.4047 21.0446 21.2691 22.3011 20.0118 22.4946C18.1986 22.7735 15.9927 21.1471 14.558 20.2431C13.4851 19.567 12.4907 18.3981 11.2464 18.0572C9.35894 17.5401 7.13327 17.8604 5.19143 17.8604C4.39344 17.8604 4.19326 18.4222 3.63943 18.9425C3.10377 19.4457 2.41395 19.797 2.00001 20.418" stroke="#E44002" stroke-width="3" stroke-linecap="round"/>
<path id="Vector 19" d="M56.6912 38.5174C54.0044 36.6973 51.6844 34.6398 48.2318 34.5828C45.2356 34.5332 42.6816 34.8725 39.8598 35.9162C37.3665 36.8384 35.3616 35.5794 33.2802 34.1456C32.11 33.3395 31.1321 32.5058 29.6953 32.222C28.1163 31.9101 26.3159 33.13 25.1487 34.08C23.4818 35.4368 21.5432 36.8282 19.2905 35.9271C16.7592 34.9146 14.9825 32.7699 12.5032 31.7302C9.73959 30.5712 8.87925 33.1328 6.74338 34.3532C4.45918 35.6585 3.0773 31.6484 1.99998 30.4514" stroke="#E44002" stroke-width="3" stroke-linecap="round"/>
</g>
</svg>
