<svg width="252" height="41" viewBox="0 0 252 41" fill="none" xmlns="http://www.w3.org/2000/svg">
<g filter="url(#filter0_d_96_1280)">
<rect width="40" height="40" rx="5" fill="black"/>
</g>
<g filter="url(#filter1_d_96_1280)">
<path d="M9.56 26.38H7V22.34C7 21.34 7 20.5667 7 20.02C7 19.4733 7 19.08 7 18.84C7 18.5867 7 18.44 7 18.4C7.01333 18.36 7.02667 18.34 7.04 18.34C7.08 18.3667 7.1 18.3733 7.1 18.36C7.1 18.3333 7.08667 18.3067 7.06 18.28L7 18.22V11.42H8.88C9.42667 11.42 9.87333 11.42 10.22 11.42C10.5667 11.42 10.86 11.4267 11.1 11.44C11.34 11.4533 11.54 11.4733 11.7 11.5C11.8733 11.5133 12.06 11.5333 12.26 11.56C13.1267 11.6933 13.8667 11.94 14.48 12.3C15.0933 12.6467 15.6 13.0867 16 13.62C16.4133 14.1533 16.7333 14.7733 16.96 15.48C17.2 16.1867 17.3667 16.96 17.46 17.8C17.4733 17.9067 17.48 18.0667 17.48 18.28C17.48 18.4933 17.48 18.72 17.48 18.96C17.48 19.2 17.4733 19.4333 17.46 19.66C17.46 19.8733 17.4533 20.0333 17.44 20.14C17.3333 21.1 17.1 22.0267 16.74 22.92C16.38 23.8133 15.8 24.56 15 25.16C14.88 25.2267 14.82 25.26 14.82 25.26C14.7933 25.26 14.7667 25.28 14.74 25.32L14.68 25.36L14.64 25.32C14.6133 25.2933 14.5867 25.28 14.56 25.28C14.48 25.28 14.44 25.3333 14.44 25.44C14.4533 25.4667 14.4467 25.4867 14.42 25.5C14.4067 25.5267 14.3267 25.5733 14.18 25.64C13.74 25.8533 13.2933 26.0067 12.84 26.1C12.4 26.2067 11.9333 26.2867 11.44 26.34C11.3867 26.34 11.3333 26.34 11.28 26.34C11.2267 26.3533 11.1867 26.36 11.16 26.36C11.0933 26.36 11.06 26.3533 11.06 26.34C11.06 26.3133 11.0533 26.3 11.04 26.3C11.04 26.3267 11.02 26.34 10.98 26.34C10.94 26.3533 10.86 26.3667 10.74 26.38H10.32H10.18L10.24 26.34C10.3333 26.2467 10.3133 26.1667 10.18 26.1C10.14 26.06 10.0733 26.04 9.98 26.04C9.83333 26.04 9.71333 26.1133 9.62 26.26L9.56 26.38ZM17.24 17.44C17.2267 17.4133 17.2133 17.42 17.2 17.46C17.1867 17.5267 17.2067 17.56 17.26 17.56C17.3 17.56 17.3133 17.5467 17.3 17.52C17.3 17.5067 17.2933 17.5 17.28 17.5C17.2667 17.4867 17.2533 17.4667 17.24 17.44ZM17.18 17.84C17.1667 17.8533 17.16 17.86 17.16 17.86C17.1733 17.8867 17.1933 17.8867 17.22 17.86C17.2333 17.8467 17.2333 17.84 17.22 17.84C17.22 17.8267 17.2067 17.8267 17.18 17.84ZM17.12 19.94C17.0933 19.94 17.08 19.9667 17.08 20.02C17.08 20.06 17.0867 20.08 17.1 20.08C17.1133 20.08 17.1267 20.0667 17.14 20.04C17.1667 20.0133 17.1733 19.9867 17.16 19.96C17.16 19.9333 17.1467 19.9267 17.12 19.94ZM16.82 16.24C16.7933 16.28 16.78 16.3133 16.78 16.34C16.78 16.3533 16.7933 16.3467 16.82 16.32C16.8467 16.2933 16.86 16.2667 16.86 16.24C16.8467 16.2133 16.8333 16.2133 16.82 16.24ZM16.78 22.14C16.7667 22.14 16.7667 22.1467 16.78 22.16L16.8 22.18C16.8133 22.1667 16.82 22.16 16.82 22.16C16.82 22.1467 16.8067 22.14 16.78 22.14ZM16.82 22.62C16.82 22.6067 16.8 22.6067 16.76 22.62C16.7333 22.62 16.7133 22.6267 16.7 22.64C16.7 22.68 16.7333 22.6867 16.8 22.66C16.8133 22.6467 16.82 22.6333 16.82 22.62ZM15.66 23.1C15.6867 23.1 15.7 23.0733 15.7 23.02C15.7 22.98 15.6933 22.96 15.68 22.96C15.6667 22.96 15.6533 22.9867 15.64 23.04C15.64 23.08 15.6467 23.1 15.66 23.1ZM16 21.64C16.0133 21.6667 16.0267 21.68 16.04 21.68C16.0533 21.68 16.06 21.6667 16.06 21.64C16.0733 21.6 16.06 21.5867 16.02 21.6C15.98 21.6 15.9733 21.6133 16 21.64ZM16.16 23.6C16.2 23.56 16.22 23.54 16.22 23.54C16.2333 23.5267 16.2333 23.5067 16.22 23.48C16.2067 23.4667 16.1933 23.46 16.18 23.46C16.1533 23.46 16.12 23.4933 16.08 23.56C16.0533 23.5867 16.0467 23.6133 16.06 23.64C16.0733 23.6667 16.1067 23.6533 16.16 23.6ZM16.46 21.42C16.5 21.42 16.52 21.4067 16.52 21.38C16.5067 21.38 16.4867 21.3933 16.46 21.42ZM16.56 15.64C16.5333 15.64 16.52 15.6533 16.52 15.68C16.5467 15.68 16.56 15.6667 16.56 15.64ZM16.5 19.52C16.4733 19.4933 16.4533 19.4933 16.44 19.52C16.44 19.5333 16.4467 19.5533 16.46 19.58C16.46 19.6333 16.4733 19.6467 16.5 19.62C16.5133 19.6067 16.52 19.5867 16.52 19.56V19.54C16.52 19.5267 16.5133 19.52 16.5 19.52ZM16.4 21.5C16.3867 21.5 16.38 21.5067 16.38 21.52C16.38 21.5467 16.3867 21.56 16.4 21.56C16.4133 21.56 16.42 21.5467 16.42 21.52C16.42 21.5067 16.4133 21.5 16.4 21.5ZM16.46 21.74C16.46 21.7133 16.4467 21.7 16.42 21.7C16.4067 21.6867 16.3933 21.6867 16.38 21.7C16.3667 21.7133 16.36 21.7333 16.36 21.76C16.4 21.8 16.4333 21.7933 16.46 21.74ZM16.36 15.76C16.3467 15.76 16.34 15.7733 16.34 15.8C16.3533 15.7867 16.36 15.7733 16.36 15.76ZM16.26 19.18C16.2333 19.1533 16.2133 19.1467 16.2 19.16C16.1867 19.1733 16.1933 19.1933 16.22 19.22C16.22 19.26 16.2333 19.2667 16.26 19.24C16.2867 19.2133 16.2867 19.1933 16.26 19.18ZM16.14 21.96C16.18 21.92 16.1733 21.8933 16.12 21.88C16.12 21.88 16.0933 21.88 16.04 21.88C16.0267 21.9067 16.0267 21.9333 16.04 21.96C16.08 21.9867 16.1133 21.9867 16.14 21.96ZM16.04 14C16 14 15.9733 14.0067 15.96 14.02C15.96 14.0333 15.9867 14.04 16.04 14.04C16.0933 14.04 16.12 14.0333 16.12 14.02C16.1067 14.0067 16.08 14 16.04 14ZM15.9 22.46C15.8733 22.4733 15.8733 22.4933 15.9 22.52C15.94 22.5733 15.9733 22.5733 16 22.52C16 22.4933 15.9867 22.4733 15.96 22.46C15.9467 22.4467 15.9267 22.4467 15.9 22.46ZM15.8 24.08C15.7733 24.1067 15.7733 24.12 15.8 24.12C15.8133 24.1333 15.8333 24.14 15.86 24.14C15.9 24.14 15.92 24.1333 15.92 24.12C15.92 24.1067 15.9 24.1 15.86 24.1C15.8333 24.0867 15.8133 24.08 15.8 24.08ZM15.68 15.9C15.6533 15.9 15.6267 15.9067 15.6 15.92C15.5733 15.9333 15.56 15.9467 15.56 15.96C15.56 15.9867 15.5933 15.9867 15.66 15.96C15.7 15.9333 15.7067 15.9133 15.68 15.9ZM15.14 15.6C15.14 15.5733 15.1267 15.5533 15.1 15.54C15.0733 15.5133 15.0467 15.5 15.02 15.5C14.9933 15.5 14.98 15.5067 14.98 15.52C14.9667 15.5467 14.9733 15.5733 15 15.6C15.04 15.6267 15.0733 15.64 15.1 15.64C15.1267 15.64 15.14 15.6267 15.14 15.6ZM15.06 14.38C15.06 14.4467 15.0667 14.4867 15.08 14.5C15.0933 14.5133 15.1 14.4933 15.1 14.44C15.1 14.3867 15.0933 14.3467 15.08 14.32C15.0667 14.3067 15.06 14.3267 15.06 14.38ZM15.16 17.02C15.1467 17.0067 15.12 17.0067 15.08 17.02C15.0533 17.0333 15.04 17.0467 15.04 17.06C15.04 17.0867 15.0733 17.0867 15.14 17.06C15.1533 17.0333 15.16 17.02 15.16 17.02ZM15 21.1C14.9733 21.1267 14.96 21.1533 14.96 21.18C14.9733 21.1933 14.9933 21.2 15.02 21.2C15.02 21.2 15.0333 21.1733 15.06 21.12C15.06 21.0667 15.04 21.06 15 21.1ZM15.06 24.38L15.1 24.3C15.0867 24.2867 15.0667 24.2933 15.04 24.32C15.0267 24.3467 15.02 24.3733 15.02 24.4C15.02 24.4267 15.0333 24.42 15.06 24.38ZM15.1 18.54C15.1133 18.5133 15.1067 18.5067 15.08 18.52C15.0533 18.52 15.04 18.5333 15.04 18.56C15.0267 18.5867 15.0267 18.6 15.04 18.6C15.0533 18.5867 15.0733 18.5667 15.1 18.54ZM15.04 17.24C15.0667 17.2933 15.1 17.3 15.14 17.26C15.1533 17.2333 15.1467 17.2067 15.12 17.18C15.12 17.1667 15.1067 17.16 15.08 17.16L15.06 17.14C15.0333 17.14 15.0133 17.1533 15 17.18C15 17.1933 15.0133 17.2133 15.04 17.24ZM15.24 23.04C15.2533 23 15.2467 22.9733 15.22 22.96C15.2067 22.9333 15.1867 22.9333 15.16 22.96C15.1467 22.9867 15.1467 23.0133 15.16 23.04C15.1733 23.1067 15.2 23.1067 15.24 23.04ZM15.22 18.78C15.2467 18.8067 15.2733 18.8067 15.3 18.78C15.3133 18.7667 15.32 18.76 15.32 18.76C15.32 18.7467 15.3267 18.7333 15.34 18.72L15.28 18.66C15.24 18.6067 15.2133 18.6 15.2 18.64C15.1867 18.6933 15.1933 18.74 15.22 18.78ZM15.38 19.62L15.4 19.58V19.5C15.4 19.46 15.3933 19.4333 15.38 19.42C15.38 19.4067 15.38 19.4133 15.38 19.44C15.3533 19.4667 15.34 19.5067 15.34 19.56C15.34 19.6 15.3533 19.62 15.38 19.62ZM15.46 17.34C15.4867 17.3133 15.4867 17.2933 15.46 17.28C15.4467 17.2933 15.44 17.3067 15.44 17.32C15.44 17.32 15.4333 17.3267 15.42 17.34C15.42 17.3667 15.4333 17.3667 15.46 17.34ZM15.38 14.42C15.3533 14.4867 15.3667 14.52 15.42 14.52L15.44 14.5V14.46C15.44 14.4333 15.4333 14.4133 15.42 14.4C15.4067 14.3867 15.3933 14.3933 15.38 14.42ZM15.34 19.18C15.34 19.1933 15.3533 19.2 15.38 19.2C15.3667 19.1867 15.3533 19.18 15.34 19.18ZM15.3 17.66C15.3 17.6867 15.2933 17.7067 15.28 17.72C15.28 17.7333 15.28 17.7467 15.28 17.76C15.2667 17.7867 15.2667 17.8 15.28 17.8C15.2933 17.7867 15.3067 17.7667 15.32 17.74C15.3467 17.6867 15.36 17.6533 15.36 17.64C15.3867 17.6133 15.38 17.6 15.34 17.6C15.3533 17.6 15.34 17.62 15.3 17.66ZM15.22 17.82C15.2333 17.82 15.24 17.8067 15.24 17.78C15.24 17.7267 15.2333 17.7 15.22 17.7C15.1933 17.6733 15.18 17.68 15.18 17.72C15.18 17.7867 15.1933 17.82 15.22 17.82ZM15.24 13.46C15.2667 13.3667 15.2267 13.32 15.12 13.32C15.08 13.32 15.0467 13.3267 15.02 13.34C14.94 13.3533 14.9467 13.42 15.04 13.54C15.08 13.58 15.1067 13.6 15.12 13.6C15.2 13.6 15.24 13.5533 15.24 13.46ZM15.04 13.04C15.0267 13.04 15.0067 13.06 14.98 13.1C14.9667 13.1267 14.96 13.1533 14.96 13.18C14.96 13.2067 14.9733 13.22 15 13.22C15.0267 13.22 15.06 13.2 15.1 13.16C15.1 13.08 15.08 13.04 15.04 13.04ZM14.9 25.06C14.8733 25.06 14.86 25.0667 14.86 25.08C14.86 25.0933 14.8733 25.1 14.9 25.1C14.9133 25.1 14.92 25.0933 14.92 25.08C14.92 25.0667 14.9133 25.06 14.9 25.06ZM14.68 15.84C14.6667 15.8667 14.6533 15.8933 14.64 15.92C14.64 15.9467 14.6467 15.96 14.66 15.96L14.68 15.94C14.68 15.9267 14.6933 15.9067 14.72 15.88C14.7333 15.8667 14.74 15.8467 14.74 15.82C14.74 15.82 14.74 15.8133 14.74 15.8C14.7133 15.8 14.6933 15.8133 14.68 15.84ZM10.3 23.06C10.3267 23.0467 10.3267 23.0267 10.3 23C10.2733 22.96 10.2467 22.9533 10.22 22.98C10.1933 23.0067 10.1867 23.0333 10.2 23.06C10.2267 23.0867 10.26 23.0867 10.3 23.06ZM10.32 24C10.32 24.0667 10.34 24.1 10.38 24.1C10.38 24.0733 10.3733 24.0533 10.36 24.04C10.3467 24.0133 10.34 24 10.34 24C10.3267 24 10.32 24 10.32 24ZM10.54 25.54C10.5533 25.5133 10.5533 25.48 10.54 25.44L10.52 25.4L10.48 25.44C10.44 25.5067 10.4333 25.5533 10.46 25.58C10.4867 25.6067 10.5133 25.5933 10.54 25.54ZM10.64 24.08C10.6133 24.08 10.6133 24.0867 10.64 24.1C10.6667 24.1133 10.68 24.1133 10.68 24.1C10.68 24.0867 10.6667 24.08 10.64 24.08ZM10.72 26.32C10.7467 26.32 10.76 26.3133 10.76 26.3C10.76 26.2867 10.7467 26.28 10.72 26.28C10.68 26.28 10.66 26.2867 10.66 26.3C10.66 26.3133 10.68 26.32 10.72 26.32ZM10.88 23.54C10.88 23.5267 10.8667 23.52 10.84 23.52C10.84 23.5333 10.8533 23.54 10.88 23.54ZM10.84 23.12C10.8933 23.1333 10.9133 23.1267 10.9 23.1C10.9 23.0733 10.8933 23.0467 10.88 23.02C10.88 22.98 10.8667 22.96 10.84 22.96V22.98C10.8267 22.98 10.82 23 10.82 23.04C10.8067 23.0933 10.8133 23.12 10.84 23.12ZM11.12 25.92C11.1333 25.9067 11.1333 25.8933 11.12 25.88C11.0933 25.8533 11.06 25.8533 11.02 25.88C10.9933 25.88 10.98 25.8933 10.98 25.92C10.9933 25.9333 11.0133 25.94 11.04 25.94C11.08 25.94 11.1067 25.9333 11.12 25.92ZM10.96 24.34C10.9733 24.3533 11 24.3533 11.04 24.34C11.0933 24.2867 11.1 24.2533 11.06 24.24C11.0333 24.2267 11.0067 24.2333 10.98 24.26C10.9533 24.2867 10.9467 24.3133 10.96 24.34ZM11.46 23.58C11.4733 23.58 11.48 23.5733 11.48 23.56C11.48 23.5467 11.4733 23.54 11.46 23.54C11.46 23.5267 11.4533 23.5267 11.44 23.54C11.44 23.54 11.44 23.5467 11.44 23.56C11.4533 23.5733 11.46 23.58 11.46 23.58ZM11.58 24.92C11.6067 24.92 11.6067 24.9067 11.58 24.88V24.9V24.92ZM11.82 25.36C11.8467 25.4133 11.86 25.4067 11.86 25.34C11.86 25.3 11.8467 25.2933 11.82 25.32C11.8067 25.3333 11.8067 25.3467 11.82 25.36ZM11.98 25.8C12.0067 25.8267 12.02 25.82 12.02 25.78C12.0067 25.7667 12 25.7533 12 25.74C11.9733 25.7267 11.96 25.7333 11.96 25.76C11.96 25.7733 11.9667 25.7867 11.98 25.8ZM12.02 23.18C12.0333 23.18 12.04 23.1733 12.04 23.16C12.04 23.1467 12.0333 23.14 12.02 23.14C12.0067 23.14 12 23.1467 12 23.16C12.0133 23.1733 12.02 23.18 12.02 23.18ZM12.14 25.9L12.16 25.88C12.16 25.8533 12.1467 25.84 12.12 25.84C12.1067 25.84 12.1 25.8533 12.1 25.88C12.1133 25.8933 12.1267 25.9 12.14 25.9ZM12.14 24.9C12.1533 24.9 12.16 24.8867 12.16 24.86C12.16 24.8467 12.1533 24.84 12.14 24.84C12.1133 24.8533 12.1 24.86 12.1 24.86C12.1 24.8867 12.1133 24.9 12.14 24.9ZM12.1 23.46C12.1133 23.4733 12.12 23.4933 12.12 23.52C12.1333 23.5333 12.14 23.54 12.14 23.54C12.1533 23.54 12.16 23.52 12.16 23.48C12.1733 23.4267 12.18 23.3933 12.18 23.38C12.1933 23.3533 12.1867 23.34 12.16 23.34C12.1467 23.3267 12.1267 23.3267 12.1 23.34C12.0867 23.3533 12.0867 23.3933 12.1 23.46ZM12.16 23C12.16 23.0267 12.1667 23.0333 12.18 23.02C12.1933 23.02 12.2 23.0133 12.2 23C12.2 22.9733 12.1933 22.96 12.18 22.96C12.1667 22.96 12.16 22.9733 12.16 23ZM12.18 24.2C12.22 24.2267 12.2533 24.24 12.28 24.24C12.3067 24.24 12.32 24.2333 12.32 24.22C12.32 24.2067 12.2867 24.2 12.22 24.2H12.18ZM12.22 23.06C12.2333 23.0733 12.24 23.08 12.24 23.08C12.2533 23.0667 12.26 23.06 12.26 23.06C12.2467 23.0467 12.24 23.04 12.24 23.04C12.2267 23.04 12.22 23.0467 12.22 23.06ZM12.42 25.74C12.4467 25.7133 12.46 25.6933 12.46 25.68C12.46 25.6667 12.4667 25.6533 12.48 25.64C12.48 25.6267 12.46 25.6067 12.42 25.58C12.3933 25.5667 12.3733 25.5733 12.36 25.6C12.3467 25.6 12.34 25.62 12.34 25.66C12.34 25.7133 12.3467 25.7533 12.36 25.78C12.3867 25.82 12.4067 25.8067 12.42 25.74ZM12.72 23.02V22.98C12.7067 22.9667 12.6867 22.9667 12.66 22.98C12.6333 22.9933 12.62 23.0067 12.62 23.02C12.62 23.0333 12.6333 23.04 12.66 23.04C12.6867 23.04 12.7067 23.0333 12.72 23.02ZM13.02 23.34C13.02 23.3133 13 23.28 12.96 23.24C12.9333 23.2 12.9 23.1867 12.86 23.2C12.8333 23.2667 12.8333 23.3133 12.86 23.34C12.8867 23.38 12.92 23.4 12.96 23.4C13 23.4 13.02 23.38 13.02 23.34ZM13.16 24.76C13.1733 24.68 13.1667 24.6533 13.14 24.68C13.1267 24.6933 13.12 24.7333 13.12 24.8C13.12 24.8267 13.1267 24.84 13.14 24.84C13.14 24.8533 13.14 24.86 13.14 24.86V24.84C13.14 24.8267 13.14 24.8133 13.14 24.8C13.1533 24.8 13.16 24.7867 13.16 24.76ZM13.34 23.04C13.3667 22.9733 13.36 22.94 13.32 22.94C13.3067 22.94 13.2933 22.96 13.28 23C13.2667 23.0267 13.2667 23.0467 13.28 23.06C13.3067 23.0867 13.3267 23.08 13.34 23.04ZM13.5 22.54C13.5267 22.54 13.54 22.5333 13.54 22.52C13.5267 22.5067 13.5133 22.5 13.5 22.5L13.48 22.52C13.4933 22.5333 13.5 22.54 13.5 22.54ZM13.94 23.42C13.9667 23.3933 13.9667 23.3733 13.94 23.36C13.9133 23.28 13.8867 23.28 13.86 23.36C13.8333 23.4267 13.84 23.46 13.88 23.46C13.8933 23.46 13.9133 23.4467 13.94 23.42ZM14.26 24.84C14.26 24.7867 14.2467 24.76 14.22 24.76V24.78C14.2067 24.8067 14.2 24.82 14.2 24.82C14.1733 24.8733 14.18 24.9 14.22 24.9C14.2467 24.9 14.26 24.88 14.26 24.84ZM14.3 22.72C14.3133 22.72 14.3467 22.6933 14.4 22.64C14.48 22.5333 14.4667 22.48 14.36 22.48C14.3067 22.48 14.2733 22.5067 14.26 22.56C14.2467 22.6 14.2467 22.64 14.26 22.68C14.2733 22.72 14.2867 22.7333 14.3 22.72ZM14.4 21.36C14.3067 21.36 14.2933 21.3933 14.36 21.46C14.4 21.5 14.4333 21.5067 14.46 21.48C14.4867 21.4533 14.5 21.4267 14.5 21.4C14.5 21.3733 14.4667 21.36 14.4 21.36ZM14.4 16.74C14.3867 16.74 14.38 16.7533 14.38 16.78C14.3933 16.7667 14.4 16.7533 14.4 16.74ZM14.34 22.2C14.3267 22.2133 14.3133 22.22 14.3 22.22L14.28 22.24C14.28 22.2533 14.3 22.2733 14.34 22.3C14.38 22.3133 14.4133 22.32 14.44 22.32C14.48 22.32 14.5 22.3 14.5 22.26C14.5 22.2067 14.4733 22.18 14.42 22.18C14.38 22.18 14.3533 22.1867 14.34 22.2ZM14.52 23.54C14.5467 23.5 14.5533 23.4733 14.54 23.46C14.5133 23.4333 14.48 23.4467 14.44 23.5C14.4133 23.5267 14.4067 23.5533 14.42 23.58C14.4467 23.5933 14.48 23.58 14.52 23.54ZM14.6 19.46L14.52 19.54C14.4533 19.58 14.42 19.6133 14.42 19.64C14.4467 19.64 14.4667 19.64 14.48 19.64C14.5067 19.64 14.5267 19.6333 14.54 19.62C14.54 19.62 14.5467 19.62 14.56 19.62C14.56 19.6067 14.5733 19.5733 14.6 19.52V19.46ZM14.6 13.86C14.6 13.8067 14.58 13.8 14.54 13.84C14.5267 13.8533 14.5267 13.8733 14.54 13.9C14.54 13.94 14.5533 13.9467 14.58 13.92C14.5933 13.9067 14.6 13.8867 14.6 13.86ZM14.5 16.56C14.4733 16.56 14.4733 16.5733 14.5 16.6L14.54 16.58L14.56 16.56C14.56 16.5467 14.5467 16.54 14.52 16.54C14.5067 16.54 14.5 16.5467 14.5 16.56ZM14.44 12.86C14.4267 12.8733 14.42 12.88 14.42 12.88C14.42 12.9067 14.4267 12.92 14.44 12.92C14.4533 12.9067 14.46 12.8933 14.46 12.88L14.44 12.86ZM14.46 14.9C14.46 14.8333 14.44 14.8 14.4 14.8C14.3733 14.8 14.3467 14.8133 14.32 14.84C14.2933 14.8667 14.2867 14.9 14.3 14.94C14.3133 14.9667 14.3467 14.98 14.4 14.98C14.4267 14.98 14.4467 14.9533 14.46 14.9ZM14.28 13.06C14.28 13.0333 14.2667 13.0333 14.24 13.06C14.24 13.0733 14.2467 13.08 14.26 13.08L14.28 13.06ZM14.32 13.86C14.2533 13.82 14.22 13.8467 14.22 13.94C14.22 13.9933 14.2333 14.02 14.26 14.02C14.2867 14.02 14.3133 14.0067 14.34 13.98C14.3933 13.9267 14.3867 13.8867 14.32 13.86ZM14.16 16.12C14.1467 16.0933 14.1333 16.08 14.12 16.08C14.1067 16.0667 14.1 16.0733 14.1 16.1C14.1 16.14 14.12 16.16 14.16 16.16C14.1867 16.16 14.1867 16.1467 14.16 16.12ZM14 12.2C13.9733 12.1867 13.94 12.18 13.9 12.18C13.8867 12.18 13.9 12.2 13.94 12.24C13.9667 12.28 13.9933 12.3 14.02 12.3C14.0333 12.3 14.04 12.3 14.04 12.3C14.04 12.2867 14.0467 12.28 14.06 12.28C14.0733 12.2667 14.0533 12.24 14 12.2ZM13.66 15.24C13.6333 15.2133 13.6133 15.22 13.6 15.26C13.5867 15.3 13.5867 15.3267 13.6 15.34C13.6267 15.3667 13.6467 15.36 13.66 15.32C13.6733 15.2933 13.6733 15.2667 13.66 15.24ZM13.12 12.06C13.0933 12.06 13.0733 12.08 13.06 12.12C13.0467 12.1467 13.04 12.1733 13.04 12.2C13.0667 12.2267 13.0933 12.22 13.12 12.18C13.1733 12.1 13.1733 12.06 13.12 12.06ZM12.96 13.66C12.9467 13.7 12.9533 13.7333 12.98 13.76C13.02 13.7867 13.0467 13.7933 13.06 13.78C13.0867 13.7533 13.08 13.7267 13.04 13.7C13.0133 13.66 12.9867 13.6467 12.96 13.66ZM12.4 13.54C12.4 13.5133 12.3867 13.5067 12.36 13.52C12.3467 13.52 12.3333 13.5333 12.32 13.56C12.32 13.5867 12.3333 13.6 12.36 13.6C12.3867 13.6 12.4 13.58 12.4 13.54ZM11.66 13.16C11.6467 13.1733 11.64 13.1867 11.64 13.2C11.64 13.24 11.6467 13.26 11.66 13.26C11.6867 13.26 11.7 13.24 11.7 13.2C11.7 13.1733 11.6867 13.16 11.66 13.16ZM10.8 14.24C10.8 14.2267 10.7933 14.22 10.78 14.22C10.78 14.2333 10.7867 14.24 10.8 14.24ZM10.56 13.34C10.48 13.42 10.48 13.48 10.56 13.52C10.6133 13.5467 10.6533 13.5467 10.68 13.52C10.7067 13.4933 10.72 13.4667 10.72 13.44C10.7333 13.4 10.7267 13.3667 10.7 13.34C10.6867 13.3133 10.6667 13.3 10.64 13.3C10.6133 13.3 10.5867 13.3133 10.56 13.34ZM10.22 15.02C10.22 15.02 10.2133 15.2133 10.2 15.6C10.2 15.9733 10.2 16.4467 10.2 17.02C10.2 17.5933 10.2 18.2133 10.2 18.88C10.2 19.5467 10.2 20.1667 10.2 20.74C10.2 21.3133 10.2 21.7933 10.2 22.18C10.2133 22.5667 10.22 22.76 10.22 22.76C10.22 22.7867 10.2533 22.8 10.32 22.8C10.3467 22.8 10.38 22.8 10.42 22.8C10.46 22.7867 10.5133 22.78 10.58 22.78C10.6867 22.78 10.7933 22.78 10.9 22.78C11.0067 22.7667 11.0867 22.76 11.14 22.76C11.2067 22.7467 11.2667 22.74 11.32 22.74C11.3467 22.74 11.3667 22.7467 11.38 22.76C11.3933 22.7867 11.4 22.7867 11.4 22.76C11.4 22.7467 11.4267 22.7333 11.48 22.72C11.56 22.7067 11.6667 22.6867 11.8 22.66C11.9467 22.6333 12.0333 22.62 12.06 22.62C12.0867 22.6067 12.1133 22.62 12.14 22.66C12.1667 22.7 12.1867 22.72 12.2 22.72L12.22 22.7V22.64V22.56L12.38 22.52C12.5933 22.44 12.7733 22.3533 12.92 22.26C13.0667 22.1667 13.2133 22.0533 13.36 21.92C13.9333 21.32 14.24 20.3867 14.28 19.12C14.3067 18.5067 14.26 17.9533 14.14 17.46C14.02 16.9533 13.8467 16.5333 13.62 16.2C13.3267 15.8 12.9533 15.5067 12.5 15.32C12.0467 15.1333 11.4467 15.0267 10.7 15C10.38 15 10.22 15.0067 10.22 15.02ZM9.92 23.56C9.93333 23.5467 9.93333 23.5267 9.92 23.5C9.90667 23.4733 9.89333 23.46 9.88 23.46C9.85333 23.46 9.84 23.4733 9.84 23.5C9.84 23.5267 9.84667 23.5533 9.86 23.58C9.86 23.58 9.88 23.58 9.92 23.58V23.56ZM9.94 19.7C9.96667 19.7533 9.98 19.7533 9.98 19.7C9.96667 19.6867 9.95333 19.68 9.94 19.68C9.91333 19.68 9.91333 19.6867 9.94 19.7ZM9.98 17.84C10.0067 17.8667 10.0267 17.8667 10.04 17.84C10.0667 17.8133 10.0667 17.8 10.04 17.8C10.0267 17.76 10.0067 17.7533 9.98 17.78C9.96667 17.7933 9.96667 17.8133 9.98 17.84ZM10.08 22.36C10.08 22.3467 10.0733 22.34 10.06 22.34C10.0467 22.34 10.04 22.3533 10.04 22.38C10.04 22.3933 10.0467 22.3933 10.06 22.38C10.0733 22.38 10.08 22.3733 10.08 22.36ZM10.02 11.62C10.0067 11.6467 10 11.6733 10 11.7C10.0133 11.7267 10.0267 11.74 10.04 11.74C10.0667 11.7267 10.0867 11.7067 10.1 11.68V11.66C10.1 11.6333 10.0933 11.62 10.08 11.62C10.0667 11.6067 10.0467 11.6067 10.02 11.62ZM10.06 14.4C10.0467 14.3733 10.04 14.36 10.04 14.36C10.0267 14.36 10.02 14.3733 10.02 14.4C10.02 14.44 10.0267 14.46 10.04 14.46L10.06 14.44V14.4ZM10.04 16.72C10.0133 16.6933 9.98667 16.6867 9.96 16.7C9.94667 16.7133 9.95333 16.7333 9.98 16.76C9.98 16.7733 10 16.78 10.04 16.78C10.0667 16.78 10.0667 16.76 10.04 16.72ZM9.98 19.3C9.98 19.2733 9.97333 19.2467 9.96 19.22C9.93333 19.2333 9.92 19.2533 9.92 19.28C9.92 19.3067 9.93333 19.32 9.96 19.32L9.98 19.3ZM9.84 13.96C9.82667 13.9733 9.82 13.9933 9.82 14.02C9.83333 14.0467 9.84667 14.06 9.86 14.06C9.88667 14.06 9.9 14.0467 9.9 14.02C9.91333 13.9933 9.91333 13.9733 9.9 13.96C9.88667 13.9333 9.86667 13.9333 9.84 13.96ZM9.86 16.38C9.82 16.42 9.82667 16.44 9.88 16.44C9.93333 16.4267 9.94667 16.4133 9.92 16.4C9.90667 16.3867 9.88667 16.38 9.86 16.38ZM9.76 19.16C9.74667 19.16 9.73333 19.1733 9.72 19.2C9.72 19.2267 9.72667 19.2467 9.74 19.26C9.75333 19.2867 9.76 19.2933 9.76 19.28C9.77333 19.2667 9.78 19.2467 9.78 19.22C9.78 19.18 9.77333 19.16 9.76 19.16ZM9.68 24.38L9.74 24.42C9.75333 24.4333 9.77333 24.44 9.8 24.44C9.84 24.44 9.86667 24.4267 9.88 24.4C9.89333 24.3733 9.89333 24.3467 9.88 24.32C9.88 24.2933 9.86667 24.28 9.84 24.28C9.82667 24.28 9.79333 24.2933 9.74 24.32L9.68 24.38ZM9.68 24.3C9.68 24.2333 9.64667 24.2 9.58 24.2C9.55333 24.2133 9.54667 24.2333 9.56 24.26C9.57333 24.2867 9.59333 24.3133 9.62 24.34C9.64667 24.3667 9.66667 24.3533 9.68 24.3ZM9.56 11.62C9.54667 11.6067 9.53333 11.6067 9.52 11.62C9.50667 11.62 9.50667 11.6333 9.52 11.66H9.56V11.62ZM9.48 12.34C9.46667 12.3133 9.44667 12.3133 9.42 12.34C9.40667 12.3667 9.40667 12.3933 9.42 12.42L9.44 12.48L9.48 12.42C9.48 12.3667 9.48 12.34 9.48 12.34ZM8.88 14.86V14.9C8.88 14.94 8.9 14.96 8.94 14.96C8.94 14.8933 8.92 14.86 8.88 14.86ZM7.78 12C7.76667 11.9733 7.74667 11.9733 7.72 12C7.69333 12.0667 7.7 12.1 7.74 12.1C7.76667 12.1 7.78 12.0867 7.78 12.06V12ZM7.72 18.12C7.8 18.0667 7.82667 18.0133 7.8 17.96C7.77333 17.9467 7.75333 17.9467 7.74 17.96C7.71333 18.0133 7.7 18.02 7.7 17.98C7.68667 17.9533 7.67333 17.9467 7.66 17.96C7.64667 17.96 7.64667 17.9733 7.66 18C7.68667 18.0267 7.68 18.0467 7.64 18.06C7.62667 18.0867 7.62667 18.1067 7.64 18.12C7.68 18.1467 7.71333 18.1467 7.74 18.12H7.72ZM7.72 20.86C7.72 20.8333 7.71333 20.82 7.7 20.82C7.68667 20.8333 7.68 20.8467 7.68 20.86C7.69333 20.8867 7.7 20.9 7.7 20.9C7.71333 20.9 7.72 20.8867 7.72 20.86ZM7.6 11.76C7.6 11.7733 7.58667 11.7933 7.56 11.82C7.56 11.82 7.55333 11.8267 7.54 11.84C7.54 11.8667 7.56 11.88 7.6 11.88C7.68 11.88 7.72667 11.86 7.74 11.82C7.74 11.78 7.73333 11.7533 7.72 11.74C7.69333 11.7133 7.65333 11.72 7.6 11.76ZM7.6 13.46C7.6 13.4467 7.58667 13.44 7.56 13.44C7.56 13.4533 7.57333 13.46 7.6 13.46ZM7.66 14.5C7.66 14.4733 7.64 14.46 7.6 14.46C7.56 14.4467 7.52667 14.44 7.5 14.44C7.44667 14.44 7.41333 14.4467 7.4 14.46C7.37333 14.4867 7.40667 14.5067 7.5 14.52C7.52667 14.52 7.54667 14.5267 7.56 14.54C7.58667 14.54 7.60667 14.54 7.62 14.54C7.64667 14.54 7.66 14.5267 7.66 14.5ZM7.5 15.82C7.48667 15.8067 7.48 15.8 7.48 15.8C7.45333 15.8 7.44 15.8067 7.44 15.82C7.45333 15.8333 7.46667 15.84 7.48 15.84L7.5 15.82ZM7.12 13.58C7.10667 13.5667 7.1 13.58 7.1 13.62V13.68C7.12667 13.68 7.14 13.6667 7.14 13.64V13.62C7.14 13.5933 7.13333 13.58 7.12 13.58ZM7.1 14.92C7.1 14.96 7.10667 14.9867 7.12 15C7.14667 15.0267 7.17333 15.0333 7.2 15.02C7.2 15.0067 7.2 15 7.2 15C7.21333 14.9867 7.22 14.9733 7.22 14.96L7.2 14.94C7.2 14.9267 7.19333 14.92 7.18 14.92C7.15333 14.8933 7.12667 14.8933 7.1 14.92ZM7.14 23.04C7.16667 23.0133 7.16667 22.9733 7.14 22.92V22.98V23.04ZM7.04 19.5C7.08 19.54 7.1 19.5267 7.1 19.46C7.1 19.4333 7.09333 19.4067 7.08 19.38C7.06667 19.3533 7.05333 19.3467 7.04 19.36C7.02667 19.3733 7.02 19.4 7.02 19.44C7.02 19.4667 7.02667 19.4867 7.04 19.5ZM7.14 23.28C7.15333 23.28 7.16 23.2733 7.16 23.26L7.14 23.24C7.11333 23.2533 7.1 23.26 7.1 23.26C7.1 23.2733 7.11333 23.28 7.14 23.28ZM7.2 20.22C7.22667 20.2067 7.24 20.2 7.24 20.2C7.24 20.1867 7.22667 20.18 7.2 20.18C7.17333 20.18 7.16 20.1867 7.16 20.2C7.17333 20.2133 7.18667 20.22 7.2 20.22ZM7.36 21.92C7.4 21.9333 7.42667 21.9333 7.44 21.92C7.44 21.9067 7.43333 21.8933 7.42 21.88C7.40667 21.8533 7.38667 21.8533 7.36 21.88C7.33333 21.9067 7.33333 21.92 7.36 21.92ZM7.48 21.76C7.52 21.7867 7.55333 21.8 7.58 21.8C7.60667 21.8 7.62 21.7933 7.62 21.78C7.63333 21.7667 7.62667 21.7333 7.6 21.68C7.54667 21.6267 7.51333 21.6 7.5 21.6C7.48667 21.6 7.46667 21.62 7.44 21.66L7.38 21.7L7.48 21.76ZM7.6 24.36C7.61333 24.4 7.63333 24.4067 7.66 24.38C7.66 24.3533 7.65333 24.34 7.64 24.34C7.61333 24.3133 7.59333 24.3067 7.58 24.32C7.58 24.3333 7.58667 24.3467 7.6 24.36ZM7.7 24.62C7.72667 24.6067 7.74 24.6 7.74 24.6C7.75333 24.5867 7.75333 24.5733 7.74 24.56C7.74 24.56 7.73333 24.5667 7.72 24.58C7.70667 24.58 7.69333 24.58 7.68 24.58C7.68 24.5933 7.67333 24.6 7.66 24.6C7.66 24.64 7.67333 24.6467 7.7 24.62ZM7.8 20.38C7.81333 20.38 7.82 20.3733 7.82 20.36C7.83333 20.3467 7.82667 20.3333 7.8 20.32C7.78667 20.2933 7.77333 20.2867 7.76 20.3C7.74667 20.3133 7.74 20.3333 7.74 20.36C7.75333 20.3733 7.77333 20.38 7.8 20.38ZM7.82 15.86C7.84667 15.86 7.86667 15.86 7.88 15.86C7.89333 15.8467 7.89333 15.84 7.88 15.84C7.88 15.8267 7.86 15.82 7.82 15.82C7.78 15.82 7.76 15.8267 7.76 15.84H7.78C7.78 15.8533 7.79333 15.86 7.82 15.86ZM7.9 15.06C7.9 15.02 7.87333 15.0267 7.82 15.08C7.76667 15.1333 7.77333 15.1533 7.84 15.14C7.88 15.1133 7.9 15.0933 7.9 15.08V15.06ZM8 20.74C7.97333 20.7933 7.98667 20.8067 8.04 20.78C8.06667 20.78 8.08 20.7733 8.08 20.76C8.09333 20.76 8.1 20.76 8.1 20.76C8.11333 20.7467 8.10667 20.7267 8.08 20.7C8.05333 20.6733 8.03333 20.6667 8.02 20.68V20.7C8.00667 20.7133 8 20.7267 8 20.74ZM8.24 12.54C8.25333 12.5133 8.24667 12.4867 8.22 12.46H8.24C8.22667 12.4467 8.20667 12.44 8.18 12.44C8.16667 12.44 8.16667 12.4667 8.18 12.52C8.19333 12.56 8.21333 12.5667 8.24 12.54ZM8.26 16.38C8.28667 16.4067 8.30667 16.4067 8.32 16.38C8.33333 16.3533 8.34 16.3267 8.34 16.3C8.32667 16.2733 8.30667 16.2733 8.28 16.3C8.25333 16.3267 8.24667 16.3533 8.26 16.38ZM8.4 19.86C8.4 19.8333 8.38667 19.82 8.36 19.82C8.33333 19.8067 8.32 19.8067 8.32 19.82C8.32 19.82 8.32 19.8333 8.32 19.86C8.37333 19.8867 8.4 19.8867 8.4 19.86ZM8.38 22.32C8.40667 22.2933 8.40667 22.2667 8.38 22.24C8.35333 22.2133 8.33333 22.2067 8.32 22.22C8.30667 22.2333 8.30667 22.26 8.32 22.3C8.33333 22.34 8.35333 22.3467 8.38 22.32ZM8.5 19.34C8.5 19.38 8.51333 19.4 8.54 19.4C8.54 19.3733 8.52667 19.3533 8.5 19.34ZM8.52 16.86C8.53333 16.8867 8.54667 16.9 8.56 16.9C8.57333 16.9 8.58 16.8867 8.58 16.86C8.58 16.82 8.57333 16.7933 8.56 16.78C8.54667 16.7533 8.53333 16.7533 8.52 16.78C8.50667 16.8067 8.50667 16.8333 8.52 16.86ZM8.68 19.9V19.88C8.69333 19.8667 8.7 19.86 8.7 19.86C8.71333 19.8467 8.7 19.8267 8.66 19.8C8.63333 19.76 8.60667 19.7467 8.58 19.76C8.55333 19.7733 8.56667 19.8067 8.62 19.86C8.67333 19.94 8.69333 19.9533 8.68 19.9ZM8.7 17.52C8.68667 17.5333 8.68667 17.5533 8.7 17.58C8.72667 17.5933 8.74667 17.5867 8.76 17.56C8.77333 17.5333 8.76667 17.52 8.74 17.52C8.72667 17.5067 8.71333 17.5067 8.7 17.52ZM8.76 24.36L8.78 24.34C8.76667 24.34 8.76 24.3467 8.76 24.36ZM8.94 15.34C8.91333 15.34 8.89333 15.36 8.88 15.4C8.86667 15.44 8.86667 15.4733 8.88 15.5C8.89333 15.5267 8.92 15.5067 8.96 15.44C8.98667 15.3733 8.98 15.34 8.94 15.34ZM9 24.52C9.01333 24.5333 9.02667 24.5333 9.04 24.52C9.05333 24.5067 9.06 24.4867 9.06 24.46C9.06 24.4333 9.04667 24.42 9.02 24.42C8.98 24.42 8.97333 24.4533 9 24.52ZM8.98 20.48C9.03333 20.4533 9.06 20.4333 9.06 20.42C9.06 20.4067 9.04667 20.3867 9.02 20.36C8.99333 20.3333 8.96 20.3467 8.92 20.4C8.88 20.48 8.88 20.52 8.92 20.52L8.94 20.5C8.96667 20.4867 8.98 20.48 8.98 20.48ZM9.1 25.76C9.12667 25.7867 9.14667 25.7933 9.16 25.78C9.18667 25.78 9.18 25.76 9.14 25.72C9.12667 25.6667 9.10667 25.6533 9.08 25.68C9.08 25.7067 9.08667 25.7333 9.1 25.76ZM9.18 17.92C9.19333 17.9867 9.21333 18 9.24 17.96C9.25333 17.92 9.25333 17.8933 9.24 17.88C9.21333 17.8533 9.19333 17.8467 9.18 17.86C9.16667 17.8733 9.16667 17.8933 9.18 17.92ZM9.24 22.76C9.25333 22.76 9.26 22.7467 9.26 22.72C9.24667 22.72 9.24 22.7333 9.24 22.76ZM9.42 13.38C9.46 13.42 9.49333 13.4267 9.52 13.4C9.52 13.4 9.51333 13.36 9.5 13.28C9.47333 13.2133 9.46 13.18 9.46 13.18C9.46 13.1667 9.44667 13.1733 9.42 13.2C9.36667 13.2267 9.36667 13.2867 9.42 13.38ZM9.5 22.42C9.48667 22.4333 9.49333 22.46 9.52 22.5C9.57333 22.5533 9.60667 22.5667 9.62 22.54C9.63333 22.5267 9.62 22.5 9.58 22.46C9.55333 22.42 9.52667 22.4067 9.5 22.42ZM22.1675 14.98H18.6075V11.38H21.2275C21.8142 11.38 22.2808 11.38 22.6275 11.38C22.9875 11.38 23.2542 11.38 23.4275 11.38C23.6142 11.38 23.7342 11.3867 23.7875 11.4C23.8408 11.4 23.8675 11.4067 23.8675 11.42C23.8675 11.4467 23.8875 11.46 23.9275 11.46C23.9408 11.46 23.9608 11.4467 23.9875 11.42L24.0275 11.38L26.5075 11.4H28.9875L29.0075 14.26L28.9275 14.32C28.8875 14.36 28.8675 14.4 28.8675 14.44C28.8675 14.4667 28.8942 14.48 28.9475 14.48H29.0075L28.9875 14.98L27.1875 15H25.4075L25.3875 20.68V26.38H22.1875V21.72L22.2475 21.76C22.2742 21.7733 22.3008 21.7733 22.3275 21.76C22.3675 21.72 22.3675 21.7 22.3275 21.7H22.2675H22.1875V20.64C22.1875 20.3867 22.1875 20.1933 22.1875 20.06C22.1875 19.9133 22.1875 19.8067 22.1875 19.74C22.1875 19.66 22.1875 19.6067 22.1875 19.58C22.2008 19.5533 22.2142 19.54 22.2275 19.54C22.2408 19.5267 22.2408 19.5067 22.2275 19.48C22.2142 19.4667 22.2008 19.4533 22.1875 19.44C22.1875 19.4133 22.1875 19.3667 22.1875 19.3C22.1875 19.2333 22.1875 19.14 22.1875 19.02C22.1875 18.9 22.1875 18.74 22.1875 18.54C22.1875 18.3 22.1875 18.0933 22.1875 17.92C22.1875 17.7467 22.1942 17.6667 22.2075 17.68C22.2075 17.7067 22.2208 17.72 22.2475 17.72C22.2742 17.72 22.2808 17.6867 22.2675 17.62C22.2675 17.5533 22.2542 17.5067 22.2275 17.48C22.2142 17.4667 22.2008 17.4533 22.1875 17.44C22.1875 17.4133 22.1875 17.36 22.1875 17.28C22.1875 17.2 22.1875 17.08 22.1875 16.92C22.1875 16.7467 22.1875 16.5133 22.1875 16.22L22.1675 14.98ZM28.8075 13.94C28.8342 13.94 28.8342 13.9267 28.8075 13.9C28.7942 13.9 28.7875 13.9067 28.7875 13.92C28.7875 13.92 28.7808 13.92 28.7675 13.92C28.7675 13.9333 28.7675 13.94 28.7675 13.94C28.7942 13.9667 28.8075 13.9667 28.8075 13.94ZM28.8275 12.26C28.8142 12.26 28.8075 12.2733 28.8075 12.3C28.8208 12.3 28.8275 12.2867 28.8275 12.26ZM28.7875 11.48C28.7608 11.4533 28.7475 11.4533 28.7475 11.48H28.7875ZM28.3275 12.88C28.2742 12.88 28.2475 12.8867 28.2475 12.9C28.2475 12.94 28.2742 12.96 28.3275 12.96C28.3675 12.96 28.3942 12.9533 28.4075 12.94C28.4475 12.9133 28.4208 12.8933 28.3275 12.88ZM28.0475 11.92C27.9942 11.92 27.9675 11.9333 27.9675 11.96C27.9675 11.9733 27.9875 11.9733 28.0275 11.96C28.0675 11.96 28.0742 11.9467 28.0475 11.92ZM26.9875 14.84C27.0142 14.8133 27.0275 14.7933 27.0275 14.78C27.0275 14.6867 27.0142 14.6533 26.9875 14.68C26.9875 14.68 26.9742 14.7067 26.9475 14.76C26.9475 14.8133 26.9608 14.84 26.9875 14.84ZM27.0275 13.94C27.0542 13.9133 27.0542 13.8867 27.0275 13.86C27.0008 13.8467 26.9808 13.8533 26.9675 13.88C26.9275 13.9467 26.9275 13.98 26.9675 13.98L26.9875 13.96C27.0142 13.9467 27.0275 13.94 27.0275 13.94ZM26.9675 12.02C26.9408 12.0467 26.9342 12.08 26.9475 12.12L26.9675 12.18L27.0275 12.12C27.0542 12.0667 27.0675 12.0267 27.0675 12C27.0675 11.9733 27.0542 11.96 27.0275 11.96C27.0142 11.96 26.9942 11.98 26.9675 12.02ZM26.6875 13.92C26.7008 13.8933 26.7008 13.8733 26.6875 13.86C26.6742 13.8333 26.6542 13.8333 26.6275 13.86C26.6008 13.9133 26.6075 13.94 26.6475 13.94C26.6742 13.94 26.6875 13.9333 26.6875 13.92ZM26.6275 12.76H26.6075H26.6275ZM25.9275 14.06C25.9542 14.0333 25.9608 14.02 25.9475 14.02C25.9342 14.0067 25.9208 14.0133 25.9075 14.04C25.8942 14.0533 25.8942 14.06 25.9075 14.06H25.9275ZM26.4275 13.48C26.4542 13.3867 26.4475 13.34 26.4075 13.34C26.3942 13.3267 26.3742 13.34 26.3475 13.38C26.3342 13.42 26.3342 13.4533 26.3475 13.48C26.3742 13.5333 26.4008 13.5333 26.4275 13.48ZM26.4075 12.3C26.3942 12.3 26.3742 12.3267 26.3475 12.38C26.3342 12.42 26.3275 12.4533 26.3275 12.48C26.3275 12.5067 26.3342 12.52 26.3475 12.52C26.3742 12.5067 26.3942 12.4867 26.4075 12.46C26.4208 12.4333 26.4275 12.4 26.4275 12.36C26.4275 12.32 26.4208 12.3 26.4075 12.3ZM26.0075 14.34C26.0342 14.3133 26.0408 14.2933 26.0275 14.28C26.0142 14.2667 25.9942 14.2667 25.9675 14.28C25.9408 14.3467 25.9408 14.38 25.9675 14.38L26.0075 14.34ZM25.8475 11.68C25.8342 11.6933 25.8342 11.7133 25.8475 11.74C25.8608 11.7667 25.8808 11.78 25.9075 11.78C25.9342 11.78 25.9542 11.7733 25.9675 11.76C26.0075 11.7467 26.0142 11.7267 25.9875 11.7C25.9608 11.6733 25.9342 11.66 25.9075 11.66C25.8942 11.66 25.8808 11.6667 25.8675 11.68C25.8675 11.68 25.8608 11.68 25.8475 11.68ZM25.7475 13.3C25.7342 13.3 25.7208 13.3133 25.7075 13.34C25.6942 13.3667 25.6875 13.3867 25.6875 13.4C25.6875 13.4533 25.7142 13.4533 25.7675 13.4C25.8075 13.3333 25.8008 13.3 25.7475 13.3ZM25.5275 14.56C25.5142 14.5733 25.5075 14.58 25.5075 14.58C25.5208 14.5933 25.5275 14.6 25.5275 14.6C25.5408 14.6 25.5475 14.5933 25.5475 14.58L25.5275 14.56ZM20.7475 12.06C20.6942 12.1 20.6808 12.12 20.7075 12.12C20.7475 12.12 20.7742 12.1133 20.7875 12.1C20.8142 12.0867 20.8275 12.0667 20.8275 12.04C20.8142 12.0267 20.7875 12.0333 20.7475 12.06ZM20.2275 11.76C20.2142 11.76 20.2075 11.78 20.2075 11.82C20.2075 11.8467 20.2208 11.8467 20.2475 11.82C20.2875 11.78 20.2942 11.7533 20.2675 11.74C20.2408 11.7133 20.2275 11.72 20.2275 11.76ZM18.7475 12.46C18.7608 12.4467 18.7542 12.4267 18.7275 12.4C18.7008 12.3733 18.6808 12.36 18.6675 12.36C18.6408 12.36 18.6275 12.3733 18.6275 12.4C18.6275 12.4267 18.6342 12.4467 18.6475 12.46C18.6608 12.4867 18.6808 12.5 18.7075 12.5C18.7342 12.5 18.7475 12.4867 18.7475 12.46ZM18.8475 11.76C18.8742 11.76 18.8875 11.72 18.8875 11.64C18.9142 11.5067 18.8875 11.4533 18.8075 11.48C18.7808 11.4933 18.7675 11.5133 18.7675 11.54C18.7675 11.5533 18.7742 11.6 18.7875 11.68C18.7875 11.7333 18.8075 11.76 18.8475 11.76ZM19.7075 13.1C19.7342 13.0867 19.7475 13.08 19.7475 13.08C19.7475 13.0533 19.7342 13.04 19.7075 13.04C19.6808 13.04 19.6675 13.0533 19.6675 13.08C19.6808 13.0933 19.6942 13.1 19.7075 13.1ZM20.1075 12.82C20.1075 12.8333 20.1142 12.84 20.1275 12.84C20.1408 12.84 20.1475 12.8267 20.1475 12.8C20.1208 12.8 20.1075 12.8067 20.1075 12.82ZM20.1475 13.38C20.1475 13.4067 20.1608 13.42 20.1875 13.42C20.2008 13.4067 20.2075 13.3933 20.2075 13.38C20.2075 13.3667 20.2008 13.36 20.1875 13.36C20.1875 13.3467 20.1875 13.3467 20.1875 13.36C20.1608 13.3733 20.1475 13.38 20.1475 13.38ZM20.2075 14.4C20.2342 14.4 20.2542 14.4067 20.2675 14.42C20.2808 14.42 20.2942 14.42 20.3075 14.42C20.3342 14.42 20.3475 14.4133 20.3475 14.4C20.3608 14.4 20.3675 14.4 20.3675 14.4C20.3675 14.3733 20.3208 14.36 20.2275 14.36C20.1875 14.3733 20.1808 14.3867 20.2075 14.4ZM20.6675 13.02C20.6942 13.06 20.7275 13.06 20.7675 13.02C20.8208 12.94 20.8008 12.9133 20.7075 12.94C20.6675 12.9667 20.6542 12.9933 20.6675 13.02ZM20.8075 14.02C20.8342 13.9667 20.8408 13.9333 20.8275 13.92C20.8275 13.8933 20.8142 13.88 20.7875 13.88C20.7742 13.88 20.7542 13.9 20.7275 13.94C20.7142 13.9933 20.7208 14.0333 20.7475 14.06C20.7742 14.0867 20.7942 14.0733 20.8075 14.02ZM20.9875 11.86C20.9875 11.82 20.9742 11.8133 20.9475 11.84C20.9342 11.8533 20.9275 11.88 20.9275 11.92C20.9542 11.96 20.9742 11.94 20.9875 11.86ZM21.1475 12.4C21.1608 12.4133 21.1742 12.4133 21.1875 12.4C21.2142 12.4 21.2142 12.3867 21.1875 12.36C21.1608 12.3467 21.1408 12.3467 21.1275 12.36C21.1142 12.36 21.1208 12.3733 21.1475 12.4ZM22.8875 19V18.98C22.8742 18.9667 22.8608 18.9667 22.8475 18.98C22.8342 18.98 22.8342 18.9867 22.8475 19C22.8475 19.0267 22.8608 19.0267 22.8875 19ZM22.7275 17.26C22.7408 17.26 22.7475 17.2667 22.7475 17.28C22.7608 17.28 22.7808 17.28 22.8075 17.28C22.8342 17.28 22.8475 17.2667 22.8475 17.24C22.8608 17.2133 22.8675 17.1867 22.8675 17.16C22.8675 17.12 22.8608 17.1 22.8475 17.1L22.8275 17.12C22.8142 17.1333 22.8008 17.14 22.7875 17.14C22.7875 17.14 22.7808 17.1467 22.7675 17.16C22.7275 17.2 22.7142 17.2333 22.7275 17.26ZM22.8475 18.08C22.8742 18.0667 22.8875 18.06 22.8875 18.06C22.9008 18.0333 22.8942 18.02 22.8675 18.02C22.8542 18.02 22.8475 18.0333 22.8475 18.06C22.8475 18.0733 22.8475 18.08 22.8475 18.08ZM23.3275 23.04C23.2742 23.04 23.2408 23.0733 23.2275 23.14C23.2275 23.2067 23.2475 23.26 23.2875 23.3C23.3408 23.3267 23.3675 23.34 23.3675 23.34C23.3942 23.34 23.4208 23.3267 23.4475 23.3C23.4742 23.2733 23.4875 23.2467 23.4875 23.22C23.4875 23.1933 23.4675 23.16 23.4275 23.12C23.3875 23.0667 23.3542 23.04 23.3275 23.04ZM23.2475 22.02C23.2608 22.0333 23.2675 22.0267 23.2675 22C23.2675 21.9733 23.2608 21.96 23.2475 21.96C23.2475 22 23.2475 22.02 23.2475 22.02ZM23.3675 14.16C23.3542 14.24 23.3608 14.28 23.3875 14.28C23.4008 14.28 23.4142 14.2733 23.4275 14.26C23.4408 14.22 23.4408 14.1867 23.4275 14.16L23.3875 14.08L23.3675 14.16ZM23.5275 24.1C23.5675 24.0333 23.5475 23.96 23.4675 23.88L23.4475 23.86H23.4075C23.3675 23.86 23.3342 23.8733 23.3075 23.9C23.2942 23.9133 23.2942 23.9467 23.3075 24C23.3342 24.04 23.3608 24.0733 23.3875 24.1C23.4008 24.1133 23.4275 24.12 23.4675 24.12C23.5075 24.12 23.5275 24.1133 23.5275 24.1ZM23.8475 19.06C23.8342 19.0733 23.8275 19.0933 23.8275 19.12C23.8275 19.1467 23.8408 19.16 23.8675 19.16C23.8942 19.16 23.9075 19.1467 23.9075 19.12C23.9208 19.0933 23.9208 19.0733 23.9075 19.06C23.8942 19.0467 23.8742 19.0467 23.8475 19.06ZM24.0675 25.34C24.1208 25.3933 24.1475 25.38 24.1475 25.3C24.1475 25.26 24.1275 25.24 24.0875 25.24C24.0742 25.24 24.0608 25.2467 24.0475 25.26C24.0208 25.2867 24.0275 25.3133 24.0675 25.34ZM24.7275 18.68C24.7408 18.6933 24.7608 18.7 24.7875 18.7C24.8275 18.7 24.8475 18.6933 24.8475 18.68C24.9142 18.6133 24.9275 18.56 24.8875 18.52C24.8875 18.48 24.8608 18.4867 24.8075 18.54C24.7142 18.5933 24.6875 18.64 24.7275 18.68ZM24.7875 19.6C24.8142 19.6267 24.8275 19.6333 24.8275 19.62C24.8408 19.5933 24.8408 19.5667 24.8275 19.54C24.8142 19.5133 24.8008 19.5067 24.7875 19.52C24.7742 19.52 24.7675 19.5333 24.7675 19.56C24.7808 19.5733 24.7875 19.5867 24.7875 19.6ZM24.8275 23.32C24.8675 23.32 24.8875 23.3 24.8875 23.26C24.9142 23.2067 24.9075 23.18 24.8675 23.18C24.8675 23.18 24.8408 23.1933 24.7875 23.22C24.7342 23.2867 24.7475 23.32 24.8275 23.32ZM25.0075 20.46C25.0342 20.42 25.0342 20.3733 25.0075 20.32C24.9942 20.2667 24.9742 20.24 24.9475 20.24C24.9208 20.2667 24.9142 20.3133 24.9275 20.38V20.52C24.9542 20.5733 24.9808 20.5533 25.0075 20.46ZM25.2275 17.06C25.2142 17.0333 25.2008 17.0267 25.1875 17.04C25.1875 17.04 25.1942 17.06 25.2075 17.1C25.2475 17.14 25.2675 17.14 25.2675 17.1L25.2275 17.06ZM25.1075 18.22L25.0675 18.3C25.0408 18.34 25.0408 18.38 25.0675 18.42C25.0942 18.4467 25.1142 18.46 25.1275 18.46C25.1542 18.46 25.1808 18.4533 25.2075 18.44C25.2475 18.44 25.2675 18.4267 25.2675 18.4C25.2675 18.3867 25.2408 18.3533 25.1875 18.3C25.1475 18.2467 25.1208 18.22 25.1075 18.22ZM24.9275 14.14C24.9142 14.14 24.9075 14.1667 24.9075 14.22C24.9208 14.3267 24.9408 14.3733 24.9675 14.36V14.26C24.9675 14.18 24.9542 14.14 24.9275 14.14ZM25.0075 16.74C24.9808 16.74 24.9475 16.7533 24.9075 16.78C24.8675 16.7933 24.8475 16.8133 24.8475 16.84C24.8475 16.8533 24.8608 16.88 24.8875 16.92C24.9275 16.9467 24.9608 16.96 24.9875 16.96L25.0275 16.92C25.0808 16.84 25.0742 16.78 25.0075 16.74ZM24.7475 11.42C24.7075 11.46 24.7142 11.48 24.7675 11.48H24.8075C24.8075 11.4533 24.8008 11.4333 24.7875 11.42C24.7742 11.4067 24.7608 11.4067 24.7475 11.42ZM24.8475 17.6C24.8208 17.6133 24.7808 17.6533 24.7275 17.72C24.6875 17.7733 24.6742 17.8067 24.6875 17.82C24.7275 17.86 24.7875 17.88 24.8675 17.88C24.8942 17.88 24.9208 17.8667 24.9475 17.84C24.9608 17.8 24.9675 17.7467 24.9675 17.68C24.9675 17.6133 24.9542 17.5733 24.9275 17.56C24.9008 17.5867 24.8742 17.6 24.8475 17.6ZM24.5875 18.66C24.5742 18.6733 24.5675 18.6933 24.5675 18.72C24.5808 18.7333 24.5942 18.74 24.6075 18.74C24.6342 18.74 24.6475 18.7267 24.6475 18.7C24.6475 18.6867 24.6408 18.68 24.6275 18.68C24.6275 18.6667 24.6275 18.6533 24.6275 18.64C24.6142 18.6267 24.6008 18.6333 24.5875 18.66ZM24.5075 19.96C24.4675 19.92 24.4475 19.9333 24.4475 20H24.4875C24.5008 19.9733 24.5075 19.96 24.5075 19.96ZM24.0675 20.86C24.0408 20.9267 24.0608 20.96 24.1275 20.96C24.1542 20.96 24.1742 20.9533 24.1875 20.94C24.2142 20.9267 24.2275 20.9 24.2275 20.86C24.2275 20.8067 24.2208 20.7667 24.2075 20.74C24.1942 20.7133 24.1742 20.72 24.1475 20.76C24.1208 20.7867 24.0942 20.82 24.0675 20.86ZM24.1275 23.12C24.1275 23.0933 24.1208 23.08 24.1075 23.08L24.0875 23.1C24.0875 23.1133 24.1008 23.12 24.1275 23.12ZM24.1275 24.58C24.1275 24.5667 24.1142 24.56 24.0875 24.56C24.0208 24.56 23.9875 24.5733 23.9875 24.6L24.0075 24.62H24.0475C24.0742 24.62 24.1008 24.6067 24.1275 24.58ZM23.9875 20.04C23.9875 20.04 23.9875 20.02 23.9875 19.98C23.9608 19.9533 23.9342 19.9333 23.9075 19.92C23.8942 19.9067 23.8875 19.9133 23.8875 19.94C23.8875 19.9667 23.9008 19.9933 23.9275 20.02C23.9675 20.0467 23.9875 20.0533 23.9875 20.04ZM23.9875 13.7C23.9742 13.6867 23.9475 13.6733 23.9075 13.66C23.8808 13.6333 23.8608 13.62 23.8475 13.62C23.8342 13.6333 23.8408 13.6533 23.8675 13.68C23.8942 13.7067 23.9208 13.7267 23.9475 13.74C23.9742 13.74 23.9875 13.7267 23.9875 13.7ZM23.7075 18.3C23.6942 18.3267 23.6942 18.3533 23.7075 18.38C23.7208 18.3933 23.7475 18.4 23.7875 18.4C23.8275 18.4 23.8542 18.3867 23.8675 18.36C23.8942 18.3333 23.9008 18.3 23.8875 18.26C23.8875 18.22 23.8742 18.2 23.8475 18.2C23.8208 18.2 23.7742 18.2333 23.7075 18.3ZM23.6875 23.38C23.7008 23.3667 23.6942 23.36 23.6675 23.36C23.6408 23.3467 23.6208 23.3467 23.6075 23.36C23.5942 23.36 23.5875 23.3667 23.5875 23.38C23.6008 23.38 23.6142 23.38 23.6275 23.38C23.6542 23.4067 23.6742 23.4067 23.6875 23.38ZM23.5475 15C23.5475 14.9467 23.5408 14.9267 23.5275 14.94C23.5008 14.9667 23.4875 15 23.4875 15.04C23.4875 15.0933 23.5008 15.1067 23.5275 15.08C23.5408 15.08 23.5475 15.0533 23.5475 15ZM23.2475 12.34L23.2875 12.38C23.3142 12.4067 23.3475 12.42 23.3875 12.42C23.4542 12.42 23.5008 12.4067 23.5275 12.38C23.5542 12.3533 23.5475 12.3267 23.5075 12.3C23.4675 12.26 23.4342 12.24 23.4075 12.24C23.3942 12.24 23.3608 12.2533 23.3075 12.28L23.2475 12.34ZM23.3075 12.72C23.3075 12.7067 23.2942 12.7 23.2675 12.7C23.2542 12.6867 23.2475 12.6867 23.2475 12.7C23.2342 12.7 23.2275 12.7133 23.2275 12.74C23.2408 12.7533 23.2542 12.76 23.2675 12.76C23.2942 12.76 23.3075 12.7467 23.3075 12.72ZM23.2475 18.54C23.2075 18.62 23.2075 18.66 23.2475 18.66C23.2608 18.66 23.2808 18.6333 23.3075 18.58C23.3342 18.5133 23.3342 18.48 23.3075 18.48C23.2942 18.48 23.2742 18.5 23.2475 18.54ZM23.1275 19.58C23.1808 19.6333 23.2075 19.6267 23.2075 19.56C23.1942 19.5333 23.1875 19.52 23.1875 19.52C23.1475 19.52 23.1275 19.54 23.1275 19.58ZM23.1875 19.3C23.1742 19.2733 23.1542 19.2733 23.1275 19.3C23.1142 19.3533 23.1142 19.38 23.1275 19.38C23.1542 19.38 23.1742 19.3733 23.1875 19.36C23.2142 19.3333 23.2142 19.3133 23.1875 19.3ZM23.1075 17.42C23.1342 17.3933 23.1475 17.3667 23.1475 17.34C23.1475 17.3267 23.1342 17.3133 23.1075 17.3C23.0808 17.2733 23.0608 17.2667 23.0475 17.28V17.36C23.0608 17.4133 23.0808 17.4333 23.1075 17.42ZM23.0675 13.16C23.0275 13.16 23.0208 13.1667 23.0475 13.18C23.1008 13.2333 23.1275 13.2333 23.1275 13.18C23.1275 13.1667 23.1075 13.16 23.0675 13.16ZM23.0475 21.48C23.0342 21.48 23.0275 21.5 23.0275 21.54C23.0408 21.54 23.0542 21.5333 23.0675 21.52C23.0942 21.4933 23.0875 21.48 23.0475 21.48ZM23.0875 24.5C23.0608 24.4733 23.0408 24.46 23.0275 24.46C23.0275 24.46 23.0008 24.4733 22.9475 24.5C22.9208 24.5267 22.9275 24.56 22.9675 24.6C22.9808 24.6267 23.0008 24.64 23.0275 24.64C23.0542 24.64 23.0742 24.6333 23.0875 24.62C23.1408 24.5933 23.1408 24.5533 23.0875 24.5ZM22.9075 14.54C22.9342 14.4733 22.9408 14.4333 22.9275 14.42C22.9008 14.42 22.8742 14.4333 22.8475 14.46C22.8075 14.4867 22.7942 14.52 22.8075 14.56L22.8475 14.6C22.8742 14.6 22.8942 14.58 22.9075 14.54ZM22.8675 13.48C22.8142 13.48 22.7742 13.52 22.7475 13.6C22.7208 13.6667 22.7275 13.7 22.7675 13.7C22.7808 13.7 22.8008 13.6867 22.8275 13.66C22.8808 13.62 22.9075 13.58 22.9075 13.54C22.9075 13.5 22.8942 13.48 22.8675 13.48ZM22.7875 13.96C22.7608 13.9467 22.7342 13.9533 22.7075 13.98C22.6942 13.9933 22.6942 14.0133 22.7075 14.04C22.7475 14.0667 22.7742 14.0533 22.7875 14C22.8142 13.9733 22.8142 13.96 22.7875 13.96ZM22.7675 24.4C22.7408 24.3733 22.7142 24.3733 22.6875 24.4C22.6608 24.4267 22.6475 24.4667 22.6475 24.52C22.6475 24.56 22.6542 24.58 22.6675 24.58C22.6675 24.5933 22.6675 24.6 22.6675 24.6C22.7075 24.6 22.7342 24.5733 22.7475 24.52C22.7742 24.4533 22.7808 24.4133 22.7675 24.4ZM22.6475 25.24C22.6342 25.2533 22.6275 25.2667 22.6275 25.28V25.34C22.6542 25.3667 22.6742 25.36 22.6875 25.32C22.7008 25.3067 22.7008 25.2867 22.6875 25.26C22.6875 25.2467 22.6742 25.24 22.6475 25.24ZM22.3675 14.14C22.3942 14.14 22.4142 14.1267 22.4275 14.1C22.4275 14.0733 22.4208 14.06 22.4075 14.06C22.4075 14.0467 22.3942 14.0533 22.3675 14.08L22.3075 14.12L22.3675 14.14ZM22.3875 12.6C22.4142 12.5733 22.4208 12.5533 22.4075 12.54C22.4075 12.5267 22.3742 12.54 22.3075 12.58C22.2408 12.6067 22.2075 12.6267 22.2075 12.64C22.2075 12.6533 22.2275 12.66 22.2675 12.66C22.3208 12.6467 22.3608 12.6267 22.3875 12.6ZM22.1075 12.1C22.0808 12.1267 22.0742 12.1467 22.0875 12.16C22.1142 12.1733 22.1475 12.18 22.1875 12.18C22.2275 12.18 22.2608 12.1733 22.2875 12.16C22.3408 12.1467 22.3408 12.12 22.2875 12.08H22.2275C22.1742 12.08 22.1342 12.0867 22.1075 12.1ZM21.5275 12.78C21.5408 12.7933 21.5608 12.8 21.5875 12.8C21.6275 12.8 21.6475 12.7933 21.6475 12.78C21.6475 12.74 21.6408 12.7133 21.6275 12.7L21.6075 12.66L21.5675 12.7C21.5408 12.7133 21.5275 12.74 21.5275 12.78ZM21.8875 13.28L21.8675 13.24C21.8675 13.2667 21.8742 13.28 21.8875 13.28ZM21.8875 12.08C21.8875 12.12 21.8942 12.14 21.9075 12.14C21.9075 12.1533 21.9275 12.1533 21.9675 12.14C22.0208 12.1133 22.0608 12.0933 22.0875 12.08C22.0875 12.0667 22.0542 12.0533 21.9875 12.04C21.9208 12.0267 21.8875 12.04 21.8875 12.08ZM22.0075 13.42C22.0208 13.4467 22.0275 13.46 22.0275 13.46C22.0542 13.4467 22.0675 13.44 22.0675 13.44C22.0675 13.4133 22.0542 13.4 22.0275 13.4C22.0142 13.4 22.0075 13.4067 22.0075 13.42ZM22.1275 14.28C22.1408 14.2667 22.1408 14.24 22.1275 14.2C22.0875 14.1333 22.0675 14.14 22.0675 14.22C22.0675 14.3 22.0875 14.32 22.1275 14.28ZM30.8589 22.26H33.0989V24.5C33.0989 26.0467 32.3522 27.1333 30.8589 27.76V26.46C31.5922 26.06 31.9589 25.4067 31.9589 24.5H30.8589V22.26Z" fill="#F64A88"/>
</g>
<g filter="url(#filter2_d_96_1280)">
<rect x="31" y="19" width="1.71429" height="1.71429" fill="#F64A88"/>
</g>
<path d="M56.8 12.5C60.66 12.5 63.6 15.54 63.6 19.5C63.6 23.46 60.66 26.5 56.8 26.5H51.2V12.5H56.8ZM56.8 23.42C59 23.42 60.52 21.9 60.52 19.5C60.52 17.1 59 15.58 56.8 15.58H54.4V23.42H56.8ZM67.9792 22.7C68.3592 23.74 69.2792 24.1 70.3792 24.1C71.1992 24.1 71.8992 23.78 72.2992 23.34L74.6992 24.72C73.7192 26.08 72.2392 26.78 70.3392 26.78C66.9192 26.78 64.7992 24.48 64.7992 21.5C64.7992 18.52 66.9592 16.22 70.1192 16.22C73.0392 16.22 75.1992 18.48 75.1992 21.5C75.1992 21.92 75.1592 22.32 75.0792 22.7H67.9792ZM67.9192 20.46H72.2192C71.8992 19.3 70.9992 18.88 70.0992 18.88C68.9592 18.88 68.1992 19.44 67.9192 20.46ZM82.8902 16.5H86.2102L82.5102 26.5H79.1102L75.4102 16.5H78.7302L80.8102 22.84L82.8902 16.5ZM88.8109 15.62C87.8309 15.62 87.0109 14.8 87.0109 13.82C87.0109 12.84 87.8309 12.02 88.8109 12.02C89.7909 12.02 90.6109 12.84 90.6109 13.82C90.6109 14.8 89.7909 15.62 88.8109 15.62ZM87.3109 26.5V16.5H90.3109V26.5H87.3109ZM98.3663 16.22C100.386 16.22 102.106 17.66 102.106 20.36V26.5H99.1063V20.8C99.1063 19.56 98.3263 18.98 97.3663 18.98C96.2663 18.98 95.5063 19.62 95.5063 21.04V26.5H92.5063V16.5H95.5063V17.44C96.0463 16.7 97.0463 16.22 98.3663 16.22ZM106.846 22.7C107.226 23.74 108.146 24.1 109.246 24.1C110.066 24.1 110.766 23.78 111.166 23.34L113.566 24.72C112.586 26.08 111.106 26.78 109.206 26.78C105.786 26.78 103.666 24.48 103.666 21.5C103.666 18.52 105.826 16.22 108.986 16.22C111.906 16.22 114.066 18.48 114.066 21.5C114.066 21.92 114.026 22.32 113.946 22.7H106.846ZM106.786 20.46H111.086C110.766 19.3 109.866 18.88 108.966 18.88C107.826 18.88 107.066 19.44 106.786 20.46ZM130.268 12.5V15.58H126.668V26.5H123.468V15.58H119.868V12.5H130.268ZM132.452 22.7C132.832 23.74 133.752 24.1 134.852 24.1C135.672 24.1 136.372 23.78 136.772 23.34L139.172 24.72C138.192 26.08 136.712 26.78 134.812 26.78C131.392 26.78 129.272 24.48 129.272 21.5C129.272 18.52 131.432 16.22 134.592 16.22C137.512 16.22 139.672 18.48 139.672 21.5C139.672 21.92 139.632 22.32 139.552 22.7H132.452ZM132.392 20.46H136.692C136.372 19.3 135.472 18.88 134.572 18.88C133.432 18.88 132.672 19.44 132.392 20.46ZM146.076 26.78C143.036 26.78 140.776 24.48 140.776 21.5C140.776 18.52 143.036 16.22 146.076 16.22C148.016 16.22 149.736 17.24 150.596 18.78L147.976 20.3C147.636 19.6 146.916 19.18 146.036 19.18C144.736 19.18 143.776 20.12 143.776 21.5C143.776 22.88 144.736 23.82 146.036 23.82C146.916 23.82 147.656 23.4 147.976 22.7L150.596 24.2C149.736 25.76 148.036 26.78 146.076 26.78ZM157.663 16.22C159.683 16.22 161.403 17.66 161.403 20.36V26.5H158.403V20.8C158.403 19.56 157.623 18.98 156.663 18.98C155.563 18.98 154.803 19.62 154.803 21.04V26.5H151.803V12.5H154.803V17.44C155.343 16.7 156.343 16.22 157.663 16.22ZM173.063 26.5H169.663L166.463 22.08V26.5H163.463V12.5H166.463V20.88L169.463 16.5H172.963L169.323 21.5L173.063 26.5ZM180.026 16.22C182.046 16.22 183.766 17.66 183.766 20.36V26.5H180.766V20.8C180.766 19.56 179.986 18.98 179.026 18.98C177.926 18.98 177.166 19.62 177.166 21.04V26.5H174.166V16.5H177.166V17.44C177.706 16.7 178.706 16.22 180.026 16.22ZM190.627 26.78C187.687 26.78 185.327 24.48 185.327 21.5C185.327 18.52 187.687 16.22 190.627 16.22C193.567 16.22 195.927 18.52 195.927 21.5C195.927 24.48 193.567 26.78 190.627 26.78ZM190.627 23.86C191.927 23.86 192.927 22.92 192.927 21.5C192.927 20.08 191.927 19.14 190.627 19.14C189.327 19.14 188.327 20.08 188.327 21.5C188.327 22.92 189.327 23.86 190.627 23.86ZM208.233 16.5H211.433L208.233 26.5H205.433L203.833 21.16L202.233 26.5H199.433L196.233 16.5H199.433L200.873 21.86L202.433 16.5H205.233L206.793 21.86L208.233 16.5ZM212.623 26.5V11.9H215.623V26.5H212.623ZM222.619 26.78C219.679 26.78 217.319 24.48 217.319 21.5C217.319 18.52 219.679 16.22 222.619 16.22C225.559 16.22 227.919 18.52 227.919 21.5C227.919 24.48 225.559 26.78 222.619 26.78ZM222.619 23.86C223.919 23.86 224.919 22.92 224.919 21.5C224.919 20.08 223.919 19.14 222.619 19.14C221.319 19.14 220.319 20.08 220.319 21.5C220.319 22.92 221.319 23.86 222.619 23.86ZM236.956 16.5H239.876V26C239.876 29.36 237.256 30.78 234.596 30.78C232.516 30.78 230.776 30 229.856 28.36L232.416 26.88C232.796 27.58 233.376 28.14 234.696 28.14C236.096 28.14 236.956 27.42 236.956 26V25.08C236.296 25.9 235.336 26.38 234.036 26.38C231.196 26.38 229.116 24.06 229.116 21.3C229.116 18.54 231.196 16.22 234.036 16.22C235.336 16.22 236.296 16.7 236.956 17.52V16.5ZM234.536 23.62C235.956 23.62 236.956 22.68 236.956 21.3C236.956 19.92 235.956 18.98 234.536 18.98C233.116 18.98 232.116 19.92 232.116 21.3C232.116 22.68 233.116 23.62 234.536 23.62ZM248.377 16.5H251.577L248.157 26.2C247.037 29.38 245.257 30.64 242.457 30.5V27.7C243.857 27.7 244.517 27.26 244.957 26.04L240.977 16.5H244.277L246.497 22.62L248.377 16.5Z" fill="black"/>
<defs>
<filter id="filter0_d_96_1280" x="0" y="0" width="41" height="41" filterUnits="userSpaceOnUse" color-interpolation-filters="sRGB">
<feFlood flood-opacity="0" result="BackgroundImageFix"/>
<feColorMatrix in="SourceAlpha" type="matrix" values="0 0 0 0 0 0 0 0 0 0 0 0 0 0 0 0 0 0 127 0" result="hardAlpha"/>
<feOffset dx="1" dy="1"/>
<feComposite in2="hardAlpha" operator="out"/>
<feColorMatrix type="matrix" values="0 0 0 0 1 0 0 0 0 0.772549 0 0 0 0 0.0627451 0 0 0 1 0"/>
<feBlend mode="normal" in2="BackgroundImageFix" result="effect1_dropShadow_96_1280"/>
<feBlend mode="normal" in="SourceGraphic" in2="effect1_dropShadow_96_1280" result="shape"/>
</filter>
<filter id="filter1_d_96_1280" x="7" y="11.3799" width="26.5989" height="16.8799" filterUnits="userSpaceOnUse" color-interpolation-filters="sRGB">
<feFlood flood-opacity="0" result="BackgroundImageFix"/>
<feColorMatrix in="SourceAlpha" type="matrix" values="0 0 0 0 0 0 0 0 0 0 0 0 0 0 0 0 0 0 127 0" result="hardAlpha"/>
<feOffset dx="0.5" dy="0.5"/>
<feComposite in2="hardAlpha" operator="out"/>
<feColorMatrix type="matrix" values="0 0 0 0 1 0 0 0 0 0.772549 0 0 0 0 0.0627451 0 0 0 1 0"/>
<feBlend mode="normal" in2="BackgroundImageFix" result="effect1_dropShadow_96_1280"/>
<feBlend mode="normal" in="SourceGraphic" in2="effect1_dropShadow_96_1280" result="shape"/>
</filter>
<filter id="filter2_d_96_1280" x="31" y="19" width="2.21436" height="2.21436" filterUnits="userSpaceOnUse" color-interpolation-filters="sRGB">
<feFlood flood-opacity="0" result="BackgroundImageFix"/>
<feColorMatrix in="SourceAlpha" type="matrix" values="0 0 0 0 0 0 0 0 0 0 0 0 0 0 0 0 0 0 127 0" result="hardAlpha"/>
<feOffset dx="0.5" dy="0.5"/>
<feComposite in2="hardAlpha" operator="out"/>
<feColorMatrix type="matrix" values="0 0 0 0 1 0 0 0 0 0.772549 0 0 0 0 0.0627451 0 0 0 1 0"/>
<feBlend mode="normal" in2="BackgroundImageFix" result="effect1_dropShadow_96_1280"/>
<feBlend mode="normal" in="SourceGraphic" in2="effect1_dropShadow_96_1280" result="shape"/>
</filter>
</defs>
</svg>
