<svg width="261" height="303" viewBox="0 0 261 303" fill="none" xmlns="http://www.w3.org/2000/svg">
<g clip-path="url(#clip0_226_288)">
<path d="M150.019 233.612C156.604 241.116 160.484 254.895 155.88 264.206C153.125 263.398 150.411 262.461 147.823 261.299C148.846 252.621 148.431 242.548 144.463 234.648C146.322 234.328 148.175 233.982 150.019 233.612ZM237.426 231.771C237.133 209.805 235.338 185.889 226.769 165.388C222.22 154.501 215.593 147.631 204.236 143.437C191.24 138.637 177.056 137.961 164.641 131.489C155.814 137.584 145.538 141.414 136.898 147.803C136.516 148.086 135.166 148.311 134.445 148.304C133.889 148.333 133.429 148.192 133.381 147.813C132.918 144.145 131.73 140.02 128.835 137.604C127.643 140.259 126.735 143.061 125.964 145.744C121.466 161.379 119.927 177.816 119.791 194.042C127.432 193.651 135.317 193.937 141.526 197.711C146.111 200.495 149.651 206.154 147.271 211.577C144.811 217.187 139.62 220.718 135.104 224.603C138.699 226.644 141.405 229.451 143.401 232.73C143.636 232.562 143.919 232.433 144.239 232.38C159.293 229.845 173.616 225.27 188.8 224.369C189.4 212.59 189.441 200.739 188.739 188.968C188.693 188.181 191.841 187.669 191.868 188.133C192.584 200.138 192.529 212.227 191.892 224.238C192.813 224.216 193.732 224.201 194.659 224.209C196.777 224.229 196.212 226.576 194.4 226.562C180.279 226.44 166.985 230.035 153.399 232.916C160.212 241.115 163.77 255.369 158.507 264.938C160.518 265.478 162.537 265.97 164.527 266.452C172.068 268.284 179.971 270.074 187.969 271.364C193.465 272.015 199.92 272.71 206.17 273.209C210.846 273.355 215.489 273.202 220.045 272.66C226.472 271.896 234.04 270.296 235.322 262.935C237.109 252.676 237.563 242.171 237.426 231.771ZM46.9852 191.081C47.2012 191.721 46.5185 192.61 45.3983 192.607C40.9218 192.595 34.4576 192.789 30.7297 189.669C29.4539 192.102 29.1558 196.228 28.7928 199.25C28.9343 199.281 29.0726 199.319 29.1946 199.394C30.4434 200.173 31.8909 200.503 33.3201 200.84C38.192 196.734 44.9997 195.588 51.9327 195.495C51.6248 193.341 50.9032 191.281 50.1665 189.224C49.1975 189.971 48.1237 190.597 46.9852 191.081ZM118.393 136.203C118.491 136.199 118.577 136.203 118.663 136.208C118.224 132.888 117.814 129.564 117.411 126.241C112.324 128.539 111.546 134.912 111.544 140.724C112.963 138.233 115.055 136.346 118.393 136.203ZM118.886 137.865C118.636 137.999 118.34 138.089 118.01 138.103C114.065 138.27 112.972 144.202 112.21 147.225C112.077 147.757 111.332 148.139 110.599 148.274C109.687 148.576 108.529 148.451 108.525 147.558C108.511 144.719 108.37 141.44 108.596 138.231C99.7659 139.732 90.8734 145.286 83.437 149.845C73.5387 155.91 68.805 164.16 64.6947 174.743C64.6472 174.867 64.5586 174.981 64.4441 175.084C64.2972 175.684 64.0909 176.261 63.8294 176.787C62.4413 179.569 59.5484 182.682 56.1791 182.777C55.6153 182.794 55.1172 182.731 54.6679 182.615C54.2909 184.102 53.6114 185.47 52.6997 186.684C53.6967 189.59 54.8969 192.448 55.1637 195.522C59.3054 195.634 63.3887 196.014 67.0259 196.256C67.0259 196.134 67.0421 196.003 67.0983 195.851C71.254 184.936 76.1323 165.133 90.5082 164.024C103.311 163.038 107.119 186.05 109.895 194.72C112.057 194.583 114.319 194.396 116.632 194.234C116.738 180.344 117.611 165.636 121.065 151.894C120.221 147.24 119.52 142.557 118.886 137.865ZM31.1855 202.973C31.3486 202.777 31.5215 202.596 31.69 202.412C30.5989 202.127 29.5046 201.887 28.4492 201.532C26.9423 209.741 25.5931 218.003 24.784 226.311C24.1304 233.027 23.1636 240.523 25.6266 247.001C28.6934 255.067 37.8398 263.563 46.3014 256.303C46.3025 255.816 46.3111 255.338 46.3327 254.887C46.6752 247.731 48.5342 240.928 50.3167 234.037C43.1741 227.909 22.2584 213.7 31.1855 202.973ZM136.429 146.421C143.379 141.739 151.116 138.281 158.282 133.958C158.754 133.675 161.994 131.622 163.47 130.627C163.499 130.406 163.764 130.176 164.123 129.978C163.59 129.275 163.065 128.566 162.552 127.849C160.255 124.635 158.08 121.344 155.954 118.019C155.768 117.931 155.615 117.804 155.526 117.621C155.464 117.495 155.408 117.368 155.347 117.242C153.974 117.727 152.64 118.292 151.331 118.915C149.753 119.767 147.936 120.752 146.044 121.796C144.786 122.559 143.545 123.351 142.322 124.161C139.444 126.065 135.695 127.853 133.357 130.427C132.06 131.856 130.977 133.482 130.037 135.205C134.045 137.393 135.791 142.052 136.429 146.421Z" fill="#E44002"/>
<path d="M105.171 100.576C103.983 101.328 103.14 102.258 101.716 102.536C101.138 102.649 100.113 102.735 99.8912 101.988C98.4901 97.2448 99.2604 92.5466 99.3382 87.6986C99.3598 86.4284 102.52 85.8785 102.495 87.4064C102.427 91.5643 101.838 95.6165 102.667 99.6839C102.826 99.5545 102.984 99.4305 103.143 99.3302C104.326 98.5797 106.966 99.4391 105.171 100.576ZM124.644 96.5849C125.075 95.1809 121.877 95.5562 121.481 96.8501C120.606 99.6968 118.679 101.489 115.652 101.554C113.905 101.59 113.212 103.787 115.347 103.741C119.928 103.646 123.321 100.895 124.644 96.5849ZM117.175 78.0393C117.175 79.8368 117.175 81.6333 117.175 83.4308C117.175 84.7581 120.307 84.0907 120.307 83.048C120.307 81.2505 120.307 79.454 120.307 77.6565C120.307 76.3281 117.175 76.9966 117.175 78.0393ZM95.0302 78.0393C95.0302 79.8368 95.0302 81.6333 95.0302 83.4308C95.0302 84.7581 98.1617 84.0907 98.1617 83.048C98.1617 81.2505 98.1617 79.454 98.1617 77.6565C98.1617 76.3281 95.0302 76.9966 95.0302 78.0393ZM114.842 67.7998C116.2 65.3413 119.028 64.9585 121.321 66.3657C122.532 67.1076 125.255 65.4664 123.725 64.5272C119.634 62.0159 114.21 63.1157 111.84 67.4063C110.972 68.9752 114.156 69.042 114.842 67.7998ZM97.7448 68.8749C95.944 68.8749 94.1444 68.8749 92.3436 68.8749C91.636 68.8749 90.7037 69.1078 90.277 69.7278C89.8579 70.336 90.6303 70.6465 91.1251 70.6465C92.9259 70.6465 94.7255 70.6465 96.5263 70.6465C97.2339 70.6465 98.165 70.4136 98.5928 69.7936C99.013 69.1844 98.2406 68.8749 97.7448 68.8749ZM239.61 254.053C238.968 260.009 238.955 266.588 233.353 270.091C221.03 277.795 202.167 274.903 188.656 273.016C174.497 271.038 158.743 268.743 145.539 262.827C145.507 262.825 145.476 262.819 145.446 262.816C141.125 263.579 134.588 263.725 130.998 261.548C130.415 261.195 129.97 260.866 129.596 260.536C128.222 266.375 123.84 271.541 117.262 271.835C105.888 272.341 96.4021 263.392 87.7115 257.084C78.766 263.841 65.1193 275.504 53.5682 271.528C48.3301 269.725 46.6255 263.36 46.3468 258.027C41.8821 260.508 36.1071 261.226 31.5539 258.932C23.0243 254.634 20.7158 244.639 21.0442 235.848C21.405 226.144 22.846 216.461 24.4998 206.901C25.2085 202.798 25.9561 198.699 26.817 194.624C27.1119 193.225 27.1908 190.726 28.0571 189.524C28.2256 189.292 28.7258 188.992 29.2778 188.777C29.2778 188.766 29.2724 188.755 29.2724 188.745C29.3232 177.527 30.6627 166.161 29.9033 154.956C29.4668 148.516 25.7724 139.174 28.5151 132.953C29.5932 130.508 34.3744 127.925 36.7995 129.977C41.2102 133.706 40.3784 141.057 44.2792 145.367C54.9563 142.55 70.9893 140.249 66.7623 152.959C66.6629 153.256 66.4166 153.487 66.1077 153.648C67.3327 155.643 67.1825 158.534 66.5409 161.24C66.4977 161.421 66.3755 161.583 66.2092 161.727C66.6024 162.48 66.7472 163.34 66.6824 164.261C70.447 157.812 75.294 152.534 82.5263 148.267C90.4758 143.577 99.4623 138.11 108.759 136.509C109.371 131.342 111.208 126.608 116.47 124.531C116.706 124.437 116.948 124.396 117.186 124.389C116.976 122.646 116.763 120.905 116.549 119.162C83.9457 130.338 86.9899 81.9287 87.0763 61.4282C79.2964 64.7105 71.2226 64.9585 65.0307 56.5457C54.8148 42.6649 62.8162 23.5586 78.4819 18.4615C86.1851 15.9545 94.0795 18.1272 101.167 21.4117C105.483 23.4109 109.799 25.7497 114.423 26.9768C120.72 28.6471 126.013 27.8998 132.027 25.7411C137.847 23.6535 145.155 20.1803 151.514 21.7417C159.081 23.5996 162.833 32.6551 162.1 39.9616C175.077 34.018 177.526 56.6104 177.414 66.4789C177.307 75.7156 175.75 86.134 170.94 94.1544C167.333 100.169 162.001 103.559 155.745 105.865C155.194 106.208 154.701 106.509 154.293 106.757C155.513 109.81 156.782 112.842 158.195 115.814C161.101 120.413 164.072 125.006 167.389 129.326C167.394 129.447 167.343 129.543 167.237 129.613C167.106 129.714 166.97 129.809 166.838 129.909C186.395 140.243 215.604 136.539 227.219 158.799C237.16 177.855 239.488 201.419 240.335 222.557C240.751 233.033 240.734 243.612 239.61 254.053ZM163.675 40.9827C164.139 40.8792 164.655 40.7757 165.228 40.67C164.737 40.6862 164.218 40.7983 163.675 40.9827ZM155.347 117.244C153.974 117.729 152.64 118.295 151.331 118.917C149.521 119.782 147.763 120.756 146.044 121.799C144.786 122.561 143.545 123.352 142.322 124.163C139.444 126.068 135.695 127.855 133.357 130.429C132.06 131.858 130.977 133.484 130.037 135.207C134.045 137.393 135.792 142.052 136.429 146.421C143.379 141.739 151.116 138.281 158.282 133.957C158.754 133.674 161.995 131.621 163.47 130.627C163.499 130.405 163.764 130.175 164.123 129.978C163.59 129.275 163.065 128.566 162.552 127.849C160.255 124.636 158.08 121.345 155.954 118.019C155.768 117.931 155.616 117.805 155.526 117.621C155.462 117.498 155.406 117.371 155.347 117.244ZM117.37 117.094C117.767 116.934 119.453 116.508 119.554 117.326C120.69 126.466 121.712 135.642 123.137 144.748C123.629 143.266 124.143 141.794 124.707 140.347C125.239 138.985 125.821 137.567 126.478 136.17C126.18 135.927 126.43 135.594 126.885 135.307C128.337 132.404 130.19 129.678 132.847 127.896C139.768 123.256 146.59 118.275 154.485 115.427C151.955 109.927 149.887 104.24 147.594 98.6379C145.391 98.5301 143.273 97.7915 141.594 96.2614C140.703 95.4494 143.648 94.2449 144.497 95.017C149.516 99.5911 157.841 94.4455 157.143 87.9704C156.396 81.0089 148.969 81.8877 146.129 87.0657C145.973 87.346 145.583 87.5682 145.132 87.7083C144.974 88.0879 144.555 88.4006 144.066 88.5731L143.588 89.8164C143.588 89.8164 143.253 89.3732 142.723 88.64C142.495 88.5656 142.295 88.4416 142.158 88.2475C135.593 79.0367 129.559 70.4869 134.096 59.2587C122.223 60.5505 112.194 56.4487 101.028 52.9032C97.6649 55.4157 93.8548 58.0693 89.899 60.0998C90.0901 60.2162 90.2112 60.3952 90.209 60.654C90.1668 77.7988 86.1408 129.624 117.37 117.094ZM111.544 140.724C112.963 138.232 115.055 136.344 118.393 136.203C118.491 136.199 118.577 136.203 118.663 136.208C118.224 132.888 117.814 129.564 117.411 126.241C112.323 128.539 111.546 134.912 111.544 140.724ZM64.4441 175.085C64.2972 175.684 64.0908 176.261 63.8294 176.787C62.4413 179.569 59.5485 182.682 56.1792 182.777C55.6153 182.794 55.1172 182.731 54.6678 182.615C54.2908 184.102 53.6114 185.471 52.6997 186.684C53.6967 189.59 54.8969 192.448 55.1637 195.522C59.3054 195.635 63.3887 196.014 67.0259 196.256C67.0259 196.134 67.0421 196.003 67.0983 195.851C71.254 184.936 76.1324 165.133 90.5082 164.024C103.311 163.038 107.119 186.05 109.895 194.72C112.057 194.583 114.319 194.396 116.632 194.234C116.738 180.344 117.611 165.636 121.065 151.894C120.22 147.238 119.519 142.556 118.884 137.864C118.634 137.998 118.338 138.088 118.008 138.102C114.063 138.269 112.97 144.201 112.208 147.224C112.075 147.755 111.33 148.137 110.596 148.274C109.685 148.575 108.527 148.449 108.522 147.558C108.508 144.718 108.368 141.439 108.594 138.23C99.7638 139.731 90.8712 145.285 83.4348 149.843C73.5365 155.91 68.8029 164.159 64.6925 174.743C64.6461 174.867 64.5575 174.98 64.4441 175.085ZM30.9058 135.927C30.9284 138.829 31.4642 141.69 31.8985 144.549C34.059 158.751 32.5563 172.944 32.417 187.229C32.5142 187.284 32.606 187.347 32.6784 187.432C35.4525 190.663 41.6898 190.437 45.6208 190.444C47.1688 189.873 48.5008 188.758 49.5356 187.379C49.5227 187.222 49.6534 187.055 49.877 186.901C51.2273 184.895 51.9748 182.431 51.8603 180.257C51.856 180.198 51.8668 180.142 51.8863 180.087C51.4725 179.083 51.2921 177.884 51.2608 176.637C51.2251 175.279 54.3859 174.77 54.428 176.385C54.4723 178.098 55.0201 181.565 57.4927 180.201C59.2449 179.236 60.8015 177.299 61.2703 175.338C61.8774 172.815 61.32 169.569 58.1841 169.31C55.4835 169.087 52.7764 169.965 50.2896 170.934C48.6952 171.555 46.9139 169.929 48.9167 169.148C52.7364 167.659 57.6115 165.975 61.6225 167.723C61.899 167.843 62.1475 167.989 62.3841 168.147C63.3541 166.556 64.4355 164.373 63.46 162.936C62.5699 161.628 60.9268 161.317 59.4328 161.226C55.6909 161.003 51.7868 161.772 48.2663 163.012C46.3629 163.684 45.8423 161.552 47.6992 160.9C52.1822 159.319 57.618 158.271 62.3376 159.24C62.8669 159.35 63.3228 159.499 63.7451 159.667C64.1999 155.981 63.2429 152.599 58.4898 152.991C54.9682 153.283 51.6194 154.403 48.2101 155.251C46.3176 155.723 45.852 154.041 47.7565 153.566C52.3367 152.425 57.1513 150.587 61.9455 151.217C62.7448 151.322 63.4179 151.528 64.0023 151.802C67.0216 139.88 42.9181 147.781 37.4607 149.7C35.5616 150.369 35.0474 148.264 36.9 147.611C37.8906 147.264 39.3381 146.783 41.0557 146.269C38.0256 142.697 37.6918 137.761 35.6609 133.638C33.6754 129.598 30.882 132.572 30.9058 135.927ZM28.7928 199.25C28.9343 199.281 29.0726 199.319 29.1946 199.396C30.4434 200.173 31.8909 200.504 33.3201 200.841C38.192 196.736 44.9997 195.588 51.9327 195.495C51.6248 193.341 50.9032 191.282 50.1665 189.225C49.1943 189.971 48.1194 190.597 46.983 191.082C47.1991 191.723 46.5164 192.611 45.3961 192.609C40.9185 192.597 34.4554 192.79 30.7275 189.671C29.455 192.102 29.1568 196.228 28.7928 199.25ZM50.3167 234.036C43.1741 227.909 22.2584 213.7 31.1855 202.973C31.3486 202.777 31.5215 202.596 31.69 202.412C30.5989 202.127 29.5046 201.888 28.4492 201.533C26.9423 209.741 25.5931 218.003 24.784 226.311C24.1304 233.028 23.1636 240.523 25.6255 247.001C28.6934 255.066 37.8398 263.562 46.3014 256.303C46.3025 255.816 46.3111 255.337 46.3316 254.886C46.6762 247.731 48.5353 240.927 50.3167 234.036ZM126.513 253.828C125.951 253.156 125.21 252.692 124.222 251.981C120.924 249.603 112.109 242.705 118.492 241.434C118.317 241.339 118.139 241.253 117.968 241.149C117.017 240.578 115.502 239.722 115.58 238.418C115.665 236.995 117.572 236.204 118.676 235.76C118.736 235.737 118.799 235.718 118.86 235.699C117.806 234.881 116.985 233.862 116.899 232.567C116.719 229.905 117.991 228.774 119.84 228.475C118.86 227.392 118.587 226.164 119.629 224.806C122.238 221.401 128.455 221.717 132.074 223.148C132.337 223.253 132.589 223.369 132.845 223.483C136.884 220.02 143.569 216.004 144.559 210.429C145.685 204.092 141.057 199.511 135.332 197.894C126.351 195.356 117.054 196.53 107.889 196.978C106.561 197.043 106.337 196.227 106.773 195.577C105.153 190.566 103.915 185.433 102.003 180.513C100.248 175.993 96.7445 166.457 90.6541 166.217C83.2879 165.925 78.484 175.529 75.9131 181.151C73.6737 186.045 71.9875 191.121 70.0754 196.14C70.0203 196.287 69.9242 196.414 69.8043 196.526C70.7743 197.028 69.276 198.595 68.0316 198.533C62.383 198.256 56.7495 197.625 51.0847 197.91C45.4199 198.192 35.3747 198.778 32.9701 205.201C29.0164 215.763 46.5412 226.84 53.108 232.605C53.4666 232.729 53.6805 232.99 53.5703 233.42C52.1023 239.115 50.4031 244.791 49.7992 250.662C49.231 256.184 48.7006 266.302 54.9206 269.278C60.9689 272.172 69.2426 266.917 74.2171 263.771C78.6039 260.995 82.7467 257.906 86.925 254.833C86.9845 254.791 87.0601 254.772 87.1249 254.738C87.2319 254.679 87.3453 254.625 87.463 254.578C88.0474 254.349 88.7269 254.298 89.1569 254.601C95.499 259.074 101.59 264.767 108.884 267.682C114.686 269.998 120.326 270.599 124.532 265.059C127.31 261.395 127.598 258.057 126.513 253.828ZM140.323 233.634C136.97 228.666 131.719 224.032 125.358 224.194C120.931 224.306 122.569 227.57 124.413 228.527C125.002 228.832 125.592 229.106 126.19 229.369C127.677 229.839 129.036 230.38 129.985 230.774C131.055 231.123 132.127 231.471 133.187 231.854C134.971 232.501 132.387 234.067 131.303 233.675C130.132 233.249 125.68 232.114 122.459 230.38C121.697 230.202 120.955 230.114 120.283 230.212C119.707 230.293 120.076 232.351 120.225 232.669C120.564 233.388 121.204 234 121.859 234.441C124.738 236.388 128.31 237.777 131.747 238.333C133.562 238.625 130.936 240.31 129.858 240.138C127.26 239.716 124.614 238.765 122.244 237.634C121.683 237.367 121.037 237.057 120.392 236.697C120.259 236.783 120.099 236.87 119.887 236.954C116.8 238.189 121.383 240.231 122.683 240.799C124.902 241.774 127.423 242.35 129.535 243.534C130.773 244.231 127.875 245.47 127.031 244.996C125.144 243.937 123.032 243.338 120.995 242.565C120.59 242.808 120.119 242.985 119.752 242.987C117.54 242.987 122.27 247.052 123.16 247.765C124.935 249.183 126.781 250.493 128.624 251.82C129.052 251.888 129.408 252.105 129.521 252.519C129.521 252.519 129.522 252.525 129.523 252.528C131.706 254.708 129.668 258.48 133.492 260.051C136.67 261.356 141.118 261.799 144.722 261.306C145.776 252.188 145.693 241.586 140.323 233.634ZM150.019 233.612C148.175 233.982 146.322 234.328 144.462 234.648C148.431 242.55 148.846 252.621 147.822 261.299C150.41 262.461 153.124 263.398 155.879 264.206C160.483 254.899 156.604 241.118 150.019 233.612ZM237.426 231.771C237.133 209.805 235.338 185.889 226.769 165.389C222.22 154.501 215.593 147.631 204.236 143.437C191.24 138.637 177.056 137.961 164.641 131.489C155.814 137.584 145.538 141.414 136.898 147.803C136.516 148.086 135.166 148.312 134.445 148.304C133.889 148.333 133.428 148.192 133.381 147.813C132.918 144.145 131.73 140.021 128.835 137.604C127.643 140.259 126.735 143.061 125.964 145.744C121.466 161.379 119.927 177.816 119.792 194.042C127.432 193.652 135.317 193.937 141.526 197.711C146.111 200.495 149.651 206.154 147.271 211.577C144.811 217.187 139.62 220.718 135.104 224.603C138.699 226.644 141.405 229.451 143.401 232.73C143.636 232.562 143.919 232.433 144.239 232.381C159.293 229.846 173.616 225.27 188.8 224.369C189.4 212.59 189.441 200.739 188.739 188.969C188.693 188.181 191.841 187.669 191.868 188.133C192.584 200.139 192.529 212.227 191.892 224.238C192.813 224.216 193.732 224.201 194.659 224.209C196.777 224.229 196.212 226.576 194.4 226.562C180.279 226.44 166.985 230.035 153.399 232.917C160.212 241.115 163.77 255.369 158.507 264.939C160.518 265.478 162.537 265.97 164.527 266.452C172.068 268.284 179.971 270.074 187.969 271.364C194.018 272.336 200.122 273.024 206.17 273.209C210.846 273.355 215.489 273.203 220.045 272.66C226.472 271.896 234.04 270.297 235.321 262.935C237.109 252.676 237.563 242.172 237.426 231.771ZM-3.24835 171.475C0.360748 178.717 -11.078 186.424 -16.1638 190.659C-15.0057 194.33 -13.8456 198.042 -13.2558 201.849C-12.8183 204.679 -11.8795 209.414 -14.1416 211.779C-22.1937 220.191 -32.8741 211.496 -40.1722 206.191C-45.9666 210.59 -54.4001 217.462 -61.7091 214.844C-69.9578 211.892 -65.4456 197.451 -63.8685 191.501C-68.5827 187.524 -81.5499 178.458 -75.439 171.776C-70.1404 165.983 -60.753 166.972 -53.3544 167.478C-50.6679 160.312 -47.4325 148.054 -38.0484 147.578C-30.0114 147.172 -27.6198 160.743 -25.8492 166.539C-18.8784 166.019 -6.72025 164.505 -3.24835 171.475ZM-6.03754 172.997C-9.4133 166.22 -21.5823 168.482 -27.6587 168.796C-28.8307 168.857 -29.1397 168.23 -28.8966 167.636C-30.1162 163.729 -33.4196 147.687 -39.5921 149.884C-46.0326 152.175 -48.287 162.232 -50.4345 167.922C-50.441 167.942 -50.4529 167.954 -50.4605 167.971C-50.0856 168.603 -51.3808 169.816 -52.4794 169.759C-57.1115 169.523 -72.7243 167.133 -73.6047 174.165C-74.4268 180.734 -65.3765 186.329 -61.0793 190.072C-60.7184 190.196 -60.5024 190.457 -60.6148 190.889C-61.9435 196.009 -66.5443 209.151 -60.214 212.621C-54.5643 215.721 -45.258 207.105 -40.9641 203.942C-40.9068 203.902 -40.8355 203.883 -40.7739 203.851C-40.6659 203.791 -40.5525 203.738 -40.4358 203.689C-39.847 203.455 -39.1622 203.403 -38.7312 203.711C-35.4785 206.02 -32.389 208.749 -28.8566 210.634C-26.0275 212.143 -18.6645 215.594 -16.571 210.598C-16.0536 209.362 -15.8991 208.037 -15.9564 206.704C-16.1886 201.332 -17.8349 196.112 -19.4423 191.016C-19.6194 190.454 -19.2079 189.982 -18.6321 189.71C-14.8307 186.481 -3.20297 178.687 -6.03754 172.997ZM-90.1886 171.475C-86.5806 178.717 -98.0182 186.424 -103.104 190.659C-101.946 194.33 -100.787 198.042 -100.196 201.849C-99.7574 204.679 -98.8198 209.414 -101.082 211.779C-109.133 220.191 -119.815 211.496 -127.113 206.191C-132.906 210.59 -141.34 217.46 -148.649 214.843C-156.898 211.892 -152.386 197.452 -150.809 191.499C-155.524 187.523 -168.49 178.456 -162.38 171.774C-157.083 165.98 -147.693 166.97 -140.296 167.478C-137.61 160.31 -134.374 148.052 -124.991 147.578C-116.954 147.172 -114.562 160.743 -112.792 166.537C-105.819 166.019 -93.6605 164.505 -90.1886 171.475ZM-92.9778 172.997C-96.3536 166.22 -108.523 168.482 -114.599 168.796C-115.771 168.857 -116.08 168.23 -115.838 167.636C-117.058 163.729 -120.36 147.687 -126.533 149.884C-132.973 152.175 -135.228 162.232 -137.376 167.922C-137.382 167.942 -137.394 167.954 -137.402 167.971C-137.027 168.603 -138.322 169.816 -139.421 169.759C-144.053 169.523 -159.666 167.133 -160.546 174.165C-161.369 180.734 -152.319 186.329 -148.022 190.072C-147.661 190.196 -147.445 190.456 -147.556 190.889C-148.885 196.009 -153.486 209.151 -147.155 212.621C-141.506 215.721 -132.199 207.108 -127.905 203.942C-127.849 203.9 -127.777 203.883 -127.714 203.851C-127.607 203.79 -127.494 203.736 -127.377 203.689C-126.788 203.455 -126.104 203.403 -125.673 203.711C-122.42 206.02 -119.33 208.749 -115.798 210.634C-112.969 212.143 -105.606 215.594 -103.512 210.598C-102.995 209.362 -102.84 208.037 -102.898 206.704C-103.129 201.332 -104.776 196.112 -106.384 191.016C-106.561 190.454 -106.149 189.982 -105.572 189.71C-101.77 186.481 -90.1432 178.687 -92.9778 172.997ZM-177.129 171.475C-173.521 178.717 -184.959 186.424 -190.045 190.659C-188.887 194.33 -187.727 198.042 -187.137 201.849C-186.698 204.679 -185.761 209.414 -188.023 211.779C-196.076 220.191 -206.756 211.496 -214.054 206.191C-219.848 210.59 -228.281 217.462 -235.592 214.844C-243.84 211.892 -239.328 197.451 -237.75 191.501C-242.465 187.524 -255.433 178.458 -249.322 171.776C-244.023 165.983 -234.636 166.972 -227.237 167.478C-224.551 160.312 -221.315 148.054 -211.931 147.578C-203.895 147.172 -201.502 160.743 -199.732 166.539C-192.758 166.019 -180.601 164.505 -177.129 171.475ZM-179.918 172.997C-183.294 166.22 -195.463 168.482 -201.539 168.796C-202.711 168.857 -203.02 168.23 -202.779 167.636C-203.998 163.729 -207.3 147.687 -213.475 149.884C-219.913 152.175 -222.169 162.232 -224.317 167.922C-224.324 167.942 -224.336 167.954 -224.343 167.971C-223.968 168.603 -225.264 169.816 -226.362 169.759C-230.994 169.523 -246.607 167.133 -247.487 174.165C-248.309 180.734 -239.259 186.329 -234.962 190.072C-234.6 190.196 -234.385 190.457 -234.496 190.889C-235.826 196.007 -240.426 209.151 -234.096 212.621C-228.445 215.721 -219.14 207.108 -214.846 203.942C-214.789 203.9 -214.717 203.883 -214.654 203.851C-214.546 203.79 -214.434 203.736 -214.316 203.689C-213.729 203.455 -213.044 203.405 -212.613 203.711C-209.36 206.02 -206.271 208.749 -202.738 210.634C-199.909 212.143 -192.546 215.594 -190.453 210.598C-189.935 209.362 -189.781 208.037 -189.838 206.704C-190.069 201.332 -191.717 196.111 -193.325 191.016C-193.502 190.454 -193.091 189.982 -192.514 189.71C-188.71 186.481 -177.084 178.687 -179.918 172.997ZM-264.069 171.475C-260.461 178.717 -271.899 186.424 -276.985 190.659C-275.827 194.33 -274.667 198.042 -274.078 201.849C-273.639 204.681 -272.701 209.414 -274.963 211.779C-283.014 220.192 -293.696 211.496 -300.993 206.191C-306.786 210.59 -315.221 217.46 -322.53 214.843C-330.779 211.892 -326.266 197.452 -324.689 191.499C-329.405 187.523 -342.371 178.456 -336.261 171.774C-330.962 165.98 -321.574 166.97 -314.176 167.478C-311.491 160.31 -308.254 148.052 -298.871 147.578C-290.834 147.172 -288.443 160.743 -286.671 166.537C-279.699 166.019 -267.541 164.505 -264.069 171.475ZM-266.858 172.997C-270.234 166.22 -282.403 168.482 -288.479 168.796C-289.652 168.857 -289.959 168.23 -289.718 167.636C-290.937 163.731 -294.24 147.687 -300.415 149.884C-306.853 152.175 -309.11 162.232 -311.256 167.922C-311.263 167.942 -311.275 167.954 -311.282 167.971C-310.907 168.603 -312.203 169.816 -313.301 169.759C-317.933 169.523 -333.547 167.133 -334.427 174.165C-335.25 180.734 -326.199 186.329 -321.902 190.072C-321.541 190.196 -321.325 190.456 -321.437 190.889C-322.765 196.009 -327.366 209.151 -321.036 212.621C-315.387 215.721 -306.08 207.108 -301.786 203.942C-301.73 203.9 -301.657 203.883 -301.595 203.851C-301.488 203.79 -301.375 203.736 -301.258 203.689C-300.669 203.455 -299.984 203.403 -299.553 203.711C-296.3 206.02 -293.211 208.749 -289.679 210.634C-286.849 212.143 -279.487 215.594 -277.393 210.598C-276.875 209.362 -276.721 208.037 -276.778 206.704C-277.009 201.332 -278.657 196.112 -280.264 191.016C-280.441 190.454 -280.03 189.982 -279.453 189.71C-275.652 186.483 -264.024 178.687 -266.858 172.997Z" fill="black"/>
</g>
<defs>
<clipPath id="clip0_226_288">
<rect width="261" height="303" fill="white"/>
</clipPath>
</defs>
</svg>
