<svg width="499" height="41" viewBox="0 0 499 41" fill="none" xmlns="http://www.w3.org/2000/svg">
<path d="M2.59937 4.92445C4.53395 3.28749 6.08656 4.69829 7.99854 5.51464C9.18887 6.02287 10.2515 6.65754 11.5397 6.89176C13.8427 7.3105 15.7176 5.19966 17.3761 3.87522C19.8394 1.90796 21.6709 1.02176 24.4802 2.84784C26.8107 4.36264 29.0293 6.07509 31.5407 7.30708C32.7148 7.88304 33.6851 7.93676 34.754 7.19779C36.6315 5.89974 38.7236 5.11749 40.7652 4.13753C41.7746 3.65303 42.8099 3.22525 43.9566 3.43804C46.0673 3.8297 47.4219 5.76776 49.2902 6.67317C51.3962 7.69378 53.0643 6.90633 54.5364 5.40535C55.2255 4.70274 55.8328 3.58768 56.7004 3.15387" stroke="#E44002" stroke-width="3" stroke-linecap="round"/>
<path d="M2.20593 18.1055C2.83287 17.9801 3.25891 17.1655 3.81257 16.8595C4.89004 16.2641 6.34962 16.5282 7.43024 16.9688C10.0582 18.0404 12.3558 20.0355 14.8623 21.3625C16.5726 22.2679 18.3327 22.2752 20.1413 21.592C22.1857 20.8196 24.515 19.8766 26.2071 18.4552C27.4369 17.4222 28.9439 15.8478 30.7757 16.466C31.3459 16.6585 31.8329 17.0592 32.3277 17.3841C33.7781 18.3367 35.2839 19.1974 36.6995 20.2039C37.6729 20.8961 38.8085 22.1527 40.0657 22.3461C41.879 22.6251 44.0849 20.9987 45.5196 20.0946C46.5925 19.4186 47.5869 18.2497 48.8312 17.9087C50.7186 17.3916 52.9443 17.712 54.8862 17.712C55.6841 17.712 55.8843 18.2738 56.4381 18.794C56.9738 19.2972 57.6636 19.6486 58.0776 20.2695" stroke="#E44002" stroke-width="3" stroke-linecap="round"/>
<path d="M3.38635 38.369C6.07314 36.5489 8.39319 34.4914 11.8458 34.4343C14.8419 34.3848 17.3959 34.724 20.2178 35.7677C22.7111 36.6899 24.716 35.431 26.7974 33.9972C27.9675 33.191 28.9455 32.3574 30.3822 32.0736C31.9613 31.7616 33.7617 32.9815 34.9289 33.9316C36.5958 35.2883 38.5343 36.6798 40.7871 35.7787C43.3184 34.7661 45.095 32.6214 47.5743 31.5817C50.338 30.4228 51.1983 32.9843 53.3342 34.2048C55.6184 35.5101 57.0003 31.5 58.0776 30.303" stroke="#E44002" stroke-width="3" stroke-linecap="round"/>
<path d="M496.478 5.07289C494.544 3.43593 492.991 4.84673 491.079 5.66308C489.889 6.17131 488.826 6.80598 487.538 7.0402C485.235 7.45894 483.36 5.3481 481.702 4.02366C479.238 2.0564 477.407 1.1702 474.597 2.99628C472.267 4.51108 470.048 6.22353 467.537 7.45552C466.363 8.03148 465.392 8.0852 464.324 7.34623C462.446 6.04817 460.354 5.26593 458.312 4.28596C457.303 3.80147 456.268 3.37369 455.121 3.58648C453.01 3.97814 451.656 5.9162 449.787 6.82161C447.681 7.84222 446.013 7.05477 444.541 5.55379C443.852 4.85118 443.245 3.73611 442.377 3.30231" stroke="#E44002" stroke-width="3" stroke-linecap="round"/>
<path d="M496.872 18.2539C496.245 18.1285 495.819 17.3139 495.265 17.0079C494.188 16.4125 492.728 16.6766 491.647 17.1172C489.019 18.1888 486.722 20.1839 484.215 21.5109C482.505 22.4164 480.745 22.4237 478.936 21.7404C476.892 20.9681 474.563 20.025 472.87 18.6037C471.641 17.5706 470.134 15.9963 468.302 16.6145C467.732 16.8069 467.245 17.2076 466.75 17.5326C465.299 18.4851 463.794 19.3458 462.378 20.3524C461.405 21.0446 460.269 22.3011 459.012 22.4946C457.199 22.7735 454.993 21.1471 453.558 20.2431C452.485 19.567 451.491 18.3981 450.246 18.0572C448.359 17.5401 446.133 17.8604 444.191 17.8604C443.393 17.8604 443.193 18.4222 442.639 18.9425C442.104 19.4457 441.414 19.797 441 20.418" stroke="#E44002" stroke-width="3" stroke-linecap="round"/>
<path d="M495.691 38.5174C493.004 36.6973 490.684 34.6398 487.232 34.5828C484.236 34.5332 481.682 34.8725 478.86 35.9162C476.366 36.8384 474.362 35.5794 472.28 34.1456C471.11 33.3395 470.132 32.5058 468.695 32.222C467.116 31.9101 465.316 33.13 464.149 34.08C462.482 35.4368 460.543 36.8282 458.29 35.9271C455.759 34.9146 453.983 32.7699 451.503 31.7302C448.74 30.5712 447.879 33.1328 445.743 34.3532C443.459 35.6585 442.077 31.6484 441 30.4514" stroke="#E44002" stroke-width="3" stroke-linecap="round"/>
</svg>
