<svg width="591" height="1789" viewBox="0 0 591 1789" fill="none" xmlns="http://www.w3.org/2000/svg">
<g filter="url(#filter0_d_269_3271)">
<path d="M41.0404 47.5398C41.0197 45.6649 42.7341 44.1912 44.5829 44.5036C136.588 60.0456 189.827 53.624 289.24 43.8906C337.554 39.1621 364.127 29.2072 411.804 18.1011C412.088 18.0348 412.392 18.0097 412.684 18.0284C463.644 21.2872 490.645 27.602 535.468 43.1888C536.666 43.6056 537.485 44.7657 537.492 46.0344C541.304 708.679 540.332 1081.37 537.495 1743.62C537.487 1745.45 535.838 1746.88 534.033 1746.62C439.313 1732.88 385.117 1727.74 289.475 1747.07C289.321 1747.1 289.158 1747.12 289 1747.13C190.795 1751.29 136.987 1750.58 43.9416 1747.23C42.3183 1747.17 41.0113 1745.79 41.0251 1744.17C46.7128 1073.16 48.2381 698.117 41.0404 47.5398Z" fill="#62B4FF"/>
<path d="M536.492 46.0402C540.304 708.68 539.332 1081.37 536.495 1743.62C536.49 1744.84 535.374 1745.8 534.177 1745.63C439.408 1731.88 385.082 1726.73 289.277 1746.09C289.174 1746.11 289.063 1746.13 288.958 1746.13C190.785 1750.28 137.005 1749.58 43.9777 1746.23C42.901 1746.19 42.0158 1745.26 42.025 1744.17C47.7128 1073.16 49.2381 698.115 42.0404 47.5288C42.0265 46.2733 43.1858 45.2817 44.4164 45.4896C132.348 60.3435 184.961 55.1622 275.958 46.2008C280.327 45.7706 284.784 45.3317 289.337 44.8858C324.004 41.493 347.548 35.4044 375.599 28.1502C386.711 25.2764 398.531 22.2196 412.03 19.075C412.22 19.0309 412.426 19.0139 412.62 19.0263C463.48 22.2788 490.392 28.5727 535.139 44.1334C535.932 44.409 536.487 45.189 536.492 46.0402Z" stroke="black" stroke-width="2"/>
</g>
<path d="M1.67096 69.4341L119.212 1.57184L120.235 7.02557L120.3 7.37636L120.573 7.60622L125.532 11.7813L127.401 18.1625L127.463 18.3736L127.608 18.5393L132.407 24.0342L14.6925 91.9965L13.2484 85.812L13.1841 85.5365L12.985 85.3355L6.99372 79.2889L5.30061 73.0221L5.22605 72.7461L5.01687 72.5512L1.67096 69.4341Z" fill="#E3A80F" fill-opacity="0.6" stroke="black" stroke-width="2"/>
<path d="M425.594 1750.59L567.748 1668.52L570.138 1677.54L570.209 1677.8L570.405 1678L577.633 1685.08L581.123 1694.99L581.179 1695.15L581.285 1695.29L588.801 1704.7L446.52 1786.84L443.453 1776.73L443.39 1776.52L443.246 1776.36L434.418 1766.36L431.186 1756.67L431.117 1756.46L430.966 1756.3L425.594 1750.59Z" fill="#E3A80F" fill-opacity="0.6" stroke="black" stroke-width="2"/>
<path d="M465 87.4592C466.152 86.8249 473.065 84.3081 473.455 82.7361C474.192 79.7695 468.386 86.5454 467.114 89.3219C465.584 92.6591 475.833 86.8125 477.385 86.0622C478.689 85.4322 479.743 84.3379 481.051 83.7339C483.509 82.5994 477.873 88.1432 476.163 90.2532C475.394 91.2031 470.237 96.3647 470.681 98.0032C470.904 98.8284 482.703 90.588 483.396 90.0869C483.851 89.7581 493.878 81.9187 488.978 86.1953C484.149 90.4104 479.758 95.5154 475.602 100.398C474.891 101.233 473.716 102.001 473.191 102.959C472.234 104.706 476.655 101.01 478.277 99.8659C481.365 97.6889 484.497 95.5318 487.459 93.1803C487.718 92.9744 492.76 87.9475 491.158 91.118C488.075 97.2206 483.252 102.007 478.508 106.784C478.117 107.178 477.008 108.257 477.551 108.148C482.278 107.196 487.366 103.697 491.422 101.296C493.782 99.899 496.098 97.7441 498.556 96.5064C499.131 96.217 493.404 102.994 493.305 103.092C490.433 105.927 487.432 108.613 484.09 110.876C482.766 111.772 480.112 113.478 483.628 111.009C487.874 108.026 492.099 105.012 496.541 102.327C498.173 101.341 500.581 98.4951 501.76 99.9989C502.777 101.296 500.294 102.972 499.349 104.323C496.833 107.919 494.119 112.954 490.563 115" stroke="black" stroke-width="3" stroke-linecap="round"/>
<path d="M77.4619 115.709C78.3689 116.473 79.4022 117.094 80.413 117.65C80.8292 117.879 81.2292 118.091 81.6192 118.297C82.2147 118.612 82.7867 118.915 83.3571 119.248C85.212 120.329 86.4795 121.424 86.8512 123.089C87.2628 124.932 86.7912 126.776 85.7829 128.617C84.7703 130.466 83.2651 132.222 81.7489 133.844C79.0807 136.699 75.6227 138.65 71.7861 138.952C67.9957 139.25 64.0927 138.174 61.6809 135.547C60.7102 134.489 60.3967 133.139 60.3166 131.469C60.2844 130.798 60.2906 130.115 60.2971 129.395C60.2987 129.212 60.3004 129.028 60.3015 128.84C60.3067 127.931 60.2973 126.973 60.186 126.028C60.0765 125.099 59.8885 124.186 59.6997 123.318C59.6675 123.17 59.6354 123.024 59.6036 122.879C59.4457 122.16 59.2955 121.476 59.1826 120.795C58.9131 119.169 58.8889 117.727 59.4769 116.356C60.3991 114.206 61.4859 111.885 62.8926 110.076C64.2955 108.272 65.9125 107.108 67.8826 107.006C69.7406 106.909 71.1267 108.024 72.6198 109.87C73.0815 110.442 73.5117 111.027 73.9597 111.637C74.2454 112.025 74.5383 112.424 74.8512 112.835C75.6242 113.85 76.4738 114.875 77.4619 115.709Z" fill="#F00699" stroke="black" stroke-width="2"/>
<path d="M404 315.43C411.218 313.484 412.818 309.897 412.25 300C413.563 311.822 415.104 313.588 422 316.935C414.55 315.87 414.795 324.887 413.75 335C412.526 324.476 410.487 319.434 404 315.43Z" fill="#E44002" stroke="black" stroke-width="2"/>
<defs>
<filter id="filter0_d_269_3271" x="41.0249" y="18.0225" width="500.975" height="1733.98" filterUnits="userSpaceOnUse" color-interpolation-filters="sRGB">
<feFlood flood-opacity="0" result="BackgroundImageFix"/>
<feColorMatrix in="SourceAlpha" type="matrix" values="0 0 0 0 0 0 0 0 0 0 0 0 0 0 0 0 0 0 127 0" result="hardAlpha"/>
<feOffset dx="2" dy="2"/>
<feComposite in2="hardAlpha" operator="out"/>
<feColorMatrix type="matrix" values="0 0 0 0 0 0 0 0 0 0 0 0 0 0 0 0 0 0 1 0"/>
<feBlend mode="normal" in2="BackgroundImageFix" result="effect1_dropShadow_269_3271"/>
<feBlend mode="normal" in="SourceGraphic" in2="effect1_dropShadow_269_3271" result="shape"/>
</filter>
</defs>
</svg>
