<svg width="493" height="285" viewBox="0 0 493 285" fill="none" xmlns="http://www.w3.org/2000/svg">
<path fill-rule="evenodd" clip-rule="evenodd" d="M463.5 232.269V232.269L463.541 232.05L463.664 231.829L463.871 231.603L464.162 231.37L464.538 231.127L465 230.871L465.55 230.6L466.19 230.311L466.922 230.002L467.745 229.668L468.662 229.308L469.672 228.919L470.774 228.497L471.965 228.041L473.242 227.548L474.598 227.016L476.025 226.445L477.51 225.833L479.04 225.183L480.596 224.495L482.157 223.773L483.697 223.022L485.19 222.248L486.605 221.461L487.91 220.669L489.075 219.884L490.067 219.119L490.86 218.385L491.429 217.697L491.756 217.066L491.828 216.503L491.641 216.019L491.198 215.619L490.511 215.31L489.595 215.092L488.476 214.964L487.18 214.923L485.739 214.964L484.185 215.077L482.551 215.255L480.867 215.486L479.163 215.761L477.464 216.069L475.794 216.401L474.17 216.746L472.607 217.097L471.119 217.445L469.713 217.784L468.396 218.108L467.17 218.413L466.039 218.694L465.001 218.948L464.056 219.173L463.202 219.366L462.437 219.526L461.758 219.65L461.162 219.737L460.646 219.787L460.207 219.797L459.842 219.767L459.55 219.695L459.327 219.579L459.172 219.418L459.084 219.209L459.06 218.952L459.101 218.643L459.205 218.279L459.372 217.859L459.601 217.379L459.892 216.836L460.245 216.227L460.658 215.549L461.132 214.798L461.665 213.973L462.254 213.071L462.899 212.09L463.594 211.03L464.334 209.892L465.114 208.678L465.926 207.393L466.759 206.043L467.602 204.638L468.442 203.191L469.261 201.716L470.044 200.233L470.771 198.762L471.423 197.328L471.981 195.958L472.426 194.678L472.741 193.516L472.911 192.498L472.927 191.647L472.78 190.983L472.469 190.522L471.997 190.272L471.371 190.237L470.603 190.412L469.71 190.789L468.711 191.353L467.625 192.083L466.474 192.958L465.28 193.951L464.063 195.038L462.842 196.192L461.634 197.39L460.452 198.607L459.309 199.824L458.214 201.022L457.172 202.187L456.19 203.307L455.269 204.37L454.411 205.371L453.615 206.302L452.88 207.161L452.205 207.944L451.587 208.65L451.022 209.279L450.508 209.83L450.042 210.304L449.62 210.701L449.239 211.021L448.897 211.267L448.589 211.437L448.314 211.532L448.068 211.552L447.849 211.497L447.655 211.366L447.483 211.158L447.332 210.871L447.198 210.505L447.08 210.056L446.976 209.523L446.883 208.904L446.8 208.195L446.723 207.396L446.651 206.504L446.581 205.517L446.509 204.436L446.434 203.26L446.35 201.992L446.256 200.636L446.147 199.197L446.019 197.684L445.869 196.109L445.693 194.486L445.487 192.834L445.249 191.176L444.974 189.536L444.663 187.942L444.313 186.427L443.925 185.022L443.502 183.76L443.045 182.672L442.56 181.787L442.052 181.13L441.528 180.719L440.995 180.567L440.462 180.677L439.936 181.048L439.424 181.667L438.935 182.517L438.474 183.574L438.045 184.811L437.651 186.195L437.295 187.695L436.978 189.278L436.698 190.913L436.453 192.57L436.242 194.224L436.062 195.853L435.908 197.437L435.777 198.961L435.665 200.412L435.569 201.782L435.484 203.064L435.407 204.255L435.335 205.351L435.265 206.353L435.193 207.26L435.118 208.074L435.035 208.797L434.944 209.43L434.842 209.977L434.727 210.439L434.596 210.818L434.447 211.118L434.279 211.338L434.088 211.481L433.874 211.549L433.632 211.54L433.362 211.457L433.059 211.299L432.723 211.065L432.348 210.757L431.933 210.372L431.474 209.911L430.968 209.372L430.412 208.756L429.802 208.062L429.136 207.291L428.411 206.444L427.625 205.524L426.777 204.534L425.866 203.48L424.893 202.369L423.861 201.21L422.774 200.016L421.637 198.801L420.461 197.583L419.256 196.381L418.036 195.218L416.818 194.119L415.619 193.109L414.46 192.213L413.362 191.458L412.347 190.867L411.436 190.459L410.647 190.251L409.998 190.252L409.501 190.468L409.164 190.896L408.991 191.528L408.981 192.35L409.127 193.344L409.42 194.485L409.845 195.747L410.386 197.105L411.025 198.53L411.741 199.997L412.516 201.48L413.331 202.957L414.168 204.41L415.012 205.823L415.847 207.182L416.663 208.478L417.449 209.704L418.196 210.854L418.899 211.926L419.551 212.92L420.15 213.835L420.692 214.672L421.175 215.434L421.598 216.124L421.961 216.744L422.262 217.297L422.501 217.787L422.677 218.216L422.792 218.588L422.842 218.906L422.829 219.172L422.751 219.388L422.607 219.556L422.395 219.679L422.114 219.758L421.761 219.795L421.334 219.791L420.831 219.748L420.247 219.666L419.582 219.548L418.83 219.394L417.991 219.206L417.061 218.986L416.038 218.736L414.921 218.459L413.71 218.158L412.407 217.836L411.015 217.499L409.54 217.152L407.989 216.802L406.374 216.455L404.709 216.121L403.014 215.808L401.309 215.527L399.62 215.288L397.976 215.101L396.407 214.977L394.946 214.924L393.625 214.952L392.475 215.065L391.525 215.269L390.8 215.564L390.317 215.949L390.09 216.421L390.121 216.971L390.407 217.592L390.939 218.272L391.697 219L392.66 219.761L393.799 220.543L395.084 221.335L396.483 222.124L397.966 222.9L399.501 223.655L401.06 224.382L402.618 225.075L404.153 225.732L405.647 226.35L407.084 226.928L408.452 227.466L409.742 227.965L410.947 228.427L412.064 228.854L413.088 229.248L414.02 229.613L414.858 229.95L415.604 230.264L416.259 230.556L416.823 230.829L417.3 231.087L417.689 231.332L417.993 231.567L418.213 231.794L418.35 232.015L418.404 232.234L418.376 232.452L418.266 232.673L418.072 232.898L417.795 233.13L417.433 233.371L416.985 233.625L416.448 233.893L415.823 234.179L415.106 234.485L414.297 234.815L413.395 235.17L412.4 235.555L411.313 235.971L410.135 236.422L408.872 236.909L407.528 237.434L406.112 237.999L404.635 238.604L403.111 239.249L401.557 239.931L399.996 240.648L398.45 241.395L396.948 242.165L395.519 242.951L394.194 243.742L393.005 244.529L391.983 245.299L391.157 246.038L390.551 246.735L390.184 247.376L390.071 247.95L390.217 248.447L390.619 248.861L391.269 249.185L392.15 249.418L393.238 249.559L394.508 249.614L395.928 249.586L397.466 249.483L399.09 249.315L400.768 249.092L402.47 248.823L404.171 248.519L405.848 248.191L407.481 247.847L409.053 247.497L410.554 247.148L411.973 246.807L413.305 246.48L414.546 246.172L415.692 245.887L416.745 245.628L417.705 245.398L418.573 245.2L419.352 245.035L420.044 244.905L420.654 244.812L421.182 244.756L421.633 244.739L422.01 244.763L422.314 244.829L422.547 244.938L422.713 245.091L422.812 245.292L422.845 245.541L422.815 245.842L422.721 246.197L422.564 246.608L422.345 247.078L422.063 247.611L421.721 248.209L421.317 248.876L420.852 249.615L420.329 250.428L419.748 251.318L419.112 252.286L418.425 253.334L417.691 254.459L416.917 255.661L416.11 256.935L415.279 258.275L414.437 259.672L413.596 261.114L412.772 262.586L411.983 264.069L411.245 265.543L410.58 266.984L410.006 268.367L409.542 269.663L409.205 270.846L409.011 271.888L408.97 272.767L409.091 273.462L409.376 273.956L409.823 274.24L410.425 274.31L411.17 274.167L412.045 273.821L413.029 273.286L414.102 272.581L415.244 271.728L416.433 270.751L417.647 269.678L418.869 268.532L420.08 267.341L421.267 266.125L422.417 264.907L423.52 263.705L424.571 262.533L425.563 261.406L426.493 260.333L427.362 259.322L428.167 258.379L428.912 257.508L429.596 256.713L430.223 255.995L430.796 255.354L431.318 254.79L431.792 254.304L432.22 253.895L432.607 253.562L432.956 253.305L433.269 253.123L433.549 253.016L433.8 252.984L434.023 253.027L434.22 253.145L434.396 253.341L434.55 253.615L434.687 253.969L434.807 254.405L434.913 254.924L435.008 255.529L435.092 256.224L435.17 257.008L435.242 257.886L435.313 258.857L435.384 259.923L435.459 261.084L435.541 262.337L435.633 263.68L435.739 265.106L435.864 266.608L436.01 268.174L436.182 269.791L436.383 271.439L436.616 273.098L436.885 274.743L437.19 276.346L437.534 277.876L437.915 279.301L438.333 280.588L438.785 281.705L439.266 282.624L439.771 283.319L440.293 283.77L440.825 283.964L441.359 283.896L441.886 283.566L442.4 282.986L442.893 282.171L443.36 281.145L443.794 279.935L444.193 278.572L444.555 277.088L444.879 275.516L445.165 273.888L445.415 272.232L445.631 270.576L445.816 268.941L445.974 267.349L446.109 265.815L446.223 264.351L446.322 262.968L446.408 261.671L446.486 260.466L446.558 259.355L446.629 258.338L446.7 257.416L446.775 256.587L446.856 255.85L446.945 255.202L447.046 254.642L447.159 254.167L447.287 253.774L447.433 253.462L447.598 253.229L447.785 253.074L447.995 252.995L448.232 252.991L448.498 253.062L448.795 253.209L449.126 253.43L449.495 253.727L449.903 254.099L450.355 254.548L450.853 255.075L451.401 255.679L452.002 256.36L452.659 257.119L453.374 257.954L454.15 258.862L454.989 259.841L455.89 260.886L456.853 261.988L457.876 263.14L458.955 264.33L460.084 265.542L461.254 266.761L462.455 267.967L463.674 269.138L464.894 270.249L466.097 271.275L467.264 272.19L468.373 272.969L469.403 273.588L470.332 274.027L471.141 274.268L471.813 274.3L472.336 274.118L472.698 273.724L472.898 273.123L472.933 272.33L472.811 271.363L472.541 270.244L472.136 268.998L471.612 267.654L470.988 266.238L470.282 264.776L469.515 263.294L468.706 261.814L467.871 260.356L467.027 258.936L466.19 257.568L465.37 256.261L464.579 255.024L463.825 253.862L463.115 252.777L462.454 251.771L461.846 250.844L461.295 249.994L460.803 249.22L460.37 248.519L459.998 247.888L459.687 247.324L459.438 246.825L459.251 246.386L459.127 246.005L459.066 245.679L459.069 245.405L459.137 245.181L459.27 245.005L459.471 244.875L459.741 244.789L460.083 244.746L460.498 244.743L460.989 244.78L461.559 244.856L462.212 244.968L462.949 245.117L463.774 245.299L464.69 245.514L465.698 245.76L466.8 246.033L467.995 246.33L469.284 246.649L470.662 246.984L472.125 247.33L473.665 247.68L475.27 248.028L476.928 248.365L478.62 248.681L480.325 248.968L482.018 249.215L483.672 249.411L485.255 249.545L486.735 249.61L488.081 249.596L489.26 249.496L490.243 249.307L491.005 249.027L491.527 248.656L491.796 248.198L491.807 247.659L491.56 247.049L491.067 246.377L490.343 245.657L489.411 244.9L488.298 244.12L487.034 243.329L485.651 242.539L484.18 241.76L482.651 241.001L481.094 240.27L479.534 239.57L477.994 238.908L476.492 238.283L475.045 237.699L473.666 237.155L472.363 236.65L471.144 236.182L470.013 235.75L468.974 235.35L468.027 234.981L467.174 234.64L466.413 234.323L465.744 234.027L465.166 233.751L464.675 233.491L464.272 233.244L463.955 233.008L463.721 232.78L463.571 232.557L463.504 232.338L463.5 232.269Z" fill="#FFC510"/>
<path d="M463.5 232.269V232.269ZM463.5 232.269L463.541 232.05L463.664 231.829L463.871 231.603L464.162 231.37L464.538 231.127L465 230.871L465.55 230.6L466.19 230.311L466.922 230.002L467.745 229.668L468.662 229.308L469.672 228.919L470.774 228.497L471.965 228.041L473.242 227.548L474.598 227.016L476.025 226.445L477.51 225.833L479.04 225.183L480.596 224.495L482.157 223.773L483.697 223.022L485.19 222.248L486.605 221.461L487.91 220.669L489.075 219.884L490.067 219.119L490.86 218.385L491.429 217.697L491.756 217.066L491.828 216.503L491.641 216.019L491.198 215.619L490.511 215.31L489.595 215.092L488.476 214.964L487.18 214.923L485.739 214.964L484.185 215.077L482.551 215.255L480.867 215.486L479.163 215.761L477.464 216.069L475.794 216.401L474.17 216.746L472.607 217.097L471.119 217.445L469.713 217.784L468.396 218.108L467.17 218.413L466.039 218.694L465.001 218.948L464.056 219.173L463.202 219.366L462.437 219.526L461.758 219.65L461.162 219.737L460.646 219.787L460.207 219.797L459.842 219.767L459.55 219.695L459.327 219.579L459.172 219.418L459.084 219.209L459.06 218.952L459.101 218.643L459.205 218.279L459.372 217.859L459.601 217.379L459.892 216.836L460.245 216.227L460.658 215.549L461.132 214.798L461.665 213.973L462.254 213.071L462.899 212.09L463.594 211.03L464.334 209.892L465.114 208.678L465.926 207.393L466.759 206.043L467.602 204.638L468.442 203.191L469.261 201.716L470.044 200.233L470.771 198.762L471.423 197.328L471.981 195.958L472.426 194.678L472.741 193.516L472.911 192.498L472.927 191.647L472.78 190.983L472.469 190.522L471.997 190.272L471.371 190.237L470.603 190.412L469.71 190.789L468.711 191.353L467.625 192.083L466.474 192.958L465.28 193.951L464.063 195.038L462.842 196.192L461.634 197.39L460.452 198.607L459.309 199.824L458.214 201.022L457.172 202.187L456.19 203.307L455.269 204.37L454.411 205.371L453.615 206.302L452.88 207.161L452.205 207.944L451.587 208.65L451.022 209.279L450.508 209.83L450.042 210.304L449.62 210.701L449.239 211.021L448.897 211.267L448.589 211.437L448.314 211.532L448.068 211.552L447.849 211.497L447.655 211.366L447.483 211.158L447.332 210.871L447.198 210.505L447.08 210.056L446.976 209.523L446.883 208.904L446.8 208.195L446.723 207.396L446.651 206.504L446.581 205.517L446.509 204.436L446.434 203.26L446.35 201.992L446.256 200.636L446.147 199.197L446.019 197.684L445.869 196.109L445.693 194.486L445.487 192.834L445.249 191.176L444.974 189.536L444.663 187.942L444.313 186.427L443.925 185.022L443.502 183.76L443.045 182.672L442.56 181.787L442.052 181.13L441.528 180.719L440.995 180.567L440.462 180.677L439.936 181.048L439.424 181.667L438.935 182.517L438.474 183.574L438.045 184.811L437.651 186.195L437.295 187.695L436.978 189.278L436.698 190.913L436.453 192.57L436.242 194.224L436.062 195.853L435.908 197.437L435.777 198.961L435.665 200.412L435.569 201.782L435.484 203.064L435.407 204.255L435.335 205.351L435.265 206.353L435.193 207.26L435.118 208.074L435.035 208.797L434.944 209.43L434.842 209.977L434.727 210.439L434.596 210.818L434.447 211.118L434.279 211.338L434.088 211.481L433.874 211.549L433.632 211.54L433.362 211.457L433.059 211.299L432.723 211.065L432.348 210.757L431.933 210.372L431.474 209.911L430.968 209.372L430.412 208.756L429.802 208.062L429.136 207.291L428.411 206.444L427.625 205.524L426.777 204.534L425.866 203.48L424.893 202.369L423.861 201.21L422.774 200.016L421.637 198.801L420.461 197.583L419.256 196.381L418.036 195.218L416.818 194.119L415.619 193.109L414.46 192.213L413.362 191.458L412.347 190.867L411.436 190.459L410.647 190.251L409.998 190.252L409.501 190.468L409.164 190.896L408.991 191.528L408.981 192.35L409.127 193.344L409.42 194.485L409.845 195.747L410.386 197.105L411.025 198.53L411.741 199.997L412.516 201.48L413.331 202.957L414.168 204.41L415.012 205.823L415.847 207.182L416.663 208.478L417.449 209.704L418.196 210.854L418.899 211.926L419.551 212.92L420.15 213.835L420.692 214.672L421.175 215.434L421.598 216.124L421.961 216.744L422.262 217.297L422.501 217.787L422.677 218.216L422.792 218.588L422.842 218.906L422.829 219.172L422.751 219.388L422.607 219.556L422.395 219.679L422.114 219.758L421.761 219.795L421.334 219.791L420.831 219.748L420.247 219.666L419.582 219.548L418.83 219.394L417.991 219.206L417.061 218.986L416.038 218.736L414.921 218.459L413.71 218.158L412.407 217.836L411.015 217.499L409.54 217.152L407.989 216.802L406.374 216.455L404.709 216.121L403.014 215.808L401.309 215.527L399.62 215.288L397.976 215.101L396.407 214.977L394.946 214.924L393.625 214.952L392.475 215.065L391.525 215.269L390.8 215.564L390.317 215.949L390.09 216.421L390.121 216.971L390.407 217.592L390.939 218.272L391.697 219L392.66 219.761L393.799 220.543L395.084 221.335L396.483 222.124L397.966 222.9L399.501 223.655L401.06 224.382L402.618 225.075L404.153 225.732L405.647 226.35L407.084 226.928L408.452 227.466L409.742 227.965L410.947 228.427L412.064 228.854L413.088 229.248L414.02 229.613L414.858 229.95L415.604 230.264L416.259 230.556L416.823 230.829L417.3 231.087L417.689 231.332L417.993 231.567L418.213 231.794L418.35 232.015L418.404 232.234L418.376 232.452L418.266 232.673L418.072 232.898L417.795 233.13L417.433 233.371L416.985 233.625L416.448 233.893L415.823 234.179L415.106 234.485L414.297 234.815L413.395 235.17L412.4 235.555L411.313 235.971L410.135 236.422L408.872 236.909L407.528 237.434L406.112 237.999L404.635 238.604L403.111 239.249L401.557 239.931L399.996 240.648L398.45 241.395L396.948 242.165L395.519 242.951L394.194 243.742L393.005 244.529L391.983 245.299L391.157 246.038L390.551 246.735L390.184 247.376L390.071 247.95L390.217 248.447L390.619 248.861L391.269 249.185L392.15 249.418L393.238 249.559L394.508 249.614L395.928 249.586L397.466 249.483L399.09 249.315L400.768 249.092L402.47 248.823L404.171 248.519L405.848 248.191L407.481 247.847L409.053 247.497L410.554 247.148L411.973 246.807L413.305 246.48L414.546 246.172L415.692 245.887L416.745 245.628L417.705 245.398L418.573 245.2L419.352 245.035L420.044 244.905L420.654 244.812L421.182 244.756L421.633 244.739L422.01 244.763L422.314 244.829L422.547 244.938L422.713 245.091L422.812 245.292L422.845 245.541L422.815 245.842L422.721 246.197L422.564 246.608L422.345 247.078L422.063 247.611L421.721 248.209L421.317 248.876L420.852 249.615L420.329 250.428L419.748 251.318L419.112 252.286L418.425 253.334L417.691 254.459L416.917 255.661L416.11 256.935L415.279 258.275L414.437 259.672L413.596 261.114L412.772 262.586L411.983 264.069L411.245 265.543L410.58 266.984L410.006 268.367L409.542 269.663L409.205 270.846L409.011 271.888L408.97 272.767L409.091 273.462L409.376 273.956L409.823 274.24L410.425 274.31L411.17 274.167L412.045 273.821L413.029 273.286L414.102 272.581L415.244 271.728L416.433 270.751L417.647 269.678L418.869 268.532L420.08 267.341L421.267 266.125L422.417 264.907L423.52 263.705L424.571 262.533L425.563 261.406L426.493 260.333L427.362 259.322L428.167 258.379L428.912 257.508L429.596 256.713L430.223 255.995L430.796 255.354L431.318 254.79L431.792 254.304L432.22 253.895L432.607 253.562L432.956 253.305L433.269 253.123L433.549 253.016L433.8 252.984L434.023 253.027L434.22 253.145L434.396 253.341L434.55 253.615L434.687 253.969L434.807 254.405L434.913 254.924L435.008 255.529L435.092 256.224L435.17 257.008L435.242 257.886L435.313 258.857L435.384 259.923L435.459 261.084L435.541 262.337L435.633 263.68L435.739 265.106L435.864 266.608L436.01 268.174L436.182 269.791L436.383 271.439L436.616 273.098L436.885 274.743L437.19 276.346L437.534 277.876L437.915 279.301L438.333 280.588L438.785 281.705L439.266 282.624L439.771 283.319L440.293 283.77L440.825 283.964L441.359 283.896L441.886 283.566L442.4 282.986L442.893 282.171L443.36 281.145L443.794 279.935L444.193 278.572L444.555 277.088L444.879 275.516L445.165 273.888L445.415 272.232L445.631 270.576L445.816 268.941L445.974 267.349L446.109 265.815L446.223 264.351L446.322 262.968L446.408 261.671L446.486 260.466L446.558 259.355L446.629 258.338L446.7 257.416L446.775 256.587L446.856 255.85L446.945 255.202L447.046 254.642L447.159 254.167L447.287 253.774L447.433 253.462L447.598 253.229L447.785 253.074L447.995 252.995L448.232 252.991L448.498 253.062L448.795 253.209L449.126 253.43L449.495 253.727L449.903 254.099L450.355 254.548L450.853 255.075L451.401 255.679L452.002 256.36L452.659 257.119L453.374 257.954L454.15 258.862L454.989 259.841L455.89 260.886L456.853 261.988L457.876 263.14L458.955 264.33L460.084 265.542L461.254 266.761L462.455 267.967L463.674 269.138L464.894 270.249L466.097 271.275L467.264 272.19L468.373 272.969L469.403 273.588L470.332 274.027L471.141 274.268L471.813 274.3L472.336 274.118L472.698 273.724L472.898 273.123L472.933 272.33L472.811 271.363L472.541 270.244L472.136 268.998L471.612 267.654L470.988 266.238L470.282 264.776L469.515 263.294L468.706 261.814L467.871 260.356L467.027 258.936L466.19 257.568L465.37 256.261L464.579 255.024L463.825 253.862L463.115 252.777L462.454 251.771L461.846 250.844L461.295 249.994L460.803 249.22L460.37 248.519L459.998 247.888L459.687 247.324L459.438 246.825L459.251 246.386L459.127 246.005L459.066 245.679L459.069 245.405L459.137 245.181L459.27 245.005L459.471 244.875L459.741 244.789L460.083 244.746L460.498 244.743L460.989 244.78L461.559 244.856L462.212 244.968L462.949 245.117L463.774 245.299L464.69 245.514L465.698 245.76L466.8 246.033L467.995 246.33L469.284 246.649L470.662 246.984L472.125 247.33L473.665 247.68L475.27 248.028L476.928 248.365L478.62 248.681L480.325 248.968L482.018 249.215L483.672 249.411L485.255 249.545L486.735 249.61L488.081 249.596L489.26 249.496L490.243 249.307L491.005 249.027L491.527 248.656L491.796 248.198L491.807 247.659L491.56 247.049L491.067 246.377L490.343 245.657L489.411 244.9L488.298 244.12L487.034 243.329L485.651 242.539L484.18 241.76L482.651 241.001L481.094 240.27L479.534 239.57L477.994 238.908L476.492 238.283L475.045 237.699L473.666 237.155L472.363 236.65L471.144 236.182L470.013 235.75L468.974 235.35L468.027 234.981L467.174 234.64L466.413 234.323L465.744 234.027L465.166 233.751L464.675 233.491L464.272 233.244L463.955 233.008L463.721 232.78L463.571 232.557L463.504 232.338L463.5 232.269Z" stroke="black"/>
<g filter="url(#filter0_d_437_1749)">
<path d="M48.9775 31.0673C127.779 26.8054 172.366 26.9683 252.464 31.0673C334.717 34.49 379.002 34.1596 455.95 31.0673C458.369 105.474 458.045 147.191 455.95 221.597C298.545 218.855 210.159 217.56 48.9775 221.597C51.3432 145.888 51.3469 104.168 48.9775 31.0673Z" fill="#E27EF2"/>
<path d="M454.978 220.58C298.531 217.855 210.205 216.574 50.01 220.571C52.3328 145.845 52.336 104.192 50.0086 32.0131C128.165 27.8074 172.679 27.9856 252.413 32.066L252.422 32.0664C334.346 35.4754 378.63 35.1626 454.983 32.1069C457.355 105.531 457.038 147.142 454.978 220.58Z" stroke="black" stroke-width="2"/>
</g>
<g filter="url(#filter1_d_437_1749)">
<path d="M28.2908 48.1377C27.9195 47.4675 28.1161 46.6914 28.7839 46.191L88.4114 1.50392C89.4256 0.743819 91.0848 0.912489 91.84 1.85246L93.9707 4.5047C94.1357 4.70999 94.3528 4.88666 94.6085 5.02355L99.6883 7.74345C99.9055 7.85976 100.095 8.00497 100.249 8.1724L104.133 12.4084C104.245 12.5307 104.377 12.6413 104.525 12.7375L109.333 15.8666C110.362 16.5363 110.426 17.7532 109.469 18.4702L49.7995 63.1889C49.0708 63.735 47.9581 63.8226 47.0926 63.4021L41.1921 60.5351C40.8501 60.3689 40.5706 60.134 40.3833 59.8551L37.0827 54.9424C36.8691 54.6246 36.5367 54.3648 36.1305 54.1984L31.0385 52.1113C30.581 51.9238 30.2187 51.6186 30.0132 51.2477L28.2908 48.1377Z" fill="#E2E2E2" fill-opacity="0.6"/>
<path d="M85.5685 58.9601C84.7351 59.3672 83.6812 59.3127 82.9612 58.8251L31.2125 23.7827C30.1822 23.0851 30.2352 21.8023 31.3231 21.1017L34.4645 19.0787C34.6725 18.9447 34.8498 18.7834 34.9879 18.6023L38.1797 14.4181C38.297 14.2643 38.4427 14.1246 38.6117 14.0038L43.5812 10.4511C43.7045 10.363 43.8155 10.2647 43.9122 10.1581L47.5501 6.14607C48.3257 5.29066 49.8476 5.12387 50.8268 5.78696L102.604 40.8484C103.379 41.3737 103.569 42.265 103.06 42.9932L99.7695 47.702C99.6011 47.9429 99.3653 48.1515 99.0805 48.3116L93.2569 51.5844C92.9319 51.7671 92.6713 52.0127 92.5018 52.2962L90.0264 56.435C89.8352 56.7548 89.5286 57.0256 89.1461 57.2124L85.5685 58.9601Z" fill="#E2E2E2" fill-opacity="0.6"/>
</g>
<path d="M62.1534 181C62.4082 185.452 69.1917 208.21 61.1747 200.695C57.3943 197.151 43.4293 178.445 50.4089 194.059C54.1576 202.444 57.9443 210.895 63.2408 218.463C65.4776 221.659 74.4268 231.482 65.1983 224.457C59.3071 219.973 40.874 198.4 33.2272 200.909C29.2068 202.228 35.337 212.292 36.707 213.753C43.573 221.075 64.3291 242.016 55.4112 237.301C45.9972 232.325 38.4885 225.389 28.3337 221.567C25.8138 220.619 5.0597 214.081 8.43329 216.75C17.5523 223.966 24.1571 235.569 33.6622 241.583C42.7519 247.335 12.5862 235.088 4.08348 228.524C-1.90469 223.902 6.8465 237.678 7.56333 239.442C11.6651 249.535 14.843 259.109 17.1329 269.627" stroke="black" stroke-width="3" stroke-linecap="round"/>
<defs>
<filter id="filter0_d_437_1749" x="48.9775" y="27.9316" width="410.667" height="195.666" filterUnits="userSpaceOnUse" color-interpolation-filters="sRGB">
<feFlood flood-opacity="0" result="BackgroundImageFix"/>
<feColorMatrix in="SourceAlpha" type="matrix" values="0 0 0 0 0 0 0 0 0 0 0 0 0 0 0 0 0 0 127 0" result="hardAlpha"/>
<feOffset dx="2" dy="2"/>
<feComposite in2="hardAlpha" operator="out"/>
<feColorMatrix type="matrix" values="0 0 0 0 0 0 0 0 0 0 0 0 0 0 0 0 0 0 1 0"/>
<feBlend mode="normal" in2="BackgroundImageFix" result="effect1_dropShadow_437_1749"/>
<feBlend mode="normal" in="SourceGraphic" in2="effect1_dropShadow_437_1749" result="shape"/>
</filter>
<filter id="filter1_d_437_1749" x="28.105" y="1.02588" width="82.043" height="63.6406" filterUnits="userSpaceOnUse" color-interpolation-filters="sRGB">
<feFlood flood-opacity="0" result="BackgroundImageFix"/>
<feColorMatrix in="SourceAlpha" type="matrix" values="0 0 0 0 0 0 0 0 0 0 0 0 0 0 0 0 0 0 127 0" result="hardAlpha"/>
<feOffset dy="1"/>
<feComposite in2="hardAlpha" operator="out"/>
<feColorMatrix type="matrix" values="0 0 0 0 0 0 0 0 0 0 0 0 0 0 0 0 0 0 1 0"/>
<feBlend mode="normal" in2="BackgroundImageFix" result="effect1_dropShadow_437_1749"/>
<feBlend mode="normal" in="SourceGraphic" in2="effect1_dropShadow_437_1749" result="shape"/>
</filter>
</defs>
</svg>
