<svg width="61" height="43" viewBox="0 0 61 43" fill="none" xmlns="http://www.w3.org/2000/svg">
<path d="M33.8614 2.16583C37.9164 4.35412 40.9057 8.03703 42.8518 12.2106C44.7948 16.3777 45.3926 20.9764 44.7551 25.5292C44.09 30.2794 42.7731 35.2309 39.1827 38.4156C35.6311 41.5658 30.554 41.7296 25.8397 42.3067C21.1345 42.8828 16.2697 43.7569 11.9779 41.7463C7.53027 39.6627 4.2596 35.6779 2.18992 31.2275C0.124682 26.7867 -0.551779 21.7896 0.469612 17.0005C1.47755 12.2744 4.09159 8.00268 7.80383 4.90465C11.3789 1.92109 15.9658 0.688771 20.5987 0.20182C25.1549 -0.277062 29.8306 -0.00934265 33.8614 2.16583Z" fill="#FD6F00"/>
<path d="M20.0546 28.8318C19.204 28.0839 13.1348 22.8805 17.0616 21.4526C19.763 20.4703 22.2152 23.5388 23.6668 25.2196C25.4719 27.3097 29.3182 30.893 28.3885 34.1469C28.3721 34.2043 24.7621 31.2737 25.3697 29.4511C27.0358 24.4526 33.4129 20.1973 36.3869 26.8451C36.7089 27.5647 36.7093 31.6156 36.3095 30.7411C33.6735 24.9749 40.2968 21.9097 45.0046 22.6653C49.7814 23.4319 53.9376 25.803 58.1376 27.903" stroke="black" stroke-width="4" stroke-linecap="round"/>
</svg>
